G04 PROTEUS GERBER X2 FILE*
%TF.GenerationSoftware,Labcenter,Proteus,9.1-SP2-Build42460*%
%TF.CreationDate,2026-08-03T05:25:27+00:00*%
%TF.FileFunction,Soldermask,Bot*%
%TF.FilePolarity,Negative*%
%TF.Part,Single*%
%TF.SameCoordinates,{e8ae4007-3e72-403a-9a00-08be4b74e47f}*%
%FSLAX26Y26*%
%MOIN*%
G01*
%AMPPAD045*
4,1,34,
0.000000,0.061449,
0.006393,0.060804,
0.012348,0.058956,
0.017736,0.056030,
0.022431,0.052156,
0.026306,0.047461,
0.029231,0.042072,
0.031080,0.036117,
0.031724,0.029725,
0.031724,-0.029725,
0.031080,-0.036117,
0.029231,-0.042072,
0.026306,-0.047461,
0.022431,-0.052156,
0.017736,-0.056030,
0.012348,-0.058956,
0.006393,-0.060804,
0.000000,-0.061449,
-0.006393,-0.060804,
-0.012348,-0.058956,
-0.017736,-0.056030,
-0.022431,-0.052156,
-0.026306,-0.047461,
-0.029231,-0.042072,
-0.031080,-0.036117,
-0.031724,-0.029725,
-0.031724,0.029725,
-0.031080,0.036117,
-0.029231,0.042072,
-0.026306,0.047461,
-0.022431,0.052156,
-0.017736,0.056030,
-0.012348,0.058956,
-0.006393,0.060804,
0.000000,0.061449,
0*%
%TA.AperFunction,Material*%
%ADD51PPAD045*%
%ADD52C,0.050000*%
%TA.AperFunction,Material*%
%ADD63C,0.147795*%
%TA.AperFunction,Material*%
%ADD64C,0.042126*%
%TA.AperFunction,Material*%
%ADD65C,0.070000*%
%AMPPAD060*
4,1,36,
0.012931,-0.043552,
-0.041019,-0.019533,
-0.041898,-0.019030,
-0.042636,-0.018382,
-0.043225,-0.017615,
-0.043652,-0.016757,
-0.043909,-0.015832,
-0.043985,-0.014869,
-0.043869,-0.013893,
-0.043552,-0.012931,
-0.019533,0.041019,
-0.019030,0.041898,
-0.018382,0.042636,
-0.017615,0.043225,
-0.016757,0.043652,
-0.015832,0.043909,
-0.014869,0.043985,
-0.013893,0.043869,
-0.012931,0.043552,
0.041019,0.019533,
0.041898,0.019030,
0.042636,0.018382,
0.043225,0.017615,
0.043652,0.016757,
0.043909,0.015832,
0.043985,0.014869,
0.043869,0.013893,
0.043552,0.012931,
0.019533,-0.041019,
0.019030,-0.041898,
0.018382,-0.042636,
0.017615,-0.043225,
0.016757,-0.043652,
0.015832,-0.043909,
0.014869,-0.043985,
0.013893,-0.043869,
0.012931,-0.043552,
0*%
%TA.AperFunction,Material*%
%ADD66PPAD060*%
%ADD67C,0.069055*%
%ADD68C,0.132142*%
%TA.AperFunction,Material*%
%ADD69C,0.039370*%
%ADD76C,0.078740*%
%ADD77C,0.081890*%
%AMPPAD070*
4,1,36,
-0.029575,0.026575,
-0.029575,-0.026575,
-0.029514,-0.027179,
-0.029339,-0.027743,
-0.029062,-0.028252,
-0.028696,-0.028696,
-0.028252,-0.029062,
-0.027742,-0.029339,
-0.027179,-0.029514,
-0.026575,-0.029575,
0.026575,-0.029575,
0.027179,-0.029514,
0.027742,-0.029339,
0.028252,-0.029062,
0.028696,-0.028696,
0.029062,-0.028252,
0.029339,-0.027743,
0.029514,-0.027179,
0.029575,-0.026575,
0.029575,0.026575,
0.029514,0.027179,
0.029339,0.027743,
0.029062,0.028252,
0.028696,0.028696,
0.028252,0.029062,
0.027742,0.029339,
0.027179,0.029514,
0.026575,0.029575,
-0.026575,0.029575,
-0.027179,0.029514,
-0.027742,0.029339,
-0.028252,0.029062,
-0.028696,0.028696,
-0.029062,0.028252,
-0.029339,0.027743,
-0.029514,0.027179,
-0.029575,0.026575,
0*%
%TA.AperFunction,Material*%
%ADD80PPAD070*%
%ADD81C,0.055213*%
%TA.AperFunction,Profile*%
%ADD44C,0.004000*%
%TD.AperFunction*%
D51*
X-4750000Y+3424780D03*
X-4850000Y+3424780D03*
X-4950000Y+3424780D03*
X-5050000Y+3424780D03*
X-5150000Y+3424780D03*
X-5350000Y+3424780D03*
X-5250000Y+3424780D03*
X-5450000Y+3424780D03*
X-5550000Y+3424780D03*
X-5550000Y+2825000D03*
X-5450000Y+2825000D03*
X-5350000Y+2825000D03*
X-5250000Y+2825000D03*
X-5150000Y+2825000D03*
X-5050000Y+2825000D03*
X-4950000Y+2825000D03*
X-4850000Y+2825000D03*
X-4750000Y+2825000D03*
D52*
X-5410252Y+2912906D03*
X-5347142Y+2912717D03*
X-5284142Y+2912717D03*
X-5223213Y+2912906D03*
X-5161142Y+2912717D03*
X-5099142Y+2912717D03*
X-5037173Y+2912906D03*
D63*
X-4547244Y+3169291D03*
X-6082677Y+3169291D03*
D64*
X-5456693Y+2657480D03*
X-5456693Y+2707480D03*
X-5406693Y+2657480D03*
X-5406693Y+2707480D03*
X-5356693Y+2657480D03*
X-5356693Y+2707480D03*
X-5306693Y+2657480D03*
X-5306693Y+2707480D03*
X-5256693Y+2657480D03*
X-5256693Y+2707480D03*
D65*
X-5444000Y+2387000D03*
X-5326000Y+2387000D03*
X-5685000Y+3925000D03*
X-4633000Y+2741000D03*
X-4635433Y+2840748D03*
X-5575000Y+3800000D03*
X-6078000Y+2996000D03*
X-4600000Y+2928000D03*
X-4601000Y+3038000D03*
D66*
X-5529874Y+2493093D03*
D67*
X-5691722Y+2565152D03*
D68*
X-5444883Y+2562992D03*
X-5696647Y+2675085D03*
D69*
X-5182677Y+3920866D03*
X-5438583Y+3920866D03*
D76*
X-5118110Y+3916929D03*
X-5503937Y+3916929D03*
D77*
X-5118110Y+4035433D03*
X-5503937Y+4035433D03*
D65*
X-4740157Y+2590551D03*
X-4675000Y+2672000D03*
D80*
X-5800000Y+3753740D03*
D81*
X-5800000Y+3675000D03*
D44*
X-5093425Y+4084528D02*
X-5069449Y+4056969D01*
X-5068764Y+4019441D01*
X-5045638Y+4016441D01*
X-5044386Y+4016315D01*
X-5045071Y+4016252D01*
X-5044630Y+4016126D01*
X-5044252Y+4016063D01*
X-5027063Y+4012000D01*
X-4997063Y+3999000D01*
X-4963063Y+3985000D01*
X-4928063Y+3971000D01*
X-4895063Y+3952000D01*
X-4876063Y+3941000D01*
X-4854063Y+3929000D01*
X-4835063Y+3918000D01*
X-4821063Y+3909000D01*
X-4805063Y+3896000D01*
X-4788063Y+3884000D01*
X-4751063Y+3855000D01*
X-4731063Y+3839000D01*
X-4716063Y+3825000D01*
X-4698063Y+3808000D01*
X-4683063Y+3793000D01*
X-4667063Y+3775000D01*
X-4648063Y+3753000D01*
X-4635063Y+3736000D01*
X-4624063Y+3721000D01*
X-4608063Y+3700000D01*
X-4595063Y+3683000D01*
X-4575063Y+3653000D01*
X-4560063Y+3627000D01*
X-4534063Y+3582000D01*
X-4526063Y+3565000D01*
X-4487063Y+3471000D01*
X-4457063Y+3360000D01*
X-4442063Y+3249000D01*
X-4440063Y+3189000D01*
X-4442063Y+3138000D01*
X-4450063Y+3069000D01*
X-4458063Y+3015000D01*
X-4473063Y+2957000D01*
X-4489063Y+2904000D01*
X-4512063Y+2852000D01*
X-4533063Y+2798000D01*
X-4583063Y+2712000D01*
X-4640063Y+2637000D01*
X-4669063Y+2602000D01*
X-4743063Y+2530000D01*
X-4795063Y+2492000D01*
X-4841063Y+2458000D01*
X-4879063Y+2437000D01*
X-4933063Y+2406000D01*
X-4981063Y+2387000D01*
X-5037063Y+2364000D01*
X-5105063Y+2346000D01*
X-5161063Y+2333000D01*
X-5215063Y+2327000D01*
X-5281063Y+2318000D01*
X-5372063Y+2322000D01*
X-5440063Y+2331000D01*
X-5495063Y+2341000D01*
X-5574063Y+2362000D01*
X-5632063Y+2384000D01*
X-5676063Y+2402000D01*
X-5722063Y+2424000D01*
X-5768063Y+2452000D01*
X-5799063Y+2471000D01*
X-5833063Y+2497000D01*
X-5864063Y+2522000D01*
X-5895063Y+2546000D01*
X-5967063Y+2620000D01*
X-6008063Y+2673000D01*
X-6036063Y+2711000D01*
X-6047063Y+2730000D01*
X-6056063Y+2747000D01*
X-6069063Y+2769000D01*
X-6091063Y+2808000D01*
X-6109063Y+2850000D01*
X-6125063Y+2889000D01*
X-6137063Y+2923000D01*
X-6148063Y+2969000D01*
X-6158063Y+3003000D01*
X-6164063Y+3025000D01*
X-6172063Y+3087000D01*
X-6178063Y+3132000D01*
X-6180063Y+3196000D01*
X-6178063Y+3246000D01*
X-6165063Y+3345000D01*
X-6162063Y+3363000D01*
X-6140063Y+3444000D01*
X-6132063Y+3474000D01*
X-6117063Y+3509000D01*
X-6106063Y+3536000D01*
X-6090063Y+3575000D01*
X-6057063Y+3632000D01*
X-6034063Y+3671000D01*
X-5994063Y+3724000D01*
X-5959063Y+3768000D01*
X-5923063Y+3807000D01*
X-5890063Y+3837000D01*
X-5875063Y+3850000D01*
X-5796063Y+3911000D01*
X-5698063Y+3968000D01*
X-5621063Y+4001000D01*
X-5552063Y+4013000D01*
X-5552378Y+4059551D01*
X-5527504Y+4084307D01*
X-5360890Y+4084866D01*
X-5105276Y+4084866D01*
X-5093724Y+4085299D01*
X-5093425Y+4084528D01*
M02*
