G04 PROTEUS GERBER X2 FILE*
%TF.GenerationSoftware,Labcenter,Proteus,9.1-SP2-Build42460*%
%TF.CreationDate,2026-08-03T05:25:27+00:00*%
%TF.FileFunction,Legend,Top*%
%TF.FilePolarity,Positive*%
%TF.Part,Single*%
%TF.SameCoordinates,{e8ae4007-3e72-403a-9a00-08be4b74e47f}*%
%FSLAX26Y26*%
%MOIN*%
G01*
%TA.AperFunction,Profile*%
%ADD44C,0.004000*%
%TA.AperFunction,Material*%
%ADD45C,0.003937*%
%ADD46C,0.007874*%
%TA.AperFunction,Material*%
%ADD47C,0.004000*%
%TA.AperFunction,Material*%
%ADD48C,0.009843*%
%TA.AperFunction,NonMaterial*%
%ADD49C,0.004000*%
%TD.AperFunction*%
D44*
X-5093425Y+4084528D02*
X-5069449Y+4056969D01*
X-5068764Y+4019441D01*
X-5045638Y+4016441D01*
X-5044386Y+4016315D01*
X-5045071Y+4016252D01*
X-5044630Y+4016126D01*
X-5044252Y+4016063D01*
X-5027063Y+4012000D01*
X-4997063Y+3999000D01*
X-4963063Y+3985000D01*
X-4928063Y+3971000D01*
X-4895063Y+3952000D01*
X-4876063Y+3941000D01*
X-4854063Y+3929000D01*
X-4835063Y+3918000D01*
X-4821063Y+3909000D01*
X-4805063Y+3896000D01*
X-4788063Y+3884000D01*
X-4751063Y+3855000D01*
X-4731063Y+3839000D01*
X-4716063Y+3825000D01*
X-4698063Y+3808000D01*
X-4683063Y+3793000D01*
X-4667063Y+3775000D01*
X-4648063Y+3753000D01*
X-4635063Y+3736000D01*
X-4624063Y+3721000D01*
X-4608063Y+3700000D01*
X-4595063Y+3683000D01*
X-4575063Y+3653000D01*
X-4560063Y+3627000D01*
X-4534063Y+3582000D01*
X-4526063Y+3565000D01*
X-4487063Y+3471000D01*
X-4457063Y+3360000D01*
X-4442063Y+3249000D01*
X-4440063Y+3189000D01*
X-4442063Y+3138000D01*
X-4450063Y+3069000D01*
X-4458063Y+3015000D01*
X-4473063Y+2957000D01*
X-4489063Y+2904000D01*
X-4512063Y+2852000D01*
X-4533063Y+2798000D01*
X-4583063Y+2712000D01*
X-4640063Y+2637000D01*
X-4669063Y+2602000D01*
X-4743063Y+2530000D01*
X-4795063Y+2492000D01*
X-4841063Y+2458000D01*
X-4879063Y+2437000D01*
X-4933063Y+2406000D01*
X-4981063Y+2387000D01*
X-5037063Y+2364000D01*
X-5105063Y+2346000D01*
X-5161063Y+2333000D01*
X-5215063Y+2327000D01*
X-5281063Y+2318000D01*
X-5372063Y+2322000D01*
X-5440063Y+2331000D01*
X-5495063Y+2341000D01*
X-5574063Y+2362000D01*
X-5632063Y+2384000D01*
X-5676063Y+2402000D01*
X-5722063Y+2424000D01*
X-5768063Y+2452000D01*
X-5799063Y+2471000D01*
X-5833063Y+2497000D01*
X-5864063Y+2522000D01*
X-5895063Y+2546000D01*
X-5967063Y+2620000D01*
X-6008063Y+2673000D01*
X-6036063Y+2711000D01*
X-6047063Y+2730000D01*
X-6056063Y+2747000D01*
X-6069063Y+2769000D01*
X-6091063Y+2808000D01*
X-6109063Y+2850000D01*
X-6125063Y+2889000D01*
X-6137063Y+2923000D01*
X-6148063Y+2969000D01*
X-6158063Y+3003000D01*
X-6164063Y+3025000D01*
X-6172063Y+3087000D01*
X-6178063Y+3132000D01*
X-6180063Y+3196000D01*
X-6178063Y+3246000D01*
X-6165063Y+3345000D01*
X-6162063Y+3363000D01*
X-6140063Y+3444000D01*
X-6132063Y+3474000D01*
X-6117063Y+3509000D01*
X-6106063Y+3536000D01*
X-6090063Y+3575000D01*
X-6057063Y+3632000D01*
X-6034063Y+3671000D01*
X-5994063Y+3724000D01*
X-5959063Y+3768000D01*
X-5923063Y+3807000D01*
X-5890063Y+3837000D01*
X-5875063Y+3850000D01*
X-5796063Y+3911000D01*
X-5698063Y+3968000D01*
X-5621063Y+4001000D01*
X-5552063Y+4013000D01*
X-5552378Y+4059551D01*
X-5527504Y+4084307D01*
X-5360890Y+4084866D01*
X-5105276Y+4084866D01*
X-5093724Y+4085299D01*
X-5093425Y+4084528D01*
%TATrueTypeText,2:U1,12:Arial Narrow,228600,-14376699,7474219,20490,MIR_NONE,0*%
%TA.AperFunction,NonConductor*%
G36*
X-5668054Y+2966146D02*
X-5662673Y+2966146D01*
X-5662673Y+2937628D01*
X-5663026Y+2931121D01*
X-5664086Y+2925858D01*
X-5666070Y+2921722D01*
X-5667491Y+2920032D01*
X-5669197Y+2918594D01*
X-5671169Y+2917447D01*
X-5673384Y+2916627D01*
X-5678546Y+2915971D01*
X-5682271Y+2916270D01*
X-5685507Y+2917165D01*
X-5688257Y+2918657D01*
X-5690518Y+2920747D01*
X-5692284Y+2923593D01*
X-5693545Y+2927355D01*
X-5694301Y+2932033D01*
X-5694554Y+2937628D01*
X-5694554Y+2966146D01*
X-5689173Y+2966146D01*
X-5689173Y+2937628D01*
X-5688904Y+2931844D01*
X-5688097Y+2927943D01*
X-5686701Y+2925337D01*
X-5684667Y+2923437D01*
X-5682060Y+2922277D01*
X-5678950Y+2921890D01*
X-5676259Y+2922092D01*
X-5673973Y+2922697D01*
X-5672089Y+2923706D01*
X-5670610Y+2925118D01*
X-5669492Y+2927111D01*
X-5668693Y+2929860D01*
X-5668214Y+2933366D01*
X-5668054Y+2937628D01*
X-5668054Y+2966146D01*
X-5668054Y+2966146D01*
G37*
%TD.AperFunction*%
%TA.AperFunction,NonConductor*%
G36*
X-5634829Y+2916778D02*
X-5639806Y+2916778D01*
X-5639806Y+2955384D01*
X-5644446Y+2951282D01*
X-5649760Y+2948121D01*
X-5649760Y+2953905D01*
X-5645859Y+2956562D01*
X-5642496Y+2959689D01*
X-5639839Y+2963018D01*
X-5638057Y+2966280D01*
X-5634829Y+2966280D01*
X-5634829Y+2916778D01*
X-5634829Y+2916778D01*
G37*
%TD.AperFunction*%
%TDTrueTypeText*%
D45*
X-5244370Y+2485764D02*
X-5244370Y+2533008D01*
X-5047520Y+2485764D02*
X-5047520Y+2533008D01*
D46*
X-5244685Y+2397969D02*
X-5243532Y+2395184D01*
X-5240748Y+2394031D01*
X-5237964Y+2395184D01*
X-5236811Y+2397969D01*
X-5237964Y+2400753D01*
X-5240748Y+2401906D01*
X-5243532Y+2400753D01*
X-5244685Y+2397969D01*
%TATrueTypeText,2:D3,12:Arial Narrow,203200,-12741160,6175740,20490,MIR_NONE,900*%
%TA.AperFunction,NonConductor*%
G36*
X-5006240Y+2437638D02*
X-5006905Y+2441889D01*
X-5003243Y+2442811D01*
X-5000627Y+2444247D01*
X-4999058Y+2446199D01*
X-4998535Y+2448665D01*
X-4999149Y+2451405D01*
X-5000993Y+2453780D01*
X-5003832Y+2455424D01*
X-5007436Y+2455972D01*
X-5010791Y+2455473D01*
X-5013415Y+2453979D01*
X-5015108Y+2451754D01*
X-5015673Y+2449063D01*
X-5015142Y+2446140D01*
X-5019792Y+2446539D01*
X-5019659Y+2447203D01*
X-5020140Y+2450093D01*
X-5021585Y+2452385D01*
X-5023860Y+2453879D01*
X-5026833Y+2454377D01*
X-5029490Y+2453962D01*
X-5031616Y+2452717D01*
X-5033011Y+2450873D01*
X-5033476Y+2448665D01*
X-5032994Y+2446356D01*
X-5031549Y+2444480D01*
X-5029141Y+2443101D01*
X-5025770Y+2442288D01*
X-5026700Y+2438036D01*
X-5031483Y+2439348D01*
X-5034937Y+2441690D01*
X-5037030Y+2444862D01*
X-5037727Y+2448665D01*
X-5037532Y+2450707D01*
X-5036946Y+2452584D01*
X-5035971Y+2454294D01*
X-5034605Y+2455839D01*
X-5032940Y+2457118D01*
X-5031068Y+2458031D01*
X-5026700Y+2458762D01*
X-5023943Y+2458446D01*
X-5021519Y+2457500D01*
X-5019526Y+2455988D01*
X-5018064Y+2453979D01*
X-5017234Y+2455905D01*
X-5016072Y+2457433D01*
X-5014527Y+2458645D01*
X-5012551Y+2459625D01*
X-5010209Y+2460273D01*
X-5007569Y+2460489D01*
X-5004779Y+2460273D01*
X-5002255Y+2459625D01*
X-4999996Y+2458546D01*
X-4998003Y+2457035D01*
X-4996376Y+2455224D01*
X-4995213Y+2453248D01*
X-4994516Y+2451106D01*
X-4994283Y+2448798D01*
X-4994487Y+2446626D01*
X-4995097Y+2444629D01*
X-4996114Y+2442807D01*
X-4997538Y+2441158D01*
X-4999303Y+2439768D01*
X-5001341Y+2438717D01*
X-5006240Y+2437638D01*
X-5006240Y+2437638D01*
G37*
%TD.AperFunction*%
%TA.AperFunction,NonConductor*%
G36*
X-4994948Y+2405354D02*
X-5037594Y+2405354D01*
X-5037594Y+2417311D01*
X-5037395Y+2421297D01*
X-5036797Y+2424219D01*
X-5035319Y+2427059D01*
X-5033011Y+2429467D01*
X-5029955Y+2431427D01*
X-5026235Y+2432921D01*
X-5021768Y+2433868D01*
X-5016470Y+2434183D01*
X-5009827Y+2433652D01*
X-5004248Y+2432058D01*
X-4999930Y+2429633D01*
X-4997073Y+2426611D01*
X-4995479Y+2422791D01*
X-4994948Y+2417975D01*
X-4994948Y+2405354D01*
X-4994948Y+2405354D01*
G37*
%LPC*%
G36*
X-4999996Y+2409871D02*
X-4999996Y+2417311D01*
X-5000362Y+2421280D01*
X-5001458Y+2424153D01*
X-5003351Y+2426229D01*
X-5006108Y+2427806D01*
X-5010924Y+2429002D01*
X-5016603Y+2429401D01*
X-5022316Y+2428969D01*
X-5026700Y+2427674D01*
X-5029822Y+2425681D01*
X-5031749Y+2423156D01*
X-5032346Y+2420732D01*
X-5032546Y+2417178D01*
X-5032546Y+2409871D01*
X-4999996Y+2409871D01*
X-4999996Y+2409871D01*
G37*
%LPD*%
%TD.AperFunction*%
%TDTrueTypeText*%
D47*
X-5948000Y+3423000D02*
X-5921000Y+3423000D01*
X-5948000Y+3375000D02*
X-5920000Y+3375000D01*
%TATrueTypeText,2:R3,12:Arial Narrow,203200,-15082520,8829040,20490,MIR_NONE,0*%
%TA.AperFunction,NonConductor*%
G36*
X-5964039Y+3454743D02*
X-5964039Y+3497389D01*
X-5948495Y+3497389D01*
X-5944327Y+3497090D01*
X-5941387Y+3496193D01*
X-5939278Y+3494599D01*
X-5937601Y+3492208D01*
X-5936505Y+3489185D01*
X-5936140Y+3485698D01*
X-5936293Y+3483419D01*
X-5936754Y+3481364D01*
X-5937522Y+3479533D01*
X-5938597Y+3477926D01*
X-5939972Y+3476568D01*
X-5941636Y+3475485D01*
X-5943592Y+3474675D01*
X-5945838Y+3474140D01*
X-5942915Y+3471748D01*
X-5941022Y+3469191D01*
X-5939328Y+3466301D01*
X-5933217Y+3454743D01*
X-5939062Y+3454743D01*
X-5943712Y+3463644D01*
X-5947764Y+3470619D01*
X-5949126Y+3472113D01*
X-5950421Y+3473010D01*
X-5951966Y+3473459D01*
X-5954075Y+3473608D01*
X-5959389Y+3473608D01*
X-5959389Y+3454743D01*
X-5964039Y+3454743D01*
X-5964039Y+3454743D01*
G37*
%LPC*%
G36*
X-5959389Y+3478524D02*
X-5949425Y+3478524D01*
X-5946602Y+3478723D01*
X-5944509Y+3479321D01*
X-5942965Y+3480334D01*
X-5941786Y+3481779D01*
X-5941039Y+3483589D01*
X-5940789Y+3485698D01*
X-5941271Y+3488554D01*
X-5942716Y+3490746D01*
X-5945091Y+3492141D01*
X-5948362Y+3492606D01*
X-5959389Y+3492606D01*
X-5959389Y+3478524D01*
X-5959389Y+3478524D01*
G37*
%LPD*%
%TD.AperFunction*%
%TA.AperFunction,NonConductor*%
G36*
X-5931755Y+3466035D02*
X-5927504Y+3466700D01*
X-5926582Y+3463038D01*
X-5925146Y+3460422D01*
X-5923194Y+3458853D01*
X-5920728Y+3458330D01*
X-5917988Y+3458944D01*
X-5915613Y+3460788D01*
X-5914654Y+3462112D01*
X-5913969Y+3463627D01*
X-5913421Y+3467231D01*
X-5913920Y+3470586D01*
X-5915414Y+3473210D01*
X-5917639Y+3474903D01*
X-5920330Y+3475468D01*
X-5923253Y+3474937D01*
X-5922854Y+3479587D01*
X-5922190Y+3479454D01*
X-5919300Y+3479935D01*
X-5917008Y+3481380D01*
X-5915514Y+3483655D01*
X-5915016Y+3486628D01*
X-5915431Y+3489285D01*
X-5916676Y+3491411D01*
X-5918520Y+3492806D01*
X-5920728Y+3493271D01*
X-5923037Y+3492789D01*
X-5924913Y+3491344D01*
X-5926292Y+3488936D01*
X-5927105Y+3485565D01*
X-5931357Y+3486495D01*
X-5930829Y+3489053D01*
X-5930045Y+3491278D01*
X-5929003Y+3493171D01*
X-5927703Y+3494732D01*
X-5926196Y+3495953D01*
X-5924531Y+3496825D01*
X-5922709Y+3497348D01*
X-5920728Y+3497522D01*
X-5918686Y+3497327D01*
X-5916809Y+3496741D01*
X-5915099Y+3495766D01*
X-5913554Y+3494400D01*
X-5912275Y+3492735D01*
X-5911362Y+3490863D01*
X-5910814Y+3488783D01*
X-5910631Y+3486495D01*
X-5910947Y+3483738D01*
X-5911893Y+3481314D01*
X-5913405Y+3479321D01*
X-5915414Y+3477859D01*
X-5913488Y+3477029D01*
X-5911960Y+3475867D01*
X-5910748Y+3474322D01*
X-5909768Y+3472346D01*
X-5909120Y+3470004D01*
X-5908904Y+3467364D01*
X-5909120Y+3464574D01*
X-5909768Y+3462050D01*
X-5910847Y+3459791D01*
X-5912358Y+3457798D01*
X-5914169Y+3456171D01*
X-5916145Y+3455008D01*
X-5918287Y+3454311D01*
X-5920595Y+3454078D01*
X-5922767Y+3454282D01*
X-5924764Y+3454892D01*
X-5926586Y+3455909D01*
X-5928235Y+3457333D01*
X-5929625Y+3459098D01*
X-5930676Y+3461136D01*
X-5931386Y+3463449D01*
X-5931755Y+3466035D01*
X-5931755Y+3466035D01*
G37*
%TD.AperFunction*%
%TDTrueTypeText*%
X-4782000Y+2665000D02*
X-4782000Y+2638000D01*
X-4830000Y+2665000D02*
X-4830000Y+2637000D01*
%TATrueTypeText,2:R4,12:Arial Narrow,203200,-12192000,6469380,20490,MIR_NONE,900*%
%TA.AperFunction,NonConductor*%
G36*
X-4778743Y+2520960D02*
X-4821389Y+2520960D01*
X-4821389Y+2536504D01*
X-4821090Y+2540672D01*
X-4820193Y+2543612D01*
X-4818599Y+2545721D01*
X-4816208Y+2547398D01*
X-4813185Y+2548494D01*
X-4809698Y+2548859D01*
X-4805364Y+2548245D01*
X-4801926Y+2546402D01*
X-4799485Y+2543363D01*
X-4798140Y+2539161D01*
X-4795748Y+2542084D01*
X-4790301Y+2545671D01*
X-4778743Y+2551782D01*
X-4778743Y+2545937D01*
X-4787644Y+2541287D01*
X-4794619Y+2537235D01*
X-4797010Y+2534578D01*
X-4797608Y+2530924D01*
X-4797608Y+2525610D01*
X-4778743Y+2525610D01*
X-4778743Y+2520960D01*
X-4778743Y+2520960D01*
G37*
%LPC*%
G36*
X-4802524Y+2525610D02*
X-4802524Y+2535574D01*
X-4802723Y+2538397D01*
X-4803321Y+2540490D01*
X-4804334Y+2542034D01*
X-4805779Y+2543213D01*
X-4807589Y+2543960D01*
X-4809698Y+2544210D01*
X-4812554Y+2543728D01*
X-4814746Y+2542283D01*
X-4816141Y+2539908D01*
X-4816606Y+2536637D01*
X-4816606Y+2525610D01*
X-4802524Y+2525610D01*
X-4802524Y+2525610D01*
G37*
%LPD*%
%TD.AperFunction*%
%TA.AperFunction,NonConductor*%
G36*
X-4778743Y+2566928D02*
X-4788973Y+2566928D01*
X-4788973Y+2551782D01*
X-4793755Y+2551782D01*
X-4821389Y+2567725D01*
X-4821389Y+2571312D01*
X-4793755Y+2571312D01*
X-4793755Y+2575962D01*
X-4788973Y+2575962D01*
X-4788973Y+2571312D01*
X-4778743Y+2571312D01*
X-4778743Y+2566928D01*
X-4778743Y+2566928D01*
G37*
%LPC*%
G36*
X-4793755Y+2566928D02*
X-4812886Y+2566928D01*
X-4793755Y+2556034D01*
X-4793755Y+2566928D01*
X-4793755Y+2566928D01*
G37*
%LPD*%
%TD.AperFunction*%
%TDTrueTypeText*%
X-4862000Y+2665000D02*
X-4862000Y+2638000D01*
X-4910000Y+2665000D02*
X-4910000Y+2637000D01*
%TATrueTypeText,2:R5,12:Arial Narrow,203200,-12395200,6482080,20490,MIR_NONE,900*%
%TA.AperFunction,NonConductor*%
G36*
X-4858743Y+2525960D02*
X-4901389Y+2525960D01*
X-4901389Y+2541504D01*
X-4901090Y+2545672D01*
X-4900193Y+2548612D01*
X-4898599Y+2550721D01*
X-4896208Y+2552398D01*
X-4893185Y+2553494D01*
X-4889698Y+2553859D01*
X-4885364Y+2553245D01*
X-4881926Y+2551402D01*
X-4879485Y+2548363D01*
X-4878140Y+2544161D01*
X-4875748Y+2547084D01*
X-4870301Y+2550671D01*
X-4858743Y+2556782D01*
X-4858743Y+2550937D01*
X-4867644Y+2546287D01*
X-4874619Y+2542235D01*
X-4877010Y+2539578D01*
X-4877608Y+2535924D01*
X-4877608Y+2530610D01*
X-4858743Y+2530610D01*
X-4858743Y+2525960D01*
X-4858743Y+2525960D01*
G37*
%LPC*%
G36*
X-4882524Y+2530610D02*
X-4882524Y+2540574D01*
X-4882723Y+2543397D01*
X-4883321Y+2545490D01*
X-4884334Y+2547034D01*
X-4885779Y+2548213D01*
X-4887589Y+2548960D01*
X-4889698Y+2549210D01*
X-4892554Y+2548728D01*
X-4894746Y+2547283D01*
X-4896141Y+2544908D01*
X-4896606Y+2541637D01*
X-4896606Y+2530610D01*
X-4882524Y+2530610D01*
X-4882524Y+2530610D01*
G37*
%LPD*%
%TD.AperFunction*%
%TA.AperFunction,NonConductor*%
G36*
X-4869903Y+2558244D02*
X-4870434Y+2562761D01*
X-4866847Y+2563608D01*
X-4864323Y+2565086D01*
X-4862828Y+2567062D01*
X-4862330Y+2569404D01*
X-4863027Y+2572243D01*
X-4865120Y+2574651D01*
X-4868441Y+2576295D01*
X-4872825Y+2576843D01*
X-4876844Y+2576312D01*
X-4879867Y+2574718D01*
X-4881760Y+2572293D01*
X-4882391Y+2569271D01*
X-4882125Y+2567444D01*
X-4881328Y+2565684D01*
X-4880033Y+2564156D01*
X-4878272Y+2563026D01*
X-4878937Y+2558908D01*
X-4900858Y+2562362D01*
X-4900858Y+2579766D01*
X-4895809Y+2579766D01*
X-4895809Y+2565816D01*
X-4884384Y+2563956D01*
X-4886377Y+2567112D01*
X-4887041Y+2570466D01*
X-4886808Y+2572588D01*
X-4886111Y+2574568D01*
X-4884948Y+2576407D01*
X-4883321Y+2578106D01*
X-4881295Y+2579530D01*
X-4878937Y+2580547D01*
X-4876246Y+2581157D01*
X-4873224Y+2581360D01*
X-4870214Y+2581157D01*
X-4867428Y+2580547D01*
X-4864866Y+2579530D01*
X-4862529Y+2578106D01*
X-4860582Y+2576341D01*
X-4859191Y+2574303D01*
X-4858357Y+2571990D01*
X-4858078Y+2569404D01*
X-4858274Y+2567232D01*
X-4858859Y+2565235D01*
X-4859835Y+2563413D01*
X-4861201Y+2561764D01*
X-4862915Y+2560374D01*
X-4864937Y+2559323D01*
X-4869903Y+2558244D01*
X-4869903Y+2558244D01*
G37*
%TD.AperFunction*%
%TDTrueTypeText*%
X-4965000Y+2666000D02*
X-4965000Y+2639000D01*
X-5013000Y+2666000D02*
X-5013000Y+2638000D01*
%TATrueTypeText,2:R6,12:Arial Narrow,203200,-12632519,6448620,20490,MIR_NONE,900*%
%TA.AperFunction,NonConductor*%
G36*
X-4984327Y+2567257D02*
X-4983928Y+2563006D01*
X-4986751Y+2562242D01*
X-4988578Y+2561279D01*
X-4990172Y+2559353D01*
X-4990704Y+2557028D01*
X-4990413Y+2555259D01*
X-4989541Y+2553673D01*
X-4988088Y+2552270D01*
X-4986054Y+2551049D01*
X-4981005Y+2549621D01*
X-4974097Y+2549056D01*
X-4976555Y+2550717D01*
X-4978348Y+2552776D01*
X-4979444Y+2555101D01*
X-4979810Y+2557559D01*
X-4979573Y+2559556D01*
X-4978863Y+2561428D01*
X-4977680Y+2563176D01*
X-4976023Y+2564800D01*
X-4973976Y+2566166D01*
X-4971622Y+2567141D01*
X-4968961Y+2567727D01*
X-4965993Y+2567922D01*
X-4961924Y+2567523D01*
X-4958221Y+2566327D01*
X-4955182Y+2564534D01*
X-4953106Y+2562342D01*
X-4951910Y+2559818D01*
X-4951511Y+2557028D01*
X-4951806Y+2554487D01*
X-4952691Y+2552178D01*
X-4954164Y+2550103D01*
X-4956228Y+2548259D01*
X-4958989Y+2546748D01*
X-4962555Y+2545669D01*
X-4966927Y+2545021D01*
X-4972104Y+2544805D01*
X-4977837Y+2545025D01*
X-4982683Y+2545685D01*
X-4986639Y+2546785D01*
X-4989707Y+2548326D01*
X-4992003Y+2550206D01*
X-4993643Y+2552328D01*
X-4994627Y+2554690D01*
X-4994955Y+2557293D01*
X-4994274Y+2560963D01*
X-4992231Y+2564003D01*
X-4988894Y+2566178D01*
X-4984327Y+2567257D01*
X-4984327Y+2567257D01*
G37*
%LPC*%
G36*
X-4965993Y+2549721D02*
X-4961808Y+2550269D01*
X-4958553Y+2551913D01*
X-4956460Y+2554288D01*
X-4955763Y+2557028D01*
X-4956427Y+2559419D01*
X-4958420Y+2561545D01*
X-4961575Y+2563039D01*
X-4965727Y+2563538D01*
X-4969729Y+2563039D01*
X-4972702Y+2561545D01*
X-4974545Y+2559353D01*
X-4975160Y+2556762D01*
X-4974545Y+2554138D01*
X-4972702Y+2551846D01*
X-4969796Y+2550252D01*
X-4965993Y+2549721D01*
X-4965993Y+2549721D01*
G37*
%LPD*%
%TD.AperFunction*%
%TA.AperFunction,NonConductor*%
G36*
X-4952176Y+2512787D02*
X-4994822Y+2512787D01*
X-4994822Y+2528331D01*
X-4994523Y+2532499D01*
X-4993626Y+2535439D01*
X-4992032Y+2537548D01*
X-4989641Y+2539225D01*
X-4986618Y+2540321D01*
X-4983131Y+2540686D01*
X-4978797Y+2540072D01*
X-4975359Y+2538229D01*
X-4972918Y+2535190D01*
X-4971573Y+2530988D01*
X-4969181Y+2533911D01*
X-4963734Y+2537498D01*
X-4952176Y+2543609D01*
X-4952176Y+2537764D01*
X-4961077Y+2533114D01*
X-4968052Y+2529062D01*
X-4970443Y+2526405D01*
X-4971041Y+2522751D01*
X-4971041Y+2517437D01*
X-4952176Y+2517437D01*
X-4952176Y+2512787D01*
X-4952176Y+2512787D01*
G37*
%LPC*%
G36*
X-4975957Y+2517437D02*
X-4975957Y+2527401D01*
X-4976156Y+2530224D01*
X-4976754Y+2532317D01*
X-4977767Y+2533861D01*
X-4979212Y+2535040D01*
X-4981022Y+2535787D01*
X-4983131Y+2536037D01*
X-4985987Y+2535555D01*
X-4988179Y+2534110D01*
X-4989574Y+2531735D01*
X-4990039Y+2528464D01*
X-4990039Y+2517437D01*
X-4975957Y+2517437D01*
X-4975957Y+2517437D01*
G37*
%LPD*%
%TD.AperFunction*%
%TDTrueTypeText*%
D46*
X-5869291Y+3033543D02*
X-5743307Y+3033543D01*
X-5743307Y+3226457D01*
X-5869291Y+3226457D01*
X-5869291Y+3033543D01*
X-5942126Y+3231575D02*
X-5883071Y+3231575D01*
%TATrueTypeText,2:U3,12:Arial Narrow,203200,-14747999,8281700,20490,MIR_NONE,0*%
%TA.AperFunction,NonConductor*%
G36*
X-5809487Y+3281901D02*
X-5804837Y+3281901D01*
X-5804837Y+3257190D01*
X-5805136Y+3251610D01*
X-5806033Y+3247093D01*
X-5807727Y+3243539D01*
X-5808947Y+3242086D01*
X-5810417Y+3240849D01*
X-5812119Y+3239861D01*
X-5814037Y+3239155D01*
X-5818521Y+3238590D01*
X-5821760Y+3238848D01*
X-5824566Y+3239620D01*
X-5826941Y+3240907D01*
X-5828884Y+3242709D01*
X-5830395Y+3245158D01*
X-5831475Y+3248388D01*
X-5832122Y+3252399D01*
X-5832338Y+3257190D01*
X-5832338Y+3281901D01*
X-5827688Y+3281901D01*
X-5827688Y+3257323D01*
X-5827456Y+3252291D01*
X-5826758Y+3248887D01*
X-5825562Y+3246612D01*
X-5823835Y+3244967D01*
X-5821577Y+3243971D01*
X-5818787Y+3243639D01*
X-5816499Y+3243813D01*
X-5814552Y+3244336D01*
X-5812945Y+3245208D01*
X-5811679Y+3246429D01*
X-5810720Y+3248156D01*
X-5810035Y+3250547D01*
X-5809624Y+3253603D01*
X-5809487Y+3257323D01*
X-5809487Y+3281901D01*
X-5809487Y+3281901D01*
G37*
%TD.AperFunction*%
%TA.AperFunction,NonConductor*%
G36*
X-5800054Y+3250547D02*
X-5795803Y+3251212D01*
X-5794881Y+3247550D01*
X-5793445Y+3244934D01*
X-5791493Y+3243365D01*
X-5789027Y+3242842D01*
X-5786287Y+3243456D01*
X-5783912Y+3245300D01*
X-5782953Y+3246624D01*
X-5782268Y+3248139D01*
X-5781720Y+3251743D01*
X-5782219Y+3255098D01*
X-5783713Y+3257722D01*
X-5785938Y+3259415D01*
X-5788629Y+3259980D01*
X-5791552Y+3259449D01*
X-5791153Y+3264099D01*
X-5790489Y+3263966D01*
X-5787599Y+3264447D01*
X-5785307Y+3265892D01*
X-5783813Y+3268167D01*
X-5783315Y+3271140D01*
X-5783730Y+3273797D01*
X-5784975Y+3275923D01*
X-5786819Y+3277318D01*
X-5789027Y+3277783D01*
X-5791336Y+3277301D01*
X-5793212Y+3275856D01*
X-5794591Y+3273448D01*
X-5795404Y+3270077D01*
X-5799656Y+3271007D01*
X-5799128Y+3273565D01*
X-5798344Y+3275790D01*
X-5797302Y+3277683D01*
X-5796002Y+3279244D01*
X-5794495Y+3280465D01*
X-5792830Y+3281337D01*
X-5791008Y+3281860D01*
X-5789027Y+3282034D01*
X-5786985Y+3281839D01*
X-5785108Y+3281253D01*
X-5783398Y+3280278D01*
X-5781853Y+3278912D01*
X-5780574Y+3277247D01*
X-5779661Y+3275375D01*
X-5779113Y+3273295D01*
X-5778930Y+3271007D01*
X-5779246Y+3268250D01*
X-5780192Y+3265826D01*
X-5781704Y+3263833D01*
X-5783713Y+3262371D01*
X-5781787Y+3261541D01*
X-5780259Y+3260379D01*
X-5779047Y+3258834D01*
X-5778067Y+3256858D01*
X-5777419Y+3254516D01*
X-5777203Y+3251876D01*
X-5777419Y+3249086D01*
X-5778067Y+3246562D01*
X-5779146Y+3244303D01*
X-5780657Y+3242310D01*
X-5782468Y+3240683D01*
X-5784444Y+3239520D01*
X-5786586Y+3238823D01*
X-5788894Y+3238590D01*
X-5791066Y+3238794D01*
X-5793063Y+3239404D01*
X-5794885Y+3240421D01*
X-5796534Y+3241845D01*
X-5797924Y+3243610D01*
X-5798975Y+3245648D01*
X-5799685Y+3247961D01*
X-5800054Y+3250547D01*
X-5800054Y+3250547D01*
G37*
%TD.AperFunction*%
%TDTrueTypeText*%
D47*
X-5899000Y+3321000D02*
X-5872000Y+3321000D01*
X-5899000Y+3273000D02*
X-5871000Y+3273000D01*
%TATrueTypeText,2:C5,12:Arial Narrow,203200,-14950440,8503920,20490,MIR_NONE,0*%
%TA.AperFunction,NonConductor*%
G36*
X-5887195Y+3341622D02*
X-5882545Y+3340294D01*
X-5883484Y+3336935D01*
X-5884704Y+3334033D01*
X-5886207Y+3331588D01*
X-5887992Y+3329599D01*
X-5890018Y+3328059D01*
X-5892244Y+3326959D01*
X-5894668Y+3326298D01*
X-5897292Y+3326078D01*
X-5901826Y+3326660D01*
X-5903806Y+3327386D01*
X-5905596Y+3328403D01*
X-5907215Y+3329749D01*
X-5908684Y+3331459D01*
X-5911176Y+3335976D01*
X-5912820Y+3341705D01*
X-5913368Y+3348398D01*
X-5912820Y+3354891D01*
X-5912135Y+3357727D01*
X-5911176Y+3360289D01*
X-5908601Y+3364540D01*
X-5907028Y+3366217D01*
X-5905263Y+3367596D01*
X-5901311Y+3369439D01*
X-5896894Y+3370053D01*
X-5894457Y+3369858D01*
X-5892194Y+3369273D01*
X-5890106Y+3368297D01*
X-5888192Y+3366931D01*
X-5886510Y+3365183D01*
X-5885119Y+3363062D01*
X-5884019Y+3360567D01*
X-5883210Y+3357698D01*
X-5887727Y+3356369D01*
X-5889155Y+3360264D01*
X-5891181Y+3363045D01*
X-5893805Y+3364714D01*
X-5897026Y+3365271D01*
X-5900265Y+3364822D01*
X-5903071Y+3363477D01*
X-5905396Y+3361185D01*
X-5907190Y+3357897D01*
X-5908336Y+3353629D01*
X-5908718Y+3348398D01*
X-5908523Y+3344288D01*
X-5907937Y+3340726D01*
X-5906962Y+3337712D01*
X-5905596Y+3335245D01*
X-5903914Y+3333327D01*
X-5901992Y+3331957D01*
X-5899829Y+3331135D01*
X-5897425Y+3330861D01*
X-5895569Y+3331027D01*
X-5893855Y+3331525D01*
X-5892281Y+3332356D01*
X-5890849Y+3333518D01*
X-5889599Y+3335021D01*
X-5888574Y+3336873D01*
X-5887195Y+3341622D01*
X-5887195Y+3341622D01*
G37*
%TD.AperFunction*%
%TA.AperFunction,NonConductor*%
G36*
X-5879755Y+3337903D02*
X-5875238Y+3338434D01*
X-5874391Y+3334847D01*
X-5872913Y+3332323D01*
X-5870937Y+3330828D01*
X-5868595Y+3330330D01*
X-5867122Y+3330504D01*
X-5865756Y+3331027D01*
X-5864498Y+3331899D01*
X-5863348Y+3333120D01*
X-5862389Y+3334648D01*
X-5861704Y+3336441D01*
X-5861156Y+3340825D01*
X-5861687Y+3344844D01*
X-5862351Y+3346480D01*
X-5863281Y+3347867D01*
X-5864419Y+3348971D01*
X-5865706Y+3349760D01*
X-5867142Y+3350233D01*
X-5868728Y+3350391D01*
X-5870555Y+3350125D01*
X-5872315Y+3349328D01*
X-5873843Y+3348033D01*
X-5874973Y+3346272D01*
X-5879091Y+3346937D01*
X-5875637Y+3368858D01*
X-5858233Y+3368858D01*
X-5858233Y+3363809D01*
X-5872183Y+3363809D01*
X-5874043Y+3352384D01*
X-5870887Y+3354377D01*
X-5869235Y+3354875D01*
X-5867533Y+3355041D01*
X-5865411Y+3354808D01*
X-5863431Y+3354111D01*
X-5861592Y+3352948D01*
X-5859893Y+3351321D01*
X-5858469Y+3349295D01*
X-5857452Y+3346937D01*
X-5856842Y+3344246D01*
X-5856639Y+3341224D01*
X-5856842Y+3338214D01*
X-5857452Y+3335428D01*
X-5858469Y+3332866D01*
X-5859893Y+3330529D01*
X-5861658Y+3328582D01*
X-5863696Y+3327191D01*
X-5866009Y+3326357D01*
X-5868595Y+3326078D01*
X-5870767Y+3326274D01*
X-5872764Y+3326859D01*
X-5874586Y+3327835D01*
X-5876235Y+3329201D01*
X-5877625Y+3330915D01*
X-5878676Y+3332937D01*
X-5879386Y+3335266D01*
X-5879755Y+3337903D01*
X-5879755Y+3337903D01*
G37*
%TD.AperFunction*%
%TDTrueTypeText*%
X-5997500Y+2943000D02*
X-5970500Y+2943000D01*
X-5997500Y+2895000D02*
X-5969500Y+2895000D01*
%TATrueTypeText,2:R1,12:Arial Narrow,203200,-15200630,7543800,20490,MIR_NONE,0*%
%TA.AperFunction,NonConductor*%
G36*
X-6010539Y+2948743D02*
X-6010539Y+2991389D01*
X-5994995Y+2991389D01*
X-5990827Y+2991090D01*
X-5987887Y+2990193D01*
X-5985778Y+2988599D01*
X-5984101Y+2986208D01*
X-5983005Y+2983185D01*
X-5982640Y+2979698D01*
X-5982793Y+2977419D01*
X-5983254Y+2975364D01*
X-5984022Y+2973533D01*
X-5985097Y+2971926D01*
X-5986472Y+2970568D01*
X-5988136Y+2969485D01*
X-5990092Y+2968675D01*
X-5992338Y+2968140D01*
X-5989415Y+2965748D01*
X-5987522Y+2963191D01*
X-5985828Y+2960301D01*
X-5979717Y+2948743D01*
X-5985562Y+2948743D01*
X-5990212Y+2957644D01*
X-5994264Y+2964619D01*
X-5995626Y+2966113D01*
X-5996921Y+2967010D01*
X-5998466Y+2967459D01*
X-6000575Y+2967608D01*
X-6005889Y+2967608D01*
X-6005889Y+2948743D01*
X-6010539Y+2948743D01*
X-6010539Y+2948743D01*
G37*
%LPC*%
G36*
X-6005889Y+2972524D02*
X-5995925Y+2972524D01*
X-5993102Y+2972723D01*
X-5991009Y+2973321D01*
X-5989465Y+2974334D01*
X-5988286Y+2975779D01*
X-5987539Y+2977589D01*
X-5987289Y+2979698D01*
X-5987771Y+2982554D01*
X-5989216Y+2984746D01*
X-5991591Y+2986141D01*
X-5994862Y+2986606D01*
X-6005889Y+2986606D01*
X-6005889Y+2972524D01*
X-6005889Y+2972524D01*
G37*
%LPD*%
%TD.AperFunction*%
%TA.AperFunction,NonConductor*%
G36*
X-5962180Y+2948743D02*
X-5966431Y+2948743D01*
X-5966431Y+2982089D01*
X-5970417Y+2978502D01*
X-5975067Y+2975712D01*
X-5975067Y+2980894D01*
X-5971696Y+2983119D01*
X-5968756Y+2985809D01*
X-5966448Y+2988699D01*
X-5964970Y+2991522D01*
X-5962180Y+2991522D01*
X-5962180Y+2948743D01*
X-5962180Y+2948743D01*
G37*
%TD.AperFunction*%
%TDTrueTypeText*%
X-5964000Y+2757000D02*
X-5991000Y+2757000D01*
X-5964000Y+2805000D02*
X-5992000Y+2805000D01*
%TATrueTypeText,2:R2,12:Arial Narrow,203200,-15181580,6934200,20490,MIR_NONE,0*%
%TA.AperFunction,NonConductor*%
G36*
X-6003039Y+2708743D02*
X-6003039Y+2751389D01*
X-5987495Y+2751389D01*
X-5983327Y+2751090D01*
X-5980387Y+2750193D01*
X-5978278Y+2748599D01*
X-5976601Y+2746208D01*
X-5975505Y+2743185D01*
X-5975140Y+2739698D01*
X-5975293Y+2737419D01*
X-5975754Y+2735364D01*
X-5976522Y+2733533D01*
X-5977597Y+2731926D01*
X-5978972Y+2730568D01*
X-5980636Y+2729485D01*
X-5982592Y+2728675D01*
X-5984838Y+2728140D01*
X-5981915Y+2725748D01*
X-5980022Y+2723191D01*
X-5978328Y+2720301D01*
X-5972217Y+2708743D01*
X-5978062Y+2708743D01*
X-5982712Y+2717644D01*
X-5986764Y+2724619D01*
X-5988126Y+2726113D01*
X-5989421Y+2727010D01*
X-5990966Y+2727459D01*
X-5993075Y+2727608D01*
X-5998389Y+2727608D01*
X-5998389Y+2708743D01*
X-6003039Y+2708743D01*
X-6003039Y+2708743D01*
G37*
%LPC*%
G36*
X-5998389Y+2732524D02*
X-5988425Y+2732524D01*
X-5985602Y+2732723D01*
X-5983509Y+2733321D01*
X-5981965Y+2734334D01*
X-5980786Y+2735779D01*
X-5980039Y+2737589D01*
X-5979789Y+2739698D01*
X-5980271Y+2742554D01*
X-5981716Y+2744746D01*
X-5984091Y+2746141D01*
X-5987362Y+2746606D01*
X-5998389Y+2746606D01*
X-5998389Y+2732524D01*
X-5998389Y+2732524D01*
G37*
%LPD*%
%TD.AperFunction*%
%TA.AperFunction,NonConductor*%
G36*
X-5948170Y+2713791D02*
X-5948170Y+2708743D01*
X-5971287Y+2708743D01*
X-5970905Y+2711981D01*
X-5969493Y+2715585D01*
X-5966753Y+2719720D01*
X-5962385Y+2724552D01*
X-5957437Y+2729850D01*
X-5954547Y+2733786D01*
X-5953152Y+2736925D01*
X-5952687Y+2739831D01*
X-5953152Y+2742837D01*
X-5954547Y+2745211D01*
X-5956639Y+2746756D01*
X-5959197Y+2747271D01*
X-5961970Y+2746706D01*
X-5964179Y+2745012D01*
X-5965022Y+2743767D01*
X-5965624Y+2742289D01*
X-5966105Y+2738635D01*
X-5970490Y+2739166D01*
X-5970070Y+2742035D01*
X-5969344Y+2744531D01*
X-5968310Y+2746652D01*
X-5966969Y+2748400D01*
X-5965354Y+2749766D01*
X-5963498Y+2750741D01*
X-5961401Y+2751327D01*
X-5959064Y+2751522D01*
X-5956569Y+2751298D01*
X-5954398Y+2750625D01*
X-5952550Y+2749504D01*
X-5951026Y+2747935D01*
X-5949835Y+2746075D01*
X-5948984Y+2744082D01*
X-5948473Y+2741956D01*
X-5948303Y+2739698D01*
X-5948834Y+2735762D01*
X-5950428Y+2731926D01*
X-5953517Y+2727558D01*
X-5958533Y+2722028D01*
X-5963515Y+2716648D01*
X-5965308Y+2713791D01*
X-5948170Y+2713791D01*
X-5948170Y+2713791D01*
G37*
%TD.AperFunction*%
%TDTrueTypeText*%
X-5946000Y+3633000D02*
X-5919000Y+3633000D01*
X-5946000Y+3585000D02*
X-5918000Y+3585000D01*
%TATrueTypeText,2:R7,12:Arial Narrow,203200,-15158720,9321800,20490,MIR_NONE,0*%
%TA.AperFunction,NonConductor*%
G36*
X-5994039Y+3648743D02*
X-5994039Y+3691389D01*
X-5978495Y+3691389D01*
X-5974327Y+3691090D01*
X-5971387Y+3690193D01*
X-5969278Y+3688599D01*
X-5967601Y+3686208D01*
X-5966505Y+3683185D01*
X-5966140Y+3679698D01*
X-5966293Y+3677419D01*
X-5966754Y+3675364D01*
X-5967522Y+3673533D01*
X-5968597Y+3671926D01*
X-5969972Y+3670568D01*
X-5971636Y+3669485D01*
X-5973592Y+3668675D01*
X-5975838Y+3668140D01*
X-5972915Y+3665748D01*
X-5971022Y+3663191D01*
X-5969328Y+3660301D01*
X-5963217Y+3648743D01*
X-5969062Y+3648743D01*
X-5973712Y+3657644D01*
X-5977764Y+3664619D01*
X-5979126Y+3666113D01*
X-5980421Y+3667010D01*
X-5981966Y+3667459D01*
X-5984075Y+3667608D01*
X-5989389Y+3667608D01*
X-5989389Y+3648743D01*
X-5994039Y+3648743D01*
X-5994039Y+3648743D01*
G37*
%LPC*%
G36*
X-5989389Y+3672524D02*
X-5979425Y+3672524D01*
X-5976602Y+3672723D01*
X-5974509Y+3673321D01*
X-5972965Y+3674334D01*
X-5971786Y+3675779D01*
X-5971039Y+3677589D01*
X-5970789Y+3679698D01*
X-5971271Y+3682554D01*
X-5972716Y+3684746D01*
X-5975091Y+3686141D01*
X-5978362Y+3686606D01*
X-5989389Y+3686606D01*
X-5989389Y+3672524D01*
X-5989389Y+3672524D01*
G37*
%LPD*%
%TD.AperFunction*%
%TA.AperFunction,NonConductor*%
G36*
X-5961490Y+3685809D02*
X-5961490Y+3690858D01*
X-5938904Y+3690858D01*
X-5938904Y+3686739D01*
X-5941354Y+3683177D01*
X-5943654Y+3679133D01*
X-5945804Y+3674608D01*
X-5947806Y+3669601D01*
X-5949524Y+3664361D01*
X-5950828Y+3659139D01*
X-5951716Y+3653932D01*
X-5952190Y+3648743D01*
X-5956574Y+3648743D01*
X-5956159Y+3654505D01*
X-5954913Y+3661165D01*
X-5952970Y+3668123D01*
X-5950463Y+3674782D01*
X-5947573Y+3680794D01*
X-5944484Y+3685809D01*
X-5961490Y+3685809D01*
X-5961490Y+3685809D01*
G37*
%TD.AperFunction*%
%TDTrueTypeText*%
X-5815000Y+2943000D02*
X-5788000Y+2943000D01*
X-5815000Y+2895000D02*
X-5787000Y+2895000D01*
%TATrueTypeText,2:C3,12:Arial Narrow,203200,-14737080,7543800,20490,MIR_NONE,0*%
%TA.AperFunction,NonConductor*%
G36*
X-5803195Y+2963622D02*
X-5798545Y+2962294D01*
X-5799484Y+2958935D01*
X-5800704Y+2956033D01*
X-5802207Y+2953588D01*
X-5803992Y+2951599D01*
X-5806018Y+2950059D01*
X-5808244Y+2948959D01*
X-5810668Y+2948298D01*
X-5813292Y+2948078D01*
X-5817826Y+2948660D01*
X-5819806Y+2949386D01*
X-5821596Y+2950403D01*
X-5823215Y+2951749D01*
X-5824684Y+2953459D01*
X-5827176Y+2957976D01*
X-5828820Y+2963705D01*
X-5829368Y+2970398D01*
X-5828820Y+2976891D01*
X-5828135Y+2979727D01*
X-5827176Y+2982289D01*
X-5824601Y+2986540D01*
X-5823028Y+2988217D01*
X-5821263Y+2989596D01*
X-5817311Y+2991439D01*
X-5812894Y+2992053D01*
X-5810457Y+2991858D01*
X-5808194Y+2991273D01*
X-5806106Y+2990297D01*
X-5804192Y+2988931D01*
X-5802510Y+2987183D01*
X-5801119Y+2985062D01*
X-5800019Y+2982567D01*
X-5799210Y+2979698D01*
X-5803727Y+2978369D01*
X-5805155Y+2982264D01*
X-5807181Y+2985045D01*
X-5809805Y+2986714D01*
X-5813026Y+2987271D01*
X-5816265Y+2986822D01*
X-5819071Y+2985477D01*
X-5821396Y+2983185D01*
X-5823190Y+2979897D01*
X-5824336Y+2975629D01*
X-5824718Y+2970398D01*
X-5824523Y+2966288D01*
X-5823937Y+2962726D01*
X-5822962Y+2959712D01*
X-5821596Y+2957245D01*
X-5819914Y+2955327D01*
X-5817992Y+2953957D01*
X-5815829Y+2953135D01*
X-5813425Y+2952861D01*
X-5811569Y+2953027D01*
X-5809855Y+2953525D01*
X-5808281Y+2954356D01*
X-5806849Y+2955518D01*
X-5805599Y+2957021D01*
X-5804574Y+2958873D01*
X-5803195Y+2963622D01*
X-5803195Y+2963622D01*
G37*
%TD.AperFunction*%
%TA.AperFunction,NonConductor*%
G36*
X-5795755Y+2960035D02*
X-5791504Y+2960700D01*
X-5790582Y+2957038D01*
X-5789146Y+2954422D01*
X-5787194Y+2952853D01*
X-5784728Y+2952330D01*
X-5781988Y+2952944D01*
X-5779613Y+2954788D01*
X-5778654Y+2956112D01*
X-5777969Y+2957627D01*
X-5777421Y+2961231D01*
X-5777920Y+2964586D01*
X-5779414Y+2967210D01*
X-5781639Y+2968903D01*
X-5784330Y+2969468D01*
X-5787253Y+2968937D01*
X-5786854Y+2973587D01*
X-5786190Y+2973454D01*
X-5783300Y+2973935D01*
X-5781008Y+2975380D01*
X-5779514Y+2977655D01*
X-5779016Y+2980628D01*
X-5779431Y+2983285D01*
X-5780676Y+2985411D01*
X-5782520Y+2986806D01*
X-5784728Y+2987271D01*
X-5787037Y+2986789D01*
X-5788913Y+2985344D01*
X-5790292Y+2982936D01*
X-5791105Y+2979565D01*
X-5795357Y+2980495D01*
X-5794829Y+2983053D01*
X-5794045Y+2985278D01*
X-5793003Y+2987171D01*
X-5791703Y+2988732D01*
X-5790196Y+2989953D01*
X-5788531Y+2990825D01*
X-5786709Y+2991348D01*
X-5784728Y+2991522D01*
X-5782686Y+2991327D01*
X-5780809Y+2990741D01*
X-5779099Y+2989766D01*
X-5777554Y+2988400D01*
X-5776275Y+2986735D01*
X-5775362Y+2984863D01*
X-5774814Y+2982783D01*
X-5774631Y+2980495D01*
X-5774947Y+2977738D01*
X-5775893Y+2975314D01*
X-5777405Y+2973321D01*
X-5779414Y+2971859D01*
X-5777488Y+2971029D01*
X-5775960Y+2969867D01*
X-5774748Y+2968322D01*
X-5773768Y+2966346D01*
X-5773120Y+2964004D01*
X-5772904Y+2961364D01*
X-5773120Y+2958574D01*
X-5773768Y+2956050D01*
X-5774847Y+2953791D01*
X-5776358Y+2951798D01*
X-5778169Y+2950171D01*
X-5780145Y+2949008D01*
X-5782287Y+2948311D01*
X-5784595Y+2948078D01*
X-5786767Y+2948282D01*
X-5788764Y+2948892D01*
X-5790586Y+2949909D01*
X-5792235Y+2951333D01*
X-5793625Y+2953098D01*
X-5794676Y+2955136D01*
X-5795386Y+2957449D01*
X-5795755Y+2960035D01*
X-5795755Y+2960035D01*
G37*
%TD.AperFunction*%
%TDTrueTypeText*%
X-5819520Y+2751850D02*
X-5819520Y+2724850D01*
X-5867520Y+2751850D02*
X-5867520Y+2723850D01*
%TATrueTypeText,2:C4,12:Arial Narrow,203200,-14713000,6956679,20490,MIR_NONE,900*%
%TA.AperFunction,NonConductor*%
G36*
X-5786142Y+2737654D02*
X-5784814Y+2742304D01*
X-5778553Y+2740145D01*
X-5776108Y+2738642D01*
X-5774119Y+2736857D01*
X-5772579Y+2734831D01*
X-5771479Y+2732605D01*
X-5770818Y+2730181D01*
X-5770598Y+2727557D01*
X-5771180Y+2723023D01*
X-5772923Y+2719253D01*
X-5775979Y+2716165D01*
X-5780496Y+2713673D01*
X-5786225Y+2712029D01*
X-5792918Y+2711481D01*
X-5799411Y+2712029D01*
X-5804809Y+2713673D01*
X-5809060Y+2716248D01*
X-5812116Y+2719586D01*
X-5813959Y+2723538D01*
X-5814573Y+2727955D01*
X-5813793Y+2732655D01*
X-5812817Y+2734743D01*
X-5811451Y+2736657D01*
X-5809703Y+2738339D01*
X-5807582Y+2739730D01*
X-5802218Y+2741639D01*
X-5800889Y+2737122D01*
X-5804784Y+2735694D01*
X-5807565Y+2733668D01*
X-5809234Y+2731044D01*
X-5809791Y+2727823D01*
X-5809342Y+2724584D01*
X-5807997Y+2721778D01*
X-5805705Y+2719453D01*
X-5802417Y+2717659D01*
X-5798149Y+2716513D01*
X-5792918Y+2716131D01*
X-5788808Y+2716326D01*
X-5785246Y+2716912D01*
X-5782232Y+2717887D01*
X-5779765Y+2719253D01*
X-5777847Y+2720935D01*
X-5776477Y+2722857D01*
X-5775655Y+2725020D01*
X-5775381Y+2727424D01*
X-5776045Y+2730994D01*
X-5778038Y+2734000D01*
X-5781393Y+2736275D01*
X-5786142Y+2737654D01*
X-5786142Y+2737654D01*
G37*
%TD.AperFunction*%
%TA.AperFunction,NonConductor*%
G36*
X-5771263Y+2758778D02*
X-5781493Y+2758778D01*
X-5781493Y+2743632D01*
X-5786275Y+2743632D01*
X-5813909Y+2759575D01*
X-5813909Y+2763162D01*
X-5786275Y+2763162D01*
X-5786275Y+2767812D01*
X-5781493Y+2767812D01*
X-5781493Y+2763162D01*
X-5771263Y+2763162D01*
X-5771263Y+2758778D01*
X-5771263Y+2758778D01*
G37*
%LPC*%
G36*
X-5786275Y+2758778D02*
X-5805406Y+2758778D01*
X-5786275Y+2747884D01*
X-5786275Y+2758778D01*
X-5786275Y+2758778D01*
G37*
%LPD*%
%TD.AperFunction*%
%TDTrueTypeText*%
X-5753000Y+3805000D02*
X-5753000Y+3832000D01*
X-5705000Y+3805000D02*
X-5705000Y+3833000D01*
%TATrueTypeText,2:C2,12:Arial Narrow,203200,-14693900,9773920,20490,MIR_NONE,900*%
%TA.AperFunction,NonConductor*%
G36*
X-5778622Y+3846804D02*
X-5777294Y+3851454D01*
X-5771033Y+3849295D01*
X-5768588Y+3847792D01*
X-5766599Y+3846007D01*
X-5765059Y+3843981D01*
X-5763959Y+3841755D01*
X-5763298Y+3839331D01*
X-5763078Y+3836707D01*
X-5763660Y+3832173D01*
X-5765403Y+3828403D01*
X-5768459Y+3825315D01*
X-5772976Y+3822823D01*
X-5778705Y+3821179D01*
X-5785398Y+3820631D01*
X-5791891Y+3821179D01*
X-5797289Y+3822823D01*
X-5801540Y+3825398D01*
X-5804596Y+3828736D01*
X-5806439Y+3832688D01*
X-5807053Y+3837105D01*
X-5806273Y+3841805D01*
X-5805297Y+3843893D01*
X-5803931Y+3845807D01*
X-5802183Y+3847489D01*
X-5800062Y+3848880D01*
X-5794698Y+3850789D01*
X-5793369Y+3846272D01*
X-5797264Y+3844844D01*
X-5800045Y+3842818D01*
X-5801714Y+3840194D01*
X-5802271Y+3836973D01*
X-5801822Y+3833734D01*
X-5800477Y+3830928D01*
X-5798185Y+3828603D01*
X-5794897Y+3826809D01*
X-5790629Y+3825663D01*
X-5785398Y+3825281D01*
X-5781288Y+3825476D01*
X-5777726Y+3826062D01*
X-5774712Y+3827037D01*
X-5772245Y+3828403D01*
X-5770327Y+3830085D01*
X-5768957Y+3832007D01*
X-5768135Y+3834170D01*
X-5767861Y+3836574D01*
X-5768525Y+3840144D01*
X-5770518Y+3843150D01*
X-5773873Y+3845425D01*
X-5778622Y+3846804D01*
X-5778622Y+3846804D01*
G37*
%TD.AperFunction*%
%TA.AperFunction,NonConductor*%
G36*
X-5768791Y+3876829D02*
X-5763743Y+3876829D01*
X-5763743Y+3853712D01*
X-5766981Y+3854094D01*
X-5770585Y+3855506D01*
X-5774720Y+3858246D01*
X-5779552Y+3862614D01*
X-5784850Y+3867562D01*
X-5788786Y+3870452D01*
X-5791925Y+3871847D01*
X-5794831Y+3872312D01*
X-5797837Y+3871847D01*
X-5800211Y+3870452D01*
X-5801756Y+3868360D01*
X-5802271Y+3865802D01*
X-5801706Y+3863029D01*
X-5800012Y+3860820D01*
X-5797289Y+3859375D01*
X-5793635Y+3858894D01*
X-5794166Y+3854509D01*
X-5799531Y+3855655D01*
X-5801652Y+3856689D01*
X-5803400Y+3858030D01*
X-5804766Y+3859645D01*
X-5805741Y+3861501D01*
X-5806327Y+3863598D01*
X-5806522Y+3865935D01*
X-5806298Y+3868430D01*
X-5805625Y+3870601D01*
X-5804504Y+3872449D01*
X-5802935Y+3873973D01*
X-5799082Y+3876015D01*
X-5794698Y+3876696D01*
X-5790762Y+3876165D01*
X-5786926Y+3874571D01*
X-5782558Y+3871482D01*
X-5777028Y+3866466D01*
X-5771648Y+3861484D01*
X-5768791Y+3859691D01*
X-5768791Y+3876829D01*
X-5768791Y+3876829D01*
G37*
%TD.AperFunction*%
%TDTrueTypeText*%
X-5058433Y+3740276D02*
X-5058433Y+3767276D01*
X-5010433Y+3740276D02*
X-5010433Y+3768276D01*
%TATrueTypeText,2:C1,12:Arial Narrow,203200,-12916999,9558721,20490,MIR_NONE,900*%
%TA.AperFunction,NonConductor*%
G36*
X-5079055Y+3762080D02*
X-5077727Y+3766730D01*
X-5074368Y+3765791D01*
X-5071466Y+3764571D01*
X-5069021Y+3763068D01*
X-5067032Y+3761283D01*
X-5065492Y+3759257D01*
X-5064392Y+3757031D01*
X-5063731Y+3754607D01*
X-5063511Y+3751983D01*
X-5064093Y+3747449D01*
X-5065836Y+3743679D01*
X-5068892Y+3740591D01*
X-5073409Y+3738099D01*
X-5079138Y+3736455D01*
X-5085831Y+3735907D01*
X-5092324Y+3736455D01*
X-5097722Y+3738099D01*
X-5101973Y+3740674D01*
X-5105029Y+3744012D01*
X-5106872Y+3747964D01*
X-5107486Y+3752381D01*
X-5107291Y+3754818D01*
X-5106706Y+3757081D01*
X-5105730Y+3759169D01*
X-5104364Y+3761083D01*
X-5102616Y+3762765D01*
X-5100495Y+3764156D01*
X-5098000Y+3765256D01*
X-5095131Y+3766065D01*
X-5093802Y+3761548D01*
X-5097697Y+3760120D01*
X-5100478Y+3758094D01*
X-5102147Y+3755470D01*
X-5102704Y+3752249D01*
X-5102255Y+3749010D01*
X-5100910Y+3746204D01*
X-5098618Y+3743879D01*
X-5095330Y+3742085D01*
X-5091062Y+3740939D01*
X-5085831Y+3740557D01*
X-5081721Y+3740752D01*
X-5078159Y+3741338D01*
X-5075145Y+3742313D01*
X-5072678Y+3743679D01*
X-5070760Y+3745361D01*
X-5069390Y+3747283D01*
X-5068568Y+3749446D01*
X-5068294Y+3751850D01*
X-5068958Y+3755420D01*
X-5070951Y+3758426D01*
X-5072454Y+3759676D01*
X-5074306Y+3760701D01*
X-5079055Y+3762080D01*
X-5079055Y+3762080D01*
G37*
%TD.AperFunction*%
%TA.AperFunction,NonConductor*%
G36*
X-5064176Y+3785595D02*
X-5064176Y+3781344D01*
X-5097522Y+3781344D01*
X-5093935Y+3777358D01*
X-5091145Y+3772708D01*
X-5096327Y+3772708D01*
X-5098552Y+3776079D01*
X-5101242Y+3779019D01*
X-5104132Y+3781327D01*
X-5106955Y+3782805D01*
X-5106955Y+3785595D01*
X-5064176Y+3785595D01*
X-5064176Y+3785595D01*
G37*
%TD.AperFunction*%
%TDTrueTypeText*%
X-5720000Y+3538000D02*
X-5693000Y+3538000D01*
X-5720000Y+3490000D02*
X-5692000Y+3490000D01*
%TATrueTypeText,3:C15,12:Arial Narrow,203200,-14503400,9062720,20490,MIR_NONE,0*%
%TA.AperFunction,NonConductor*%
G36*
X-5723949Y+3561622D02*
X-5719299Y+3560294D01*
X-5720238Y+3556935D01*
X-5721458Y+3554033D01*
X-5722961Y+3551588D01*
X-5724746Y+3549599D01*
X-5726772Y+3548059D01*
X-5728998Y+3546959D01*
X-5731422Y+3546298D01*
X-5734046Y+3546078D01*
X-5738580Y+3546660D01*
X-5740560Y+3547386D01*
X-5742350Y+3548403D01*
X-5743969Y+3549749D01*
X-5745439Y+3551459D01*
X-5747930Y+3555976D01*
X-5749574Y+3561705D01*
X-5750122Y+3568398D01*
X-5749574Y+3574891D01*
X-5748889Y+3577727D01*
X-5747930Y+3580289D01*
X-5745356Y+3584540D01*
X-5743782Y+3586217D01*
X-5742018Y+3587596D01*
X-5738065Y+3589439D01*
X-5733648Y+3590053D01*
X-5731211Y+3589858D01*
X-5728948Y+3589273D01*
X-5726860Y+3588297D01*
X-5724946Y+3586931D01*
X-5723264Y+3585183D01*
X-5721873Y+3583062D01*
X-5720773Y+3580567D01*
X-5719964Y+3577698D01*
X-5724481Y+3576369D01*
X-5725909Y+3580264D01*
X-5727935Y+3583045D01*
X-5730559Y+3584714D01*
X-5733781Y+3585271D01*
X-5737019Y+3584822D01*
X-5739825Y+3583477D01*
X-5742150Y+3581185D01*
X-5743944Y+3577897D01*
X-5745090Y+3573629D01*
X-5745472Y+3568398D01*
X-5745277Y+3564288D01*
X-5744691Y+3560726D01*
X-5743716Y+3557712D01*
X-5742350Y+3555245D01*
X-5740668Y+3553327D01*
X-5738746Y+3551957D01*
X-5736583Y+3551135D01*
X-5734179Y+3550861D01*
X-5732323Y+3551027D01*
X-5730609Y+3551525D01*
X-5729035Y+3552356D01*
X-5727603Y+3553518D01*
X-5726353Y+3555021D01*
X-5725328Y+3556873D01*
X-5723949Y+3561622D01*
X-5723949Y+3561622D01*
G37*
%TD.AperFunction*%
%TA.AperFunction,NonConductor*%
G36*
X-5691001Y+3557903D02*
X-5686484Y+3558434D01*
X-5685637Y+3554847D01*
X-5684159Y+3552323D01*
X-5682183Y+3550828D01*
X-5679841Y+3550330D01*
X-5678368Y+3550504D01*
X-5677002Y+3551027D01*
X-5675744Y+3551899D01*
X-5674594Y+3553120D01*
X-5673635Y+3554648D01*
X-5672950Y+3556441D01*
X-5672402Y+3560825D01*
X-5672933Y+3564844D01*
X-5673597Y+3566480D01*
X-5674527Y+3567867D01*
X-5675665Y+3568971D01*
X-5676952Y+3569760D01*
X-5678388Y+3570233D01*
X-5679974Y+3570391D01*
X-5681801Y+3570125D01*
X-5683561Y+3569328D01*
X-5685089Y+3568033D01*
X-5686218Y+3566272D01*
X-5690337Y+3566937D01*
X-5686883Y+3588858D01*
X-5669479Y+3588858D01*
X-5669479Y+3583809D01*
X-5683428Y+3583809D01*
X-5685288Y+3572384D01*
X-5682133Y+3574377D01*
X-5680481Y+3574875D01*
X-5678779Y+3575041D01*
X-5676657Y+3574808D01*
X-5674677Y+3574111D01*
X-5672837Y+3572948D01*
X-5671139Y+3571321D01*
X-5669715Y+3569295D01*
X-5668698Y+3566937D01*
X-5668088Y+3564246D01*
X-5667884Y+3561224D01*
X-5668088Y+3558214D01*
X-5668698Y+3555428D01*
X-5669715Y+3552866D01*
X-5671139Y+3550529D01*
X-5672904Y+3548582D01*
X-5674942Y+3547191D01*
X-5677255Y+3546357D01*
X-5679841Y+3546078D01*
X-5682013Y+3546274D01*
X-5684010Y+3546859D01*
X-5685832Y+3547835D01*
X-5687481Y+3549201D01*
X-5688871Y+3550915D01*
X-5689922Y+3552937D01*
X-5690632Y+3555266D01*
X-5691001Y+3557903D01*
X-5691001Y+3557903D01*
G37*
%TD.AperFunction*%
%TA.AperFunction,NonConductor*%
G36*
X-5700434Y+3546743D02*
X-5704685Y+3546743D01*
X-5704685Y+3580089D01*
X-5708671Y+3576502D01*
X-5713321Y+3573712D01*
X-5713321Y+3578894D01*
X-5709950Y+3581119D01*
X-5707010Y+3583809D01*
X-5704702Y+3586699D01*
X-5703224Y+3589522D01*
X-5700434Y+3589522D01*
X-5700434Y+3546743D01*
X-5700434Y+3546743D01*
G37*
%TD.AperFunction*%
%TDTrueTypeText*%
X-5713500Y+3601500D02*
X-5663500Y+3601500D01*
X-5663500Y+3711500D01*
X-5713500Y+3711500D01*
X-5713500Y+3601500D01*
%TATrueTypeText,2:U5,12:Arial Narrow,203200,-14472920,9495790,20490,MIR_NONE,0*%
%TA.AperFunction,NonConductor*%
G36*
X-5701188Y+3759889D02*
X-5696538Y+3759889D01*
X-5696538Y+3735178D01*
X-5696837Y+3729598D01*
X-5697734Y+3725081D01*
X-5699428Y+3721527D01*
X-5700648Y+3720074D01*
X-5702118Y+3718837D01*
X-5703820Y+3717849D01*
X-5705738Y+3717143D01*
X-5710222Y+3716578D01*
X-5713461Y+3716836D01*
X-5716267Y+3717608D01*
X-5718642Y+3718895D01*
X-5720585Y+3720697D01*
X-5722096Y+3723146D01*
X-5723176Y+3726376D01*
X-5723823Y+3730387D01*
X-5724039Y+3735178D01*
X-5724039Y+3759889D01*
X-5719389Y+3759889D01*
X-5719389Y+3735311D01*
X-5719157Y+3730279D01*
X-5718459Y+3726875D01*
X-5717263Y+3724600D01*
X-5715536Y+3722955D01*
X-5713278Y+3721959D01*
X-5710488Y+3721627D01*
X-5708200Y+3721801D01*
X-5706253Y+3722324D01*
X-5704646Y+3723196D01*
X-5703380Y+3724417D01*
X-5702421Y+3726144D01*
X-5701736Y+3728535D01*
X-5701325Y+3731591D01*
X-5701188Y+3735311D01*
X-5701188Y+3759889D01*
X-5701188Y+3759889D01*
G37*
%TD.AperFunction*%
%TA.AperFunction,NonConductor*%
G36*
X-5691755Y+3728403D02*
X-5687238Y+3728934D01*
X-5686391Y+3725347D01*
X-5684913Y+3722823D01*
X-5682937Y+3721328D01*
X-5680595Y+3720830D01*
X-5679122Y+3721004D01*
X-5677756Y+3721527D01*
X-5676498Y+3722399D01*
X-5675348Y+3723620D01*
X-5674389Y+3725148D01*
X-5673704Y+3726941D01*
X-5673156Y+3731325D01*
X-5673687Y+3735344D01*
X-5674351Y+3736980D01*
X-5675281Y+3738367D01*
X-5676419Y+3739471D01*
X-5677706Y+3740260D01*
X-5679142Y+3740733D01*
X-5680728Y+3740891D01*
X-5682555Y+3740625D01*
X-5684315Y+3739828D01*
X-5685843Y+3738533D01*
X-5686973Y+3736772D01*
X-5691091Y+3737437D01*
X-5687637Y+3759358D01*
X-5670233Y+3759358D01*
X-5670233Y+3754309D01*
X-5684183Y+3754309D01*
X-5686043Y+3742884D01*
X-5682887Y+3744877D01*
X-5681235Y+3745375D01*
X-5679533Y+3745541D01*
X-5677411Y+3745308D01*
X-5675431Y+3744611D01*
X-5673592Y+3743448D01*
X-5671893Y+3741821D01*
X-5670469Y+3739795D01*
X-5669452Y+3737437D01*
X-5668842Y+3734746D01*
X-5668639Y+3731724D01*
X-5668842Y+3728714D01*
X-5669452Y+3725928D01*
X-5670469Y+3723366D01*
X-5671893Y+3721029D01*
X-5673658Y+3719082D01*
X-5675696Y+3717691D01*
X-5678009Y+3716857D01*
X-5680595Y+3716578D01*
X-5682767Y+3716774D01*
X-5684764Y+3717359D01*
X-5686586Y+3718335D01*
X-5688235Y+3719701D01*
X-5689625Y+3721415D01*
X-5690676Y+3723437D01*
X-5691386Y+3725766D01*
X-5691755Y+3728403D01*
X-5691755Y+3728403D01*
G37*
%TD.AperFunction*%
%TDTrueTypeText*%
D48*
X-4918307Y+3555118D02*
X-4918324Y+3555526D01*
X-4918462Y+3556344D01*
X-4918752Y+3557162D01*
X-4919225Y+3557980D01*
X-4919949Y+3558787D01*
X-4920767Y+3559379D01*
X-4921585Y+3559757D01*
X-4922403Y+3559969D01*
X-4923221Y+3560039D01*
X-4923228Y+3560039D01*
X-4928149Y+3555118D02*
X-4928132Y+3555526D01*
X-4927994Y+3556344D01*
X-4927704Y+3557162D01*
X-4927231Y+3557980D01*
X-4926507Y+3558787D01*
X-4925689Y+3559379D01*
X-4924871Y+3559757D01*
X-4924053Y+3559969D01*
X-4923235Y+3560039D01*
X-4923228Y+3560039D01*
X-4928149Y+3555118D02*
X-4928132Y+3554710D01*
X-4927994Y+3553892D01*
X-4927704Y+3553074D01*
X-4927231Y+3552256D01*
X-4926507Y+3551449D01*
X-4925689Y+3550857D01*
X-4924871Y+3550479D01*
X-4924053Y+3550267D01*
X-4923235Y+3550197D01*
X-4923228Y+3550197D01*
X-4918307Y+3555118D02*
X-4918324Y+3554710D01*
X-4918462Y+3553892D01*
X-4918752Y+3553074D01*
X-4919225Y+3552256D01*
X-4919949Y+3551449D01*
X-4920767Y+3550857D01*
X-4921585Y+3550479D01*
X-4922403Y+3550267D01*
X-4923221Y+3550197D01*
X-4923228Y+3550197D01*
D46*
X-4824803Y+3586457D02*
X-4824803Y+3626142D01*
X-4911417Y+3626142D01*
X-4911417Y+3586457D01*
X-4824803Y+3586457D01*
%TATrueTypeText,2:U7,12:Arial Narrow,203200,-12364900,8918425,20490,MIR_NONE,0*%
%TA.AperFunction,NonConductor*%
G36*
X-4871259Y+3532580D02*
X-4866609Y+3532580D01*
X-4866609Y+3507869D01*
X-4866908Y+3502289D01*
X-4867805Y+3497772D01*
X-4869499Y+3494218D01*
X-4870719Y+3492765D01*
X-4872189Y+3491528D01*
X-4873891Y+3490540D01*
X-4875809Y+3489834D01*
X-4880293Y+3489269D01*
X-4883532Y+3489527D01*
X-4886338Y+3490299D01*
X-4888713Y+3491586D01*
X-4890656Y+3493388D01*
X-4892167Y+3495837D01*
X-4893247Y+3499067D01*
X-4893894Y+3503078D01*
X-4894110Y+3507869D01*
X-4894110Y+3532580D01*
X-4889460Y+3532580D01*
X-4889460Y+3508002D01*
X-4889228Y+3502970D01*
X-4888530Y+3499566D01*
X-4887334Y+3497291D01*
X-4885607Y+3495646D01*
X-4883349Y+3494650D01*
X-4880559Y+3494318D01*
X-4878271Y+3494492D01*
X-4876324Y+3495015D01*
X-4874717Y+3495887D01*
X-4873451Y+3497108D01*
X-4872492Y+3498835D01*
X-4871807Y+3501226D01*
X-4871396Y+3504282D01*
X-4871259Y+3508002D01*
X-4871259Y+3532580D01*
X-4871259Y+3532580D01*
G37*
%TD.AperFunction*%
%TA.AperFunction,NonConductor*%
G36*
X-4861561Y+3527000D02*
X-4861561Y+3532049D01*
X-4838975Y+3532049D01*
X-4838975Y+3527930D01*
X-4841425Y+3524368D01*
X-4843725Y+3520324D01*
X-4845875Y+3515799D01*
X-4847877Y+3510792D01*
X-4849595Y+3505552D01*
X-4850899Y+3500330D01*
X-4851787Y+3495123D01*
X-4852261Y+3489934D01*
X-4856645Y+3489934D01*
X-4856230Y+3495696D01*
X-4854984Y+3502356D01*
X-4853041Y+3509314D01*
X-4850534Y+3515973D01*
X-4847644Y+3521985D01*
X-4844555Y+3527000D01*
X-4861561Y+3527000D01*
X-4861561Y+3527000D01*
G37*
%TD.AperFunction*%
%TDTrueTypeText*%
D47*
X-5034000Y+3869000D02*
X-4999000Y+3869000D01*
X-4992000Y+3913000D02*
X-4964000Y+3913000D01*
X-5034000Y+3869000D02*
X-5034000Y+3905000D01*
X-4920000Y+3906000D02*
X-4920000Y+3869000D01*
X-4954000Y+3869000D01*
%TATrueTypeText,2:D1,12:Arial Narrow,203200,-12385040,9912350,20490,MIR_NONE,900*%
%TA.AperFunction,NonConductor*%
G36*
X-4854743Y+3924819D02*
X-4854743Y+3920568D01*
X-4888089Y+3920568D01*
X-4884502Y+3916582D01*
X-4881712Y+3911932D01*
X-4886894Y+3911932D01*
X-4889119Y+3915303D01*
X-4891809Y+3918243D01*
X-4894699Y+3920551D01*
X-4897522Y+3922029D01*
X-4897522Y+3924819D01*
X-4854743Y+3924819D01*
X-4854743Y+3924819D01*
G37*
%TD.AperFunction*%
%TA.AperFunction,NonConductor*%
G36*
X-4854743Y+3876460D02*
X-4897389Y+3876460D01*
X-4897389Y+3888417D01*
X-4897190Y+3892403D01*
X-4896592Y+3895325D01*
X-4895114Y+3898165D01*
X-4892806Y+3900573D01*
X-4889750Y+3902533D01*
X-4886030Y+3904027D01*
X-4881563Y+3904974D01*
X-4876265Y+3905289D01*
X-4869622Y+3904758D01*
X-4864043Y+3903164D01*
X-4859725Y+3900739D01*
X-4858114Y+3899303D01*
X-4856868Y+3897717D01*
X-4855274Y+3893897D01*
X-4854743Y+3889081D01*
X-4854743Y+3876460D01*
X-4854743Y+3876460D01*
G37*
%LPC*%
G36*
X-4859791Y+3880977D02*
X-4859791Y+3888417D01*
X-4860157Y+3892386D01*
X-4861253Y+3895259D01*
X-4863146Y+3897335D01*
X-4865903Y+3898912D01*
X-4870719Y+3900108D01*
X-4876398Y+3900507D01*
X-4882111Y+3900075D01*
X-4886495Y+3898780D01*
X-4889617Y+3896787D01*
X-4891544Y+3894262D01*
X-4892141Y+3891838D01*
X-4892341Y+3888284D01*
X-4892341Y+3880977D01*
X-4859791Y+3880977D01*
X-4859791Y+3880977D01*
G37*
%LPD*%
%TD.AperFunction*%
%TDTrueTypeText*%
X-5414000Y+3511000D02*
X-5414000Y+3546000D01*
X-5458000Y+3553000D02*
X-5458000Y+3581000D01*
X-5414000Y+3511000D02*
X-5450000Y+3511000D01*
X-5451000Y+3625000D02*
X-5414000Y+3625000D01*
X-5414000Y+3591000D01*
%TATrueTypeText,2:D2,12:Arial Narrow,203200,-13811250,9281160,20490,MIR_NONE,0*%
%TA.AperFunction,NonConductor*%
G36*
X-5463539Y+3632743D02*
X-5463539Y+3675389D01*
X-5451582Y+3675389D01*
X-5447596Y+3675190D01*
X-5444674Y+3674592D01*
X-5441834Y+3673114D01*
X-5439426Y+3670806D01*
X-5437466Y+3667750D01*
X-5435972Y+3664030D01*
X-5435025Y+3659563D01*
X-5434710Y+3654265D01*
X-5435241Y+3647622D01*
X-5435905Y+3644700D01*
X-5436835Y+3642043D01*
X-5439260Y+3637725D01*
X-5440696Y+3636114D01*
X-5442282Y+3634868D01*
X-5444068Y+3633938D01*
X-5446102Y+3633274D01*
X-5450918Y+3632743D01*
X-5463539Y+3632743D01*
X-5463539Y+3632743D01*
G37*
%LPC*%
G36*
X-5459022Y+3637791D02*
X-5451582Y+3637791D01*
X-5447613Y+3638157D01*
X-5444740Y+3639253D01*
X-5442664Y+3641146D01*
X-5441087Y+3643903D01*
X-5439891Y+3648719D01*
X-5439492Y+3654398D01*
X-5439924Y+3660111D01*
X-5441219Y+3664495D01*
X-5443212Y+3667617D01*
X-5445737Y+3669544D01*
X-5448161Y+3670141D01*
X-5451715Y+3670341D01*
X-5459022Y+3670341D01*
X-5459022Y+3637791D01*
X-5459022Y+3637791D01*
G37*
%LPD*%
%TD.AperFunction*%
%TA.AperFunction,NonConductor*%
G36*
X-5408670Y+3637791D02*
X-5408670Y+3632743D01*
X-5431787Y+3632743D01*
X-5431405Y+3635981D01*
X-5429993Y+3639585D01*
X-5427253Y+3643720D01*
X-5422885Y+3648552D01*
X-5417937Y+3653850D01*
X-5415047Y+3657786D01*
X-5413652Y+3660925D01*
X-5413187Y+3663831D01*
X-5413652Y+3666837D01*
X-5415047Y+3669211D01*
X-5417139Y+3670756D01*
X-5419697Y+3671271D01*
X-5422470Y+3670706D01*
X-5424679Y+3669012D01*
X-5425522Y+3667767D01*
X-5426124Y+3666289D01*
X-5426605Y+3662635D01*
X-5430990Y+3663166D01*
X-5430570Y+3666035D01*
X-5429844Y+3668531D01*
X-5428810Y+3670652D01*
X-5427469Y+3672400D01*
X-5425854Y+3673766D01*
X-5423998Y+3674741D01*
X-5421901Y+3675327D01*
X-5419564Y+3675522D01*
X-5417069Y+3675298D01*
X-5414898Y+3674625D01*
X-5413050Y+3673504D01*
X-5411526Y+3671935D01*
X-5410335Y+3670075D01*
X-5409484Y+3668082D01*
X-5408973Y+3665956D01*
X-5408803Y+3663698D01*
X-5409334Y+3659762D01*
X-5410928Y+3655926D01*
X-5414017Y+3651558D01*
X-5419033Y+3646028D01*
X-5424015Y+3640648D01*
X-5425808Y+3637791D01*
X-5408670Y+3637791D01*
X-5408670Y+3637791D01*
G37*
%TD.AperFunction*%
%TDTrueTypeText*%
D46*
X-4899803Y+3709567D02*
X-4888307Y+3709567D01*
X-4899803Y+3810118D02*
X-4888307Y+3810118D01*
%TATrueTypeText,2:L1,12:Arial Narrow,203200,-12416200,9751199,20490,MIR_NONE,0*%
%TA.AperFunction,NonConductor*%
G36*
X-4910321Y+3817798D02*
X-4910321Y+3860444D01*
X-4905672Y+3860444D01*
X-4905672Y+3822846D01*
X-4888400Y+3822846D01*
X-4888400Y+3817798D01*
X-4910321Y+3817798D01*
X-4910321Y+3817798D01*
G37*
%TD.AperFunction*%
%TA.AperFunction,NonConductor*%
G36*
X-4870199Y+3817798D02*
X-4874451Y+3817798D01*
X-4874451Y+3851144D01*
X-4878436Y+3847557D01*
X-4883086Y+3844767D01*
X-4883086Y+3849949D01*
X-4879715Y+3852174D01*
X-4876776Y+3854864D01*
X-4874467Y+3857754D01*
X-4872989Y+3860577D01*
X-4870199Y+3860577D01*
X-4870199Y+3817798D01*
X-4870199Y+3817798D01*
G37*
%TD.AperFunction*%
%TDTrueTypeText*%
D48*
X-5148953Y+3623236D02*
X-5148970Y+3623644D01*
X-5149108Y+3624462D01*
X-5149398Y+3625280D01*
X-5149871Y+3626098D01*
X-5150595Y+3626905D01*
X-5151413Y+3627497D01*
X-5152231Y+3627875D01*
X-5153049Y+3628087D01*
X-5153867Y+3628157D01*
X-5153874Y+3628157D01*
X-5158795Y+3623236D02*
X-5158778Y+3623644D01*
X-5158640Y+3624462D01*
X-5158350Y+3625280D01*
X-5157877Y+3626098D01*
X-5157153Y+3626905D01*
X-5156335Y+3627497D01*
X-5155517Y+3627875D01*
X-5154699Y+3628087D01*
X-5153881Y+3628157D01*
X-5153874Y+3628157D01*
X-5158795Y+3623236D02*
X-5158778Y+3622828D01*
X-5158640Y+3622010D01*
X-5158350Y+3621192D01*
X-5157877Y+3620374D01*
X-5157153Y+3619567D01*
X-5156335Y+3618975D01*
X-5155517Y+3618597D01*
X-5154699Y+3618385D01*
X-5153881Y+3618315D01*
X-5153874Y+3618315D01*
X-5148953Y+3623236D02*
X-5148970Y+3622828D01*
X-5149108Y+3622010D01*
X-5149398Y+3621192D01*
X-5149871Y+3620374D01*
X-5150595Y+3619567D01*
X-5151413Y+3618975D01*
X-5152231Y+3618597D01*
X-5153049Y+3618385D01*
X-5153867Y+3618315D01*
X-5153874Y+3618315D01*
D46*
X-5112535Y+3491346D02*
X-5088913Y+3491346D01*
X-5088913Y+3609457D01*
X-5112535Y+3609457D01*
X-5112535Y+3491346D01*
%TATrueTypeText,2:Q1,12:Arial Narrow,203200,-12943138,9266120,20490,MIR_NONE,0*%
%TA.AperFunction,NonConductor*%
G36*
X-5095059Y+3631339D02*
X-5092004Y+3629047D01*
X-5089214Y+3627486D01*
X-5090542Y+3623500D01*
X-5094329Y+3625659D01*
X-5097982Y+3628682D01*
X-5102134Y+3626788D01*
X-5106618Y+3626157D01*
X-5110279Y+3626573D01*
X-5113559Y+3627818D01*
X-5116457Y+3629894D01*
X-5118973Y+3632800D01*
X-5120833Y+3636047D01*
X-5122162Y+3639675D01*
X-5122959Y+3643686D01*
X-5123224Y+3648079D01*
X-5122660Y+3654539D01*
X-5120966Y+3660102D01*
X-5118342Y+3664553D01*
X-5116756Y+3666280D01*
X-5114987Y+3667675D01*
X-5111002Y+3669518D01*
X-5106485Y+3670132D01*
X-5102134Y+3669485D01*
X-5098115Y+3667542D01*
X-5096292Y+3666097D01*
X-5094677Y+3664353D01*
X-5092070Y+3659969D01*
X-5090426Y+3654539D01*
X-5089878Y+3648211D01*
X-5090227Y+3643146D01*
X-5091273Y+3638579D01*
X-5092917Y+3634610D01*
X-5095059Y+3631339D01*
X-5095059Y+3631339D01*
G37*
%LPC*%
G36*
X-5105289Y+3638646D02*
X-5101669Y+3636952D01*
X-5098779Y+3634527D01*
X-5096977Y+3637126D01*
X-5095690Y+3640273D01*
X-5094918Y+3643968D01*
X-5094661Y+3648211D01*
X-5095043Y+3653260D01*
X-5096188Y+3657511D01*
X-5098032Y+3660899D01*
X-5100506Y+3663357D01*
X-5103396Y+3664851D01*
X-5106485Y+3665350D01*
X-5108963Y+3665080D01*
X-5111218Y+3664270D01*
X-5113248Y+3662921D01*
X-5115054Y+3661032D01*
X-5116536Y+3658603D01*
X-5117595Y+3655635D01*
X-5118230Y+3652126D01*
X-5118442Y+3648079D01*
X-5118226Y+3644143D01*
X-5117578Y+3640705D01*
X-5116499Y+3637766D01*
X-5114987Y+3635324D01*
X-5113161Y+3633406D01*
X-5111135Y+3632036D01*
X-5108909Y+3631214D01*
X-5106485Y+3630940D01*
X-5104127Y+3631206D01*
X-5101835Y+3632003D01*
X-5104060Y+3633498D01*
X-5106485Y+3634527D01*
X-5105289Y+3638646D01*
X-5105289Y+3638646D01*
G37*
%LPD*%
%TD.AperFunction*%
%TA.AperFunction,NonConductor*%
G36*
X-5073404Y+3626822D02*
X-5077655Y+3626822D01*
X-5077655Y+3660168D01*
X-5081641Y+3656581D01*
X-5086291Y+3653791D01*
X-5086291Y+3658973D01*
X-5082920Y+3661198D01*
X-5079980Y+3663888D01*
X-5077672Y+3666778D01*
X-5076194Y+3669601D01*
X-5073404Y+3669601D01*
X-5073404Y+3626822D01*
X-5073404Y+3626822D01*
G37*
%TD.AperFunction*%
%TDTrueTypeText*%
D47*
X-4652000Y+3485000D02*
X-4652000Y+3458000D01*
X-4700000Y+3485000D02*
X-4700000Y+3457000D01*
%TATrueTypeText,3:R20,12:Arial Narrow,203200,-11879580,8521700,20490,MIR_NONE,900*%
%TA.AperFunction,NonConductor*%
G36*
X-4660791Y+3371075D02*
X-4655743Y+3371075D01*
X-4655743Y+3347958D01*
X-4658981Y+3348340D01*
X-4662585Y+3349752D01*
X-4666720Y+3352492D01*
X-4671552Y+3356859D01*
X-4676850Y+3361808D01*
X-4680786Y+3364698D01*
X-4683925Y+3366093D01*
X-4686831Y+3366558D01*
X-4689837Y+3366093D01*
X-4692211Y+3364698D01*
X-4693756Y+3362605D01*
X-4694271Y+3360048D01*
X-4693706Y+3357275D01*
X-4692012Y+3355066D01*
X-4689289Y+3353621D01*
X-4685635Y+3353140D01*
X-4686166Y+3348755D01*
X-4691531Y+3349901D01*
X-4695400Y+3352276D01*
X-4697741Y+3355747D01*
X-4698522Y+3360181D01*
X-4697625Y+3364847D01*
X-4694935Y+3368219D01*
X-4691082Y+3370261D01*
X-4686698Y+3370942D01*
X-4682762Y+3370411D01*
X-4678926Y+3368816D01*
X-4674558Y+3365728D01*
X-4669028Y+3360712D01*
X-4663648Y+3355730D01*
X-4660791Y+3353937D01*
X-4660791Y+3371075D01*
X-4660791Y+3371075D01*
G37*
%TD.AperFunction*%
%TA.AperFunction,NonConductor*%
G36*
X-4676734Y+3373998D02*
X-4686183Y+3374712D01*
X-4693009Y+3376854D01*
X-4695421Y+3378461D01*
X-4697144Y+3380425D01*
X-4698177Y+3382745D01*
X-4698522Y+3385423D01*
X-4698240Y+3387757D01*
X-4697393Y+3389841D01*
X-4694005Y+3393262D01*
X-4690933Y+3394773D01*
X-4687030Y+3395852D01*
X-4676734Y+3396716D01*
X-4667384Y+3396002D01*
X-4660592Y+3393860D01*
X-4658180Y+3392253D01*
X-4656457Y+3390289D01*
X-4655423Y+3387968D01*
X-4655078Y+3385290D01*
X-4655381Y+3382941D01*
X-4656291Y+3380807D01*
X-4659928Y+3377186D01*
X-4662796Y+3375791D01*
X-4666554Y+3374795D01*
X-4676734Y+3373998D01*
X-4676734Y+3373998D01*
G37*
%LPC*%
G36*
X-4676734Y+3378382D02*
X-4668082Y+3378880D01*
X-4662850Y+3380375D01*
X-4660210Y+3382633D01*
X-4659330Y+3385423D01*
X-4660227Y+3388114D01*
X-4662917Y+3390339D01*
X-4668165Y+3391834D01*
X-4676734Y+3392332D01*
X-4685486Y+3391834D01*
X-4690750Y+3390339D01*
X-4693390Y+3388047D01*
X-4694271Y+3385158D01*
X-4693374Y+3382484D01*
X-4690684Y+3380308D01*
X-4685403Y+3378864D01*
X-4676734Y+3378382D01*
X-4676734Y+3378382D01*
G37*
%LPD*%
%TD.AperFunction*%
%TA.AperFunction,NonConductor*%
G36*
X-4655743Y+3316206D02*
X-4698389Y+3316206D01*
X-4698389Y+3331750D01*
X-4698090Y+3335918D01*
X-4697193Y+3338858D01*
X-4695599Y+3340967D01*
X-4693208Y+3342644D01*
X-4690185Y+3343740D01*
X-4686698Y+3344105D01*
X-4682364Y+3343491D01*
X-4678926Y+3341648D01*
X-4676485Y+3338609D01*
X-4675140Y+3334407D01*
X-4672748Y+3337330D01*
X-4667301Y+3340917D01*
X-4655743Y+3347028D01*
X-4655743Y+3341183D01*
X-4664644Y+3336533D01*
X-4671619Y+3332481D01*
X-4674010Y+3329823D01*
X-4674608Y+3326170D01*
X-4674608Y+3320856D01*
X-4655743Y+3320856D01*
X-4655743Y+3316206D01*
X-4655743Y+3316206D01*
G37*
%LPC*%
G36*
X-4679524Y+3320856D02*
X-4679524Y+3330820D01*
X-4680321Y+3335736D01*
X-4682779Y+3338459D01*
X-4686698Y+3339455D01*
X-4689554Y+3338974D01*
X-4691746Y+3337529D01*
X-4693141Y+3335154D01*
X-4693606Y+3331883D01*
X-4693606Y+3320856D01*
X-4679524Y+3320856D01*
X-4679524Y+3320856D01*
G37*
%LPD*%
%TD.AperFunction*%
%TDTrueTypeText*%
X-5557000Y+3615000D02*
X-5557000Y+3588000D01*
X-5605000Y+3615000D02*
X-5605000Y+3587000D01*
%TATrueTypeText,3:R19,12:Arial Narrow,203200,-14051280,9156700,20490,MIR_NONE,900*%
%TA.AperFunction,NonConductor*%
G36*
X-5520574Y+3624529D02*
X-5521105Y+3628781D01*
X-5518141Y+3629486D01*
X-5516024Y+3630674D01*
X-5514753Y+3632343D01*
X-5514330Y+3634493D01*
X-5514695Y+3636536D01*
X-5515791Y+3638413D01*
X-5517817Y+3640057D01*
X-5520973Y+3641402D01*
X-5525025Y+3642299D01*
X-5529741Y+3642597D01*
X-5530804Y+3642597D01*
X-5528446Y+3641036D01*
X-5526685Y+3639010D01*
X-5525589Y+3636719D01*
X-5525224Y+3634360D01*
X-5526154Y+3630408D01*
X-5528944Y+3627053D01*
X-5533361Y+3624762D01*
X-5539174Y+3623998D01*
X-5545119Y+3624795D01*
X-5549669Y+3627186D01*
X-5552559Y+3630740D01*
X-5553522Y+3635025D01*
X-5552991Y+3638130D01*
X-5551396Y+3641070D01*
X-5548756Y+3643594D01*
X-5545086Y+3645454D01*
X-5539954Y+3646600D01*
X-5532929Y+3646982D01*
X-5525141Y+3646567D01*
X-5519312Y+3645321D01*
X-5515127Y+3643361D01*
X-5512271Y+3640804D01*
X-5510626Y+3637798D01*
X-5510078Y+3634493D01*
X-5510743Y+3630823D01*
X-5512736Y+3627784D01*
X-5516024Y+3625609D01*
X-5520574Y+3624529D01*
X-5520574Y+3624529D01*
G37*
%LPC*%
G36*
X-5539439Y+3642199D02*
X-5543491Y+3641684D01*
X-5546614Y+3640140D01*
X-5548606Y+3637931D01*
X-5549271Y+3635423D01*
X-5548573Y+3632882D01*
X-5546481Y+3630574D01*
X-5543226Y+3628930D01*
X-5539041Y+3628382D01*
X-5535238Y+3628897D01*
X-5532332Y+3630441D01*
X-5530488Y+3632716D01*
X-5529874Y+3635423D01*
X-5530488Y+3638014D01*
X-5532332Y+3640206D01*
X-5535337Y+3641701D01*
X-5539439Y+3642199D01*
X-5539439Y+3642199D01*
G37*
%LPD*%
%TD.AperFunction*%
%TA.AperFunction,NonConductor*%
G36*
X-5510743Y+3614565D02*
X-5510743Y+3610314D01*
X-5544089Y+3610314D01*
X-5540502Y+3606328D01*
X-5537712Y+3601678D01*
X-5542894Y+3601678D01*
X-5545119Y+3605049D01*
X-5547809Y+3607989D01*
X-5550699Y+3610297D01*
X-5553522Y+3611775D01*
X-5553522Y+3614565D01*
X-5510743Y+3614565D01*
X-5510743Y+3614565D01*
G37*
%TD.AperFunction*%
%TA.AperFunction,NonConductor*%
G36*
X-5510743Y+3566206D02*
X-5553389Y+3566206D01*
X-5553389Y+3581750D01*
X-5553090Y+3585918D01*
X-5552193Y+3588858D01*
X-5550599Y+3590967D01*
X-5548208Y+3592644D01*
X-5545185Y+3593740D01*
X-5541698Y+3594105D01*
X-5537364Y+3593491D01*
X-5533926Y+3591648D01*
X-5531485Y+3588609D01*
X-5530140Y+3584407D01*
X-5527748Y+3587330D01*
X-5522301Y+3590917D01*
X-5510743Y+3597028D01*
X-5510743Y+3591183D01*
X-5519644Y+3586533D01*
X-5526619Y+3582481D01*
X-5529010Y+3579823D01*
X-5529608Y+3576170D01*
X-5529608Y+3570856D01*
X-5510743Y+3570856D01*
X-5510743Y+3566206D01*
X-5510743Y+3566206D01*
G37*
%LPC*%
G36*
X-5534524Y+3570856D02*
X-5534524Y+3580820D01*
X-5535321Y+3585736D01*
X-5537779Y+3588459D01*
X-5541698Y+3589455D01*
X-5544554Y+3588974D01*
X-5546746Y+3587529D01*
X-5548141Y+3585154D01*
X-5548606Y+3581883D01*
X-5548606Y+3570856D01*
X-5534524Y+3570856D01*
X-5534524Y+3570856D01*
G37*
%LPD*%
%TD.AperFunction*%
%TDTrueTypeText*%
X-5267094Y+3551299D02*
X-5267094Y+3578299D01*
X-5219094Y+3551299D02*
X-5219094Y+3579299D01*
%TATrueTypeText,3:R10,12:Arial Narrow,203200,-13297138,9327639,20490,MIR_NONE,900*%
%TA.AperFunction,NonConductor*%
G36*
X-5234828Y+3691297D02*
X-5244277Y+3692011D01*
X-5251103Y+3694153D01*
X-5253515Y+3695760D01*
X-5255238Y+3697724D01*
X-5256271Y+3700044D01*
X-5256616Y+3702722D01*
X-5256334Y+3705056D01*
X-5255487Y+3707140D01*
X-5252099Y+3710561D01*
X-5249027Y+3712072D01*
X-5245124Y+3713151D01*
X-5234828Y+3714015D01*
X-5225478Y+3713301D01*
X-5218686Y+3711159D01*
X-5216274Y+3709552D01*
X-5214551Y+3707588D01*
X-5213517Y+3705267D01*
X-5213172Y+3702589D01*
X-5213475Y+3700240D01*
X-5214385Y+3698106D01*
X-5218022Y+3694485D01*
X-5220890Y+3693090D01*
X-5224648Y+3692094D01*
X-5234828Y+3691297D01*
X-5234828Y+3691297D01*
G37*
%LPC*%
G36*
X-5234828Y+3695681D02*
X-5226176Y+3696179D01*
X-5220944Y+3697674D01*
X-5218304Y+3699932D01*
X-5217424Y+3702722D01*
X-5218321Y+3705413D01*
X-5221011Y+3707638D01*
X-5226259Y+3709133D01*
X-5234828Y+3709631D01*
X-5243580Y+3709133D01*
X-5248844Y+3707638D01*
X-5251484Y+3705346D01*
X-5252365Y+3702457D01*
X-5251468Y+3699783D01*
X-5248778Y+3697607D01*
X-5243497Y+3696163D01*
X-5234828Y+3695681D01*
X-5234828Y+3695681D01*
G37*
%LPD*%
%TD.AperFunction*%
%TA.AperFunction,NonConductor*%
G36*
X-5213837Y+3681864D02*
X-5213837Y+3677613D01*
X-5247183Y+3677613D01*
X-5243596Y+3673627D01*
X-5240806Y+3668977D01*
X-5245988Y+3668977D01*
X-5248213Y+3672348D01*
X-5250903Y+3675288D01*
X-5253793Y+3677596D01*
X-5256616Y+3679074D01*
X-5256616Y+3681864D01*
X-5213837Y+3681864D01*
X-5213837Y+3681864D01*
G37*
%TD.AperFunction*%
%TA.AperFunction,NonConductor*%
G36*
X-5213837Y+3633505D02*
X-5256483Y+3633505D01*
X-5256483Y+3649049D01*
X-5256184Y+3653217D01*
X-5255287Y+3656157D01*
X-5253693Y+3658266D01*
X-5251302Y+3659943D01*
X-5248279Y+3661039D01*
X-5244792Y+3661404D01*
X-5240458Y+3660790D01*
X-5237020Y+3658947D01*
X-5234579Y+3655908D01*
X-5233234Y+3651706D01*
X-5230842Y+3654629D01*
X-5225395Y+3658216D01*
X-5213837Y+3664327D01*
X-5213837Y+3658482D01*
X-5222738Y+3653832D01*
X-5229713Y+3649780D01*
X-5232104Y+3647122D01*
X-5232702Y+3643469D01*
X-5232702Y+3638155D01*
X-5213837Y+3638155D01*
X-5213837Y+3633505D01*
X-5213837Y+3633505D01*
G37*
%LPC*%
G36*
X-5237618Y+3638155D02*
X-5237618Y+3648119D01*
X-5238415Y+3653035D01*
X-5240873Y+3655758D01*
X-5244792Y+3656754D01*
X-5247648Y+3656273D01*
X-5249840Y+3654828D01*
X-5251235Y+3652453D01*
X-5251700Y+3649182D01*
X-5251700Y+3638155D01*
X-5237618Y+3638155D01*
X-5237618Y+3638155D01*
G37*
%LPD*%
%TD.AperFunction*%
%TDTrueTypeText*%
X-4732906Y+3751850D02*
X-4732906Y+3724850D01*
X-4780906Y+3751850D02*
X-4780906Y+3723850D01*
%TATrueTypeText,2:R8,12:Arial Narrow,203200,-11953001,9516678,20490,MIR_NONE,900*%
%TA.AperFunction,NonConductor*%
G36*
X-4707765Y+3759478D02*
X-4709194Y+3757252D01*
X-4711087Y+3755625D01*
X-4713511Y+3754628D01*
X-4716534Y+3754296D01*
X-4720885Y+3755010D01*
X-4722737Y+3755903D01*
X-4724372Y+3757153D01*
X-4725709Y+3758676D01*
X-4726664Y+3760391D01*
X-4727428Y+3764393D01*
X-4727233Y+3766436D01*
X-4726647Y+3768312D01*
X-4724306Y+3771567D01*
X-4722633Y+3772846D01*
X-4720735Y+3773760D01*
X-4716268Y+3774490D01*
X-4713445Y+3774175D01*
X-4711087Y+3773228D01*
X-4709194Y+3771617D01*
X-4707765Y+3769309D01*
X-4706171Y+3772132D01*
X-4703780Y+3774224D01*
X-4700625Y+3775520D01*
X-4696739Y+3775952D01*
X-4694073Y+3775744D01*
X-4691657Y+3775121D01*
X-4689490Y+3774083D01*
X-4687572Y+3772630D01*
X-4686002Y+3770870D01*
X-4684881Y+3768910D01*
X-4684209Y+3766751D01*
X-4683984Y+3764393D01*
X-4684209Y+3762035D01*
X-4684881Y+3759876D01*
X-4686002Y+3757917D01*
X-4687572Y+3756156D01*
X-4689506Y+3754703D01*
X-4691723Y+3753665D01*
X-4694223Y+3753042D01*
X-4697004Y+3752835D01*
X-4700890Y+3753283D01*
X-4704046Y+3754628D01*
X-4706370Y+3756737D01*
X-4707765Y+3759478D01*
X-4707765Y+3759478D01*
G37*
%LPC*%
G36*
X-4697004Y+3757219D02*
X-4693417Y+3757750D01*
X-4690627Y+3759345D01*
X-4688834Y+3761670D01*
X-4688236Y+3764393D01*
X-4688817Y+3767200D01*
X-4690561Y+3769508D01*
X-4693268Y+3771053D01*
X-4696739Y+3771567D01*
X-4700326Y+3771036D01*
X-4703116Y+3769442D01*
X-4704909Y+3767084D01*
X-4705507Y+3764260D01*
X-4704909Y+3761553D01*
X-4703116Y+3759278D01*
X-4700392Y+3757734D01*
X-4697004Y+3757219D01*
X-4697004Y+3757219D01*
G37*
G36*
X-4716667Y+3758680D02*
X-4713810Y+3759096D01*
X-4711618Y+3760341D01*
X-4710223Y+3762185D01*
X-4709758Y+3764393D01*
X-4710223Y+3766602D01*
X-4711618Y+3768445D01*
X-4713744Y+3769691D01*
X-4716401Y+3770106D01*
X-4719075Y+3769674D01*
X-4721250Y+3768379D01*
X-4722695Y+3766519D01*
X-4723177Y+3764393D01*
X-4722712Y+3762185D01*
X-4721317Y+3760341D01*
X-4719224Y+3759096D01*
X-4716667Y+3758680D01*
X-4716667Y+3758680D01*
G37*
%LPD*%
%TD.AperFunction*%
%TA.AperFunction,NonConductor*%
G36*
X-4684649Y+3720684D02*
X-4727295Y+3720684D01*
X-4727295Y+3736228D01*
X-4726996Y+3740396D01*
X-4726099Y+3743336D01*
X-4724505Y+3745445D01*
X-4722114Y+3747122D01*
X-4719091Y+3748218D01*
X-4715604Y+3748583D01*
X-4711270Y+3747969D01*
X-4707832Y+3746126D01*
X-4705391Y+3743087D01*
X-4704046Y+3738885D01*
X-4701654Y+3741808D01*
X-4696207Y+3745395D01*
X-4684649Y+3751506D01*
X-4684649Y+3745661D01*
X-4693550Y+3741011D01*
X-4700525Y+3736959D01*
X-4702916Y+3734302D01*
X-4703514Y+3730648D01*
X-4703514Y+3725334D01*
X-4684649Y+3725334D01*
X-4684649Y+3720684D01*
X-4684649Y+3720684D01*
G37*
%LPC*%
G36*
X-4708430Y+3725334D02*
X-4708430Y+3735298D01*
X-4708629Y+3738121D01*
X-4709227Y+3740214D01*
X-4710240Y+3741758D01*
X-4711685Y+3742937D01*
X-4713495Y+3743684D01*
X-4715604Y+3743934D01*
X-4718460Y+3743452D01*
X-4720652Y+3742007D01*
X-4722047Y+3739632D01*
X-4722512Y+3736361D01*
X-4722512Y+3725334D01*
X-4708430Y+3725334D01*
X-4708430Y+3725334D01*
G37*
%LPD*%
%TD.AperFunction*%
%TDTrueTypeText*%
X-5668000Y+3805000D02*
X-5668000Y+3832000D01*
X-5620000Y+3805000D02*
X-5620000Y+3833000D01*
%TATrueTypeText,2:R9,12:Arial Narrow,152400,-14439900,9705340,20490,MIR_NONE,900*%
%TA.AperFunction,NonConductor*%
G36*
X-5677825Y+3826492D02*
X-5678162Y+3829407D01*
X-5676004Y+3829967D01*
X-5674462Y+3830864D01*
X-5673538Y+3832097D01*
X-5673229Y+3833666D01*
X-5673496Y+3835152D01*
X-5674294Y+3836469D01*
X-5675766Y+3837618D01*
X-5678050Y+3838599D01*
X-5680992Y+3839271D01*
X-5684439Y+3839495D01*
X-5685112Y+3839495D01*
X-5683486Y+3838402D01*
X-5682197Y+3836917D01*
X-5681356Y+3835236D01*
X-5681076Y+3833554D01*
X-5681244Y+3832090D01*
X-5681749Y+3830724D01*
X-5683766Y+3828286D01*
X-5685238Y+3827305D01*
X-5686961Y+3826604D01*
X-5691165Y+3826044D01*
X-5695481Y+3826618D01*
X-5697260Y+3827336D01*
X-5698787Y+3828342D01*
X-5700013Y+3829557D01*
X-5700889Y+3830906D01*
X-5701415Y+3832388D01*
X-5701590Y+3834003D01*
X-5701197Y+3836273D01*
X-5700020Y+3838374D01*
X-5698087Y+3840168D01*
X-5695424Y+3841513D01*
X-5691725Y+3842354D01*
X-5686681Y+3842634D01*
X-5681090Y+3842340D01*
X-5676873Y+3841457D01*
X-5673818Y+3840056D01*
X-5671716Y+3838206D01*
X-5670497Y+3836006D01*
X-5670091Y+3833554D01*
X-5670581Y+3830962D01*
X-5672052Y+3828790D01*
X-5674476Y+3827235D01*
X-5677825Y+3826492D01*
X-5677825Y+3826492D01*
G37*
%LPC*%
G36*
X-5691389Y+3839159D02*
X-5694304Y+3838795D01*
X-5696545Y+3837702D01*
X-5697975Y+3836133D01*
X-5698451Y+3834339D01*
X-5697947Y+3832433D01*
X-5696433Y+3830752D01*
X-5694079Y+3829575D01*
X-5691053Y+3829183D01*
X-5688334Y+3829561D01*
X-5686233Y+3830696D01*
X-5684887Y+3832335D01*
X-5684439Y+3834227D01*
X-5684887Y+3836175D01*
X-5686233Y+3837758D01*
X-5688418Y+3838809D01*
X-5691389Y+3839159D01*
X-5691389Y+3839159D01*
G37*
%LPD*%
%TD.AperFunction*%
%TA.AperFunction,NonConductor*%
G36*
X-5670651Y+3798580D02*
X-5701478Y+3798580D01*
X-5701478Y+3809790D01*
X-5701267Y+3812816D01*
X-5700637Y+3814946D01*
X-5699502Y+3816474D01*
X-5697778Y+3817693D01*
X-5695593Y+3818491D01*
X-5693070Y+3818758D01*
X-5689918Y+3818309D01*
X-5687410Y+3816964D01*
X-5685630Y+3814750D01*
X-5684663Y+3811695D01*
X-5682982Y+3813825D01*
X-5679058Y+3816516D01*
X-5670651Y+3820887D01*
X-5670651Y+3816628D01*
X-5677041Y+3813265D01*
X-5682141Y+3810350D01*
X-5683879Y+3808445D01*
X-5684327Y+3805866D01*
X-5684327Y+3801943D01*
X-5670651Y+3801943D01*
X-5670651Y+3798580D01*
X-5670651Y+3798580D01*
G37*
%LPC*%
G36*
X-5687914Y+3801943D02*
X-5687914Y+3809117D01*
X-5688054Y+3811191D01*
X-5688474Y+3812704D01*
X-5689189Y+3813811D01*
X-5690212Y+3814666D01*
X-5691515Y+3815213D01*
X-5693070Y+3815395D01*
X-5695172Y+3815044D01*
X-5696770Y+3813993D01*
X-5697778Y+3812270D01*
X-5698115Y+3809902D01*
X-5698115Y+3801943D01*
X-5687914Y+3801943D01*
X-5687914Y+3801943D01*
G37*
%LPD*%
%TD.AperFunction*%
%TDTrueTypeText*%
X-5908000Y+3714000D02*
X-5908000Y+3741000D01*
X-5860000Y+3714000D02*
X-5860000Y+3742000D01*
%TATrueTypeText,3:C16,12:Arial Narrow,177800,-15082520,9484360,20490,MIR_NONE,900*%
%TA.AperFunction,NonConductor*%
G36*
X-5933815Y+3716214D02*
X-5932638Y+3720137D01*
X-5927374Y+3718355D01*
X-5923614Y+3715625D01*
X-5921358Y+3712045D01*
X-5920606Y+3707713D01*
X-5921113Y+3703937D01*
X-5922633Y+3700716D01*
X-5925249Y+3698052D01*
X-5929041Y+3695943D01*
X-5933831Y+3694570D01*
X-5939438Y+3694112D01*
X-5944980Y+3694570D01*
X-5949573Y+3695943D01*
X-5953186Y+3698117D01*
X-5955785Y+3700978D01*
X-5957355Y+3704362D01*
X-5957878Y+3708105D01*
X-5957208Y+3712012D01*
X-5955197Y+3715363D01*
X-5951911Y+3717963D01*
X-5947416Y+3719614D01*
X-5946239Y+3715821D01*
X-5949557Y+3714595D01*
X-5951927Y+3712879D01*
X-5953350Y+3710672D01*
X-5953824Y+3707974D01*
X-5953448Y+3705179D01*
X-5952320Y+3702809D01*
X-5950391Y+3700880D01*
X-5947612Y+3699408D01*
X-5943966Y+3698477D01*
X-5939438Y+3698166D01*
X-5933014Y+3698820D01*
X-5928387Y+3700782D01*
X-5925592Y+3703822D01*
X-5924660Y+3707713D01*
X-5925232Y+3710639D01*
X-5926949Y+3713140D01*
X-5929809Y+3715053D01*
X-5933815Y+3716214D01*
X-5933815Y+3716214D01*
G37*
%TD.AperFunction*%
%TA.AperFunction,NonConductor*%
G36*
X-5948462Y+3771141D02*
X-5948069Y+3767610D01*
X-5951993Y+3766040D01*
X-5953268Y+3764438D01*
X-5953693Y+3762509D01*
X-5952712Y+3759698D01*
X-5949770Y+3757540D01*
X-5945585Y+3756265D01*
X-5939830Y+3755840D01*
X-5941890Y+3757196D01*
X-5943361Y+3758913D01*
X-5944244Y+3760858D01*
X-5944538Y+3762902D01*
X-5943754Y+3766204D01*
X-5941400Y+3769048D01*
X-5937705Y+3771010D01*
X-5932899Y+3771664D01*
X-5929515Y+3771337D01*
X-5926426Y+3770356D01*
X-5923859Y+3768869D01*
X-5922044Y+3767021D01*
X-5920966Y+3764880D01*
X-5920606Y+3762509D01*
X-5921619Y+3758439D01*
X-5924660Y+3755120D01*
X-5927022Y+3753833D01*
X-5930055Y+3752913D01*
X-5938130Y+3752178D01*
X-5946991Y+3752930D01*
X-5950317Y+3753870D01*
X-5952908Y+3755186D01*
X-5956243Y+3758586D01*
X-5957077Y+3760580D01*
X-5957355Y+3762771D01*
X-5956783Y+3765877D01*
X-5955066Y+3768394D01*
X-5952271Y+3770193D01*
X-5948462Y+3771141D01*
X-5948462Y+3771141D01*
G37*
%LPC*%
G36*
X-5932899Y+3756363D02*
X-5929368Y+3756820D01*
X-5926622Y+3758194D01*
X-5924856Y+3760188D01*
X-5924268Y+3762509D01*
X-5924823Y+3764504D01*
X-5926491Y+3766302D01*
X-5929139Y+3767577D01*
X-5932638Y+3768002D01*
X-5936021Y+3767577D01*
X-5938588Y+3766302D01*
X-5940206Y+3764438D01*
X-5940746Y+3762248D01*
X-5940206Y+3760041D01*
X-5938588Y+3758128D01*
X-5936087Y+3756804D01*
X-5932899Y+3756363D01*
X-5932899Y+3756363D01*
G37*
%LPD*%
%TD.AperFunction*%
%TA.AperFunction,NonConductor*%
G36*
X-5921260Y+3740931D02*
X-5921260Y+3737269D01*
X-5949377Y+3737269D01*
X-5946369Y+3733934D01*
X-5944015Y+3730076D01*
X-5948331Y+3730076D01*
X-5952516Y+3735373D01*
X-5957355Y+3738577D01*
X-5957355Y+3740931D01*
X-5921260Y+3740931D01*
X-5921260Y+3740931D01*
G37*
%TD.AperFunction*%
%TDTrueTypeText*%
X-4987567Y+3560496D02*
X-4987567Y+3587496D01*
X-4939567Y+3560496D02*
X-4939567Y+3588496D01*
%TATrueTypeText,3:C18,12:Arial Narrow,203200,-12737000,9076679,20490,MIR_NONE,900*%
%TA.AperFunction,NonConductor*%
G36*
X-5008189Y+3559546D02*
X-5006861Y+3564196D01*
X-5000600Y+3562037D01*
X-4996166Y+3558749D01*
X-4993526Y+3554497D01*
X-4992645Y+3549449D01*
X-4993227Y+3544915D01*
X-4994970Y+3541145D01*
X-4998026Y+3538056D01*
X-5002543Y+3535565D01*
X-5008272Y+3533921D01*
X-5014965Y+3533373D01*
X-5021458Y+3533921D01*
X-5026856Y+3535565D01*
X-5031107Y+3538139D01*
X-5034163Y+3541477D01*
X-5036006Y+3545430D01*
X-5036620Y+3549847D01*
X-5035840Y+3554547D01*
X-5033498Y+3558549D01*
X-5029629Y+3561622D01*
X-5024265Y+3563531D01*
X-5022936Y+3559014D01*
X-5026831Y+3557586D01*
X-5029612Y+3555560D01*
X-5031281Y+3552936D01*
X-5031838Y+3549714D01*
X-5031389Y+3546476D01*
X-5030044Y+3543670D01*
X-5027752Y+3541345D01*
X-5024464Y+3539551D01*
X-5020196Y+3538405D01*
X-5014965Y+3538023D01*
X-5007293Y+3538804D01*
X-5001812Y+3541145D01*
X-4998524Y+3544749D01*
X-4997428Y+3549316D01*
X-4998092Y+3552886D01*
X-5000085Y+3555892D01*
X-5003440Y+3558167D01*
X-5008189Y+3559546D01*
X-5008189Y+3559546D01*
G37*
%TD.AperFunction*%
%TA.AperFunction,NonConductor*%
G36*
X-5016426Y+3599004D02*
X-5017855Y+3596778D01*
X-5019748Y+3595151D01*
X-5022172Y+3594154D01*
X-5025195Y+3593822D01*
X-5029546Y+3594536D01*
X-5033033Y+3596679D01*
X-5035325Y+3599917D01*
X-5036089Y+3603919D01*
X-5035308Y+3607839D01*
X-5032967Y+3611093D01*
X-5029396Y+3613286D01*
X-5024929Y+3614016D01*
X-5022106Y+3613701D01*
X-5019748Y+3612754D01*
X-5017855Y+3611143D01*
X-5016426Y+3608835D01*
X-5014832Y+3611658D01*
X-5012441Y+3613751D01*
X-5009286Y+3615046D01*
X-5005400Y+3615478D01*
X-5000318Y+3614647D01*
X-4996233Y+3612156D01*
X-4993542Y+3608436D01*
X-4992645Y+3603919D01*
X-4993542Y+3599402D01*
X-4996233Y+3595682D01*
X-5000384Y+3593191D01*
X-5005665Y+3592361D01*
X-5009551Y+3592809D01*
X-5012707Y+3594154D01*
X-5015031Y+3596264D01*
X-5016426Y+3599004D01*
X-5016426Y+3599004D01*
G37*
%LPC*%
G36*
X-5005665Y+3596745D02*
X-5002078Y+3597277D01*
X-4999288Y+3598871D01*
X-4997495Y+3601196D01*
X-4996897Y+3603919D01*
X-4997478Y+3606726D01*
X-4999222Y+3609034D01*
X-5001929Y+3610579D01*
X-5005400Y+3611093D01*
X-5008987Y+3610562D01*
X-5011777Y+3608968D01*
X-5013570Y+3606610D01*
X-5014168Y+3603786D01*
X-5013570Y+3601080D01*
X-5011777Y+3598804D01*
X-5009053Y+3597260D01*
X-5005665Y+3596745D01*
X-5005665Y+3596745D01*
G37*
G36*
X-5025328Y+3598207D02*
X-5022471Y+3598622D01*
X-5020279Y+3599867D01*
X-5018884Y+3601711D01*
X-5018419Y+3603919D01*
X-5018884Y+3606128D01*
X-5020279Y+3607971D01*
X-5022405Y+3609217D01*
X-5025062Y+3609632D01*
X-5027736Y+3609200D01*
X-5029911Y+3607905D01*
X-5031356Y+3606045D01*
X-5031838Y+3603919D01*
X-5031373Y+3601711D01*
X-5029978Y+3599867D01*
X-5027885Y+3598622D01*
X-5025328Y+3598207D01*
X-5025328Y+3598207D01*
G37*
%LPD*%
%TD.AperFunction*%
%TA.AperFunction,NonConductor*%
G36*
X-4993310Y+3583061D02*
X-4993310Y+3578810D01*
X-5026656Y+3578810D01*
X-5023069Y+3574824D01*
X-5020279Y+3570174D01*
X-5025461Y+3570174D01*
X-5027686Y+3573545D01*
X-5030376Y+3576485D01*
X-5033266Y+3578793D01*
X-5036089Y+3580271D01*
X-5036089Y+3583061D01*
X-4993310Y+3583061D01*
X-4993310Y+3583061D01*
G37*
%TD.AperFunction*%
%TDTrueTypeText*%
X-4778906Y+3568370D02*
X-4778906Y+3595370D01*
X-4730906Y+3568370D02*
X-4730906Y+3596370D01*
%TATrueTypeText,3:C19,12:Arial Narrow,203200,-12207001,9096679,20490,MIR_NONE,900*%
%TA.AperFunction,NonConductor*%
G36*
X-4799528Y+3567420D02*
X-4798200Y+3572070D01*
X-4791939Y+3569911D01*
X-4787505Y+3566623D01*
X-4784865Y+3562371D01*
X-4783984Y+3557323D01*
X-4784566Y+3552789D01*
X-4786309Y+3549019D01*
X-4789365Y+3545930D01*
X-4793882Y+3543439D01*
X-4799611Y+3541795D01*
X-4806304Y+3541247D01*
X-4812797Y+3541795D01*
X-4818195Y+3543439D01*
X-4822446Y+3546013D01*
X-4825502Y+3549351D01*
X-4827345Y+3553304D01*
X-4827959Y+3557721D01*
X-4827179Y+3562421D01*
X-4824837Y+3566423D01*
X-4820968Y+3569496D01*
X-4815604Y+3571405D01*
X-4814275Y+3566888D01*
X-4818170Y+3565460D01*
X-4820951Y+3563434D01*
X-4822620Y+3560810D01*
X-4823177Y+3557588D01*
X-4822728Y+3554350D01*
X-4821383Y+3551544D01*
X-4819091Y+3549219D01*
X-4815803Y+3547425D01*
X-4811535Y+3546279D01*
X-4806304Y+3545897D01*
X-4798632Y+3546678D01*
X-4793151Y+3549019D01*
X-4789863Y+3552623D01*
X-4788767Y+3557190D01*
X-4789431Y+3560760D01*
X-4791424Y+3563766D01*
X-4794779Y+3566041D01*
X-4799528Y+3567420D01*
X-4799528Y+3567420D01*
G37*
%TD.AperFunction*%
%TA.AperFunction,NonConductor*%
G36*
X-4794480Y+3600899D02*
X-4795011Y+3605151D01*
X-4792047Y+3605856D01*
X-4789930Y+3607044D01*
X-4788659Y+3608713D01*
X-4788236Y+3610863D01*
X-4788601Y+3612906D01*
X-4789697Y+3614783D01*
X-4791723Y+3616427D01*
X-4794879Y+3617772D01*
X-4798931Y+3618669D01*
X-4803647Y+3618967D01*
X-4804710Y+3618967D01*
X-4802352Y+3617406D01*
X-4800591Y+3615380D01*
X-4799495Y+3613089D01*
X-4799130Y+3610730D01*
X-4800060Y+3606778D01*
X-4802850Y+3603423D01*
X-4807267Y+3601132D01*
X-4813080Y+3600368D01*
X-4819025Y+3601165D01*
X-4823575Y+3603556D01*
X-4826465Y+3607110D01*
X-4827428Y+3611395D01*
X-4826897Y+3614500D01*
X-4825302Y+3617440D01*
X-4822662Y+3619964D01*
X-4818992Y+3621824D01*
X-4813860Y+3622970D01*
X-4806835Y+3623352D01*
X-4799047Y+3622937D01*
X-4793218Y+3621691D01*
X-4789033Y+3619731D01*
X-4786177Y+3617174D01*
X-4784532Y+3614168D01*
X-4783984Y+3610863D01*
X-4784649Y+3607193D01*
X-4786642Y+3604154D01*
X-4789930Y+3601979D01*
X-4794480Y+3600899D01*
X-4794480Y+3600899D01*
G37*
%LPC*%
G36*
X-4813345Y+3618569D02*
X-4817397Y+3618054D01*
X-4820520Y+3616510D01*
X-4822512Y+3614301D01*
X-4823177Y+3611793D01*
X-4822479Y+3609252D01*
X-4820387Y+3606944D01*
X-4817132Y+3605300D01*
X-4812947Y+3604752D01*
X-4809144Y+3605267D01*
X-4806238Y+3606811D01*
X-4804394Y+3609086D01*
X-4803780Y+3611793D01*
X-4804394Y+3614384D01*
X-4806238Y+3616576D01*
X-4809243Y+3618071D01*
X-4813345Y+3618569D01*
X-4813345Y+3618569D01*
G37*
%LPD*%
%TD.AperFunction*%
%TA.AperFunction,NonConductor*%
G36*
X-4784649Y+3590935D02*
X-4784649Y+3586684D01*
X-4817995Y+3586684D01*
X-4814408Y+3582698D01*
X-4811618Y+3578048D01*
X-4816800Y+3578048D01*
X-4819025Y+3581419D01*
X-4821715Y+3584359D01*
X-4824605Y+3586667D01*
X-4827428Y+3588145D01*
X-4827428Y+3590935D01*
X-4784649Y+3590935D01*
X-4784649Y+3590935D01*
G37*
%TD.AperFunction*%
%TDTrueTypeText*%
X-4692291Y+3618228D02*
X-4692291Y+3645228D01*
X-4644291Y+3618228D02*
X-4644291Y+3646228D01*
%TATrueTypeText,3:C20,12:Arial Narrow,203200,-11732999,9223319,20490,MIR_NONE,900*%
%TA.AperFunction,NonConductor*%
G36*
X-4612913Y+3617278D02*
X-4611585Y+3621928D01*
X-4605324Y+3619769D01*
X-4600890Y+3616481D01*
X-4598250Y+3612229D01*
X-4597369Y+3607181D01*
X-4597951Y+3602647D01*
X-4599694Y+3598877D01*
X-4602750Y+3595788D01*
X-4607267Y+3593297D01*
X-4612996Y+3591653D01*
X-4619689Y+3591105D01*
X-4626182Y+3591653D01*
X-4631580Y+3593297D01*
X-4635831Y+3595871D01*
X-4638887Y+3599209D01*
X-4640730Y+3603162D01*
X-4641344Y+3607579D01*
X-4640564Y+3612279D01*
X-4638222Y+3616281D01*
X-4634353Y+3619354D01*
X-4628989Y+3621263D01*
X-4627660Y+3616746D01*
X-4631555Y+3615318D01*
X-4634336Y+3613292D01*
X-4636005Y+3610668D01*
X-4636562Y+3607446D01*
X-4636113Y+3604208D01*
X-4634768Y+3601402D01*
X-4632476Y+3599077D01*
X-4629188Y+3597283D01*
X-4624920Y+3596137D01*
X-4619689Y+3595755D01*
X-4612017Y+3596536D01*
X-4606536Y+3598877D01*
X-4603248Y+3602481D01*
X-4602152Y+3607048D01*
X-4602816Y+3610618D01*
X-4604809Y+3613624D01*
X-4608164Y+3615899D01*
X-4612913Y+3617278D01*
X-4612913Y+3617278D01*
G37*
%TD.AperFunction*%
%TA.AperFunction,NonConductor*%
G36*
X-4603082Y+3647303D02*
X-4598034Y+3647303D01*
X-4598034Y+3624186D01*
X-4601272Y+3624568D01*
X-4604876Y+3625980D01*
X-4609011Y+3628720D01*
X-4613843Y+3633087D01*
X-4619141Y+3638036D01*
X-4623077Y+3640926D01*
X-4626216Y+3642321D01*
X-4629122Y+3642786D01*
X-4632128Y+3642321D01*
X-4634502Y+3640926D01*
X-4636047Y+3638833D01*
X-4636562Y+3636276D01*
X-4635997Y+3633503D01*
X-4634303Y+3631294D01*
X-4631580Y+3629849D01*
X-4627926Y+3629368D01*
X-4628457Y+3624983D01*
X-4633822Y+3626129D01*
X-4637691Y+3628504D01*
X-4640032Y+3631975D01*
X-4640813Y+3636409D01*
X-4639916Y+3641075D01*
X-4637226Y+3644447D01*
X-4633373Y+3646489D01*
X-4628989Y+3647170D01*
X-4625053Y+3646639D01*
X-4621217Y+3645044D01*
X-4616849Y+3641956D01*
X-4611319Y+3636940D01*
X-4605939Y+3631958D01*
X-4603082Y+3630165D01*
X-4603082Y+3647303D01*
X-4603082Y+3647303D01*
G37*
%TD.AperFunction*%
%TA.AperFunction,NonConductor*%
G36*
X-4619025Y+3650226D02*
X-4628474Y+3650940D01*
X-4635300Y+3653082D01*
X-4637712Y+3654689D01*
X-4639435Y+3656653D01*
X-4640468Y+3658973D01*
X-4640813Y+3661651D01*
X-4639684Y+3666069D01*
X-4636296Y+3669490D01*
X-4633224Y+3671001D01*
X-4629321Y+3672080D01*
X-4619025Y+3672944D01*
X-4609675Y+3672230D01*
X-4602883Y+3670088D01*
X-4600471Y+3668481D01*
X-4598748Y+3666517D01*
X-4597714Y+3664196D01*
X-4597369Y+3661518D01*
X-4597672Y+3659169D01*
X-4598582Y+3657035D01*
X-4602219Y+3653414D01*
X-4605087Y+3652019D01*
X-4608845Y+3651023D01*
X-4619025Y+3650226D01*
X-4619025Y+3650226D01*
G37*
%LPC*%
G36*
X-4619025Y+3654610D02*
X-4610373Y+3655108D01*
X-4605141Y+3656603D01*
X-4602501Y+3658861D01*
X-4601621Y+3661651D01*
X-4602518Y+3664342D01*
X-4605208Y+3666567D01*
X-4610456Y+3668062D01*
X-4619025Y+3668560D01*
X-4627777Y+3668062D01*
X-4633041Y+3666567D01*
X-4635681Y+3664275D01*
X-4636562Y+3661386D01*
X-4635665Y+3658712D01*
X-4632975Y+3656536D01*
X-4627694Y+3655092D01*
X-4619025Y+3654610D01*
X-4619025Y+3654610D01*
G37*
%LPD*%
%TD.AperFunction*%
%TDTrueTypeText*%
%TATrueTypeText,7:TPOINTS,12:Arial Narrow,177800,-13059900,6864299,20490,MIR_NONE,0*%
%TA.AperFunction,NonConductor*%
G36*
X-5218852Y+2685740D02*
X-5218852Y+2717388D01*
X-5228530Y+2717388D01*
X-5228530Y+2721704D01*
X-5205120Y+2721704D01*
X-5205120Y+2717388D01*
X-5214929Y+2717388D01*
X-5214929Y+2685740D01*
X-5218852Y+2685740D01*
X-5218852Y+2685740D01*
G37*
%TD.AperFunction*%
%TA.AperFunction,NonConductor*%
G36*
X-5201328Y+2685740D02*
X-5201328Y+2721704D01*
X-5190212Y+2721704D01*
X-5186779Y+2721541D01*
X-5184327Y+2721050D01*
X-5182087Y+2719726D01*
X-5180338Y+2717584D01*
X-5179210Y+2714756D01*
X-5178834Y+2711372D01*
X-5178989Y+2709063D01*
X-5179455Y+2706975D01*
X-5180231Y+2705107D01*
X-5181319Y+2703460D01*
X-5182782Y+2702116D01*
X-5184686Y+2701155D01*
X-5187032Y+2700579D01*
X-5189819Y+2700387D01*
X-5197404Y+2700387D01*
X-5197404Y+2685740D01*
X-5201328Y+2685740D01*
X-5201328Y+2685740D01*
G37*
%LPC*%
G36*
X-5197404Y+2704572D02*
X-5189688Y+2704572D01*
X-5186615Y+2704981D01*
X-5185422Y+2705492D01*
X-5184457Y+2706207D01*
X-5183713Y+2707126D01*
X-5183182Y+2708250D01*
X-5182757Y+2711111D01*
X-5182970Y+2713154D01*
X-5183607Y+2714838D01*
X-5184539Y+2716097D01*
X-5185634Y+2716865D01*
X-5187269Y+2717258D01*
X-5189819Y+2717388D01*
X-5197404Y+2717388D01*
X-5197404Y+2704572D01*
X-5197404Y+2704572D01*
G37*
%LPD*%
%TD.AperFunction*%
%TA.AperFunction,NonConductor*%
G36*
X-5177264Y+2703264D02*
X-5177011Y+2707580D01*
X-5176251Y+2711372D01*
X-5174984Y+2714642D01*
X-5173210Y+2717388D01*
X-5171061Y+2719563D01*
X-5168666Y+2721116D01*
X-5166026Y+2722047D01*
X-5163140Y+2722358D01*
X-5161224Y+2722219D01*
X-5159397Y+2721802D01*
X-5157660Y+2721107D01*
X-5156013Y+2720135D01*
X-5154493Y+2718900D01*
X-5153136Y+2717421D01*
X-5150912Y+2713727D01*
X-5150083Y+2711528D01*
X-5149490Y+2709117D01*
X-5149016Y+2703657D01*
X-5149245Y+2699856D01*
X-5149932Y+2696431D01*
X-5151076Y+2693382D01*
X-5152678Y+2690709D01*
X-5154852Y+2688249D01*
X-5157321Y+2686492D01*
X-5160083Y+2685437D01*
X-5163140Y+2685086D01*
X-5166246Y+2685446D01*
X-5169025Y+2686524D01*
X-5171477Y+2688323D01*
X-5173603Y+2690840D01*
X-5175205Y+2693529D01*
X-5176349Y+2696496D01*
X-5177036Y+2699741D01*
X-5177264Y+2703264D01*
X-5177264Y+2703264D01*
G37*
%LPC*%
G36*
X-5173210Y+2703133D02*
X-5173026Y+2700040D01*
X-5172475Y+2697297D01*
X-5171555Y+2694907D01*
X-5170268Y+2692867D01*
X-5168719Y+2691237D01*
X-5167015Y+2690072D01*
X-5165155Y+2689373D01*
X-5163140Y+2689140D01*
X-5161125Y+2689373D01*
X-5159266Y+2690072D01*
X-5157562Y+2691237D01*
X-5156013Y+2692867D01*
X-5154725Y+2694947D01*
X-5153806Y+2697461D01*
X-5153254Y+2700407D01*
X-5153070Y+2703787D01*
X-5153463Y+2708234D01*
X-5154640Y+2712157D01*
X-5156013Y+2714642D01*
X-5158040Y+2716604D01*
X-5160492Y+2717879D01*
X-5163140Y+2718304D01*
X-5165261Y+2718071D01*
X-5167178Y+2717372D01*
X-5168890Y+2716207D01*
X-5170399Y+2714577D01*
X-5171629Y+2712464D01*
X-5172507Y+2709852D01*
X-5173035Y+2706742D01*
X-5173210Y+2703133D01*
X-5173210Y+2703133D01*
G37*
%LPD*%
%TD.AperFunction*%
%TA.AperFunction,NonConductor*%
G36*
X-5141954Y+2685740D02*
X-5141954Y+2721704D01*
X-5138031Y+2721704D01*
X-5138031Y+2685740D01*
X-5141954Y+2685740D01*
X-5141954Y+2685740D01*
G37*
%TD.AperFunction*%
%TA.AperFunction,NonConductor*%
G36*
X-5134500Y+2685740D02*
X-5134500Y+2721704D01*
X-5130445Y+2721704D01*
X-5114883Y+2693456D01*
X-5114883Y+2721704D01*
X-5111221Y+2721704D01*
X-5111221Y+2685740D01*
X-5115275Y+2685740D01*
X-5130707Y+2713988D01*
X-5130707Y+2685740D01*
X-5134500Y+2685740D01*
X-5134500Y+2685740D01*
G37*
%TD.AperFunction*%
%TA.AperFunction,NonConductor*%
G36*
X-5093304Y+2685740D02*
X-5093304Y+2717388D01*
X-5102982Y+2717388D01*
X-5102982Y+2721704D01*
X-5079572Y+2721704D01*
X-5079572Y+2717388D01*
X-5089381Y+2717388D01*
X-5089381Y+2685740D01*
X-5093304Y+2685740D01*
X-5093304Y+2685740D01*
G37*
%TD.AperFunction*%
%TA.AperFunction,NonConductor*%
G36*
X-5077088Y+2697379D02*
X-5073426Y+2697771D01*
X-5072870Y+2695107D01*
X-5071987Y+2693129D01*
X-5070728Y+2691641D01*
X-5069045Y+2690448D01*
X-5067001Y+2689663D01*
X-5064664Y+2689402D01*
X-5061623Y+2689827D01*
X-5059302Y+2691102D01*
X-5057830Y+2693063D01*
X-5057340Y+2695548D01*
X-5057520Y+2697019D01*
X-5058059Y+2698295D01*
X-5058942Y+2699373D01*
X-5060152Y+2700256D01*
X-5062359Y+2701172D01*
X-5066233Y+2702349D01*
X-5069813Y+2703640D01*
X-5072183Y+2704899D01*
X-5073753Y+2706305D01*
X-5074930Y+2708038D01*
X-5075665Y+2710081D01*
X-5075911Y+2712419D01*
X-5075735Y+2714483D01*
X-5075208Y+2716358D01*
X-5074329Y+2718046D01*
X-5073099Y+2719546D01*
X-5071566Y+2720776D01*
X-5069780Y+2721655D01*
X-5067741Y+2722182D01*
X-5065448Y+2722358D01*
X-5062391Y+2722031D01*
X-5059759Y+2721050D01*
X-5057601Y+2719464D01*
X-5055967Y+2717323D01*
X-5054904Y+2714691D01*
X-5054463Y+2711634D01*
X-5058255Y+2711242D01*
X-5058909Y+2714315D01*
X-5059530Y+2715508D01*
X-5060348Y+2716473D01*
X-5062506Y+2717748D01*
X-5065317Y+2718173D01*
X-5068293Y+2717797D01*
X-5070418Y+2716669D01*
X-5071693Y+2714953D01*
X-5072118Y+2712811D01*
X-5071824Y+2710849D01*
X-5070941Y+2709411D01*
X-5068848Y+2708201D01*
X-5065187Y+2706926D01*
X-5061427Y+2705814D01*
X-5059040Y+2704834D01*
X-5056637Y+2703297D01*
X-5054921Y+2701302D01*
X-5053891Y+2698850D01*
X-5053547Y+2695941D01*
X-5053907Y+2692965D01*
X-5054986Y+2690317D01*
X-5056686Y+2688110D01*
X-5058909Y+2686459D01*
X-5061656Y+2685429D01*
X-5064925Y+2685086D01*
X-5067533Y+2685294D01*
X-5069862Y+2685920D01*
X-5071914Y+2686962D01*
X-5073687Y+2688421D01*
X-5075126Y+2690231D01*
X-5076172Y+2692328D01*
X-5076826Y+2694710D01*
X-5077088Y+2697379D01*
X-5077088Y+2697379D01*
G37*
%TD.AperFunction*%
%TDTrueTypeText*%
%TATrueTypeText,3:+5V,12:Arial Narrow,203200,-13850620,6215380,20490,MIR_NONE,0*%
%TA.AperFunction,NonConductor*%
G36*
X-5430680Y+2425743D02*
X-5444231Y+2468389D01*
X-5439315Y+2468389D01*
X-5430148Y+2437434D01*
X-5428288Y+2430393D01*
X-5426428Y+2437434D01*
X-5416996Y+2468389D01*
X-5412346Y+2468389D01*
X-5426030Y+2425743D01*
X-5430680Y+2425743D01*
X-5430680Y+2425743D01*
G37*
%TD.AperFunction*%
%TA.AperFunction,NonConductor*%
G36*
X-5468012Y+2436903D02*
X-5463495Y+2437434D01*
X-5462648Y+2433847D01*
X-5461170Y+2431323D01*
X-5459194Y+2429828D01*
X-5456852Y+2429330D01*
X-5455378Y+2429504D01*
X-5454013Y+2430027D01*
X-5452755Y+2430899D01*
X-5451605Y+2432120D01*
X-5450645Y+2433648D01*
X-5449960Y+2435441D01*
X-5449412Y+2439825D01*
X-5449944Y+2443844D01*
X-5450608Y+2445480D01*
X-5451538Y+2446867D01*
X-5452676Y+2447971D01*
X-5453963Y+2448760D01*
X-5455399Y+2449233D01*
X-5456985Y+2449391D01*
X-5458812Y+2449125D01*
X-5460572Y+2448328D01*
X-5462100Y+2447033D01*
X-5463229Y+2445272D01*
X-5467348Y+2445937D01*
X-5463894Y+2467858D01*
X-5446490Y+2467858D01*
X-5446490Y+2462809D01*
X-5460439Y+2462809D01*
X-5462299Y+2451384D01*
X-5459144Y+2453377D01*
X-5457492Y+2453875D01*
X-5455789Y+2454041D01*
X-5453668Y+2453808D01*
X-5451688Y+2453111D01*
X-5449848Y+2451948D01*
X-5448150Y+2450321D01*
X-5446726Y+2448295D01*
X-5445709Y+2445937D01*
X-5445099Y+2443246D01*
X-5444895Y+2440224D01*
X-5445099Y+2437214D01*
X-5445709Y+2434428D01*
X-5446726Y+2431866D01*
X-5448150Y+2429529D01*
X-5449915Y+2427582D01*
X-5451953Y+2426191D01*
X-5454266Y+2425357D01*
X-5456852Y+2425078D01*
X-5459024Y+2425274D01*
X-5461021Y+2425859D01*
X-5462843Y+2426835D01*
X-5464491Y+2428201D01*
X-5465882Y+2429915D01*
X-5466933Y+2431937D01*
X-5467643Y+2434266D01*
X-5468012Y+2436903D01*
X-5468012Y+2436903D01*
G37*
%TD.AperFunction*%
%TA.AperFunction,NonConductor*%
G36*
X-5483290Y+2432651D02*
X-5483290Y+2444342D01*
X-5492856Y+2444342D01*
X-5492856Y+2449258D01*
X-5483290Y+2449258D01*
X-5483290Y+2460816D01*
X-5479305Y+2460816D01*
X-5479305Y+2449258D01*
X-5469739Y+2449258D01*
X-5469739Y+2444342D01*
X-5479305Y+2444342D01*
X-5479305Y+2432651D01*
X-5483290Y+2432651D01*
X-5483290Y+2432651D01*
G37*
%TD.AperFunction*%
%TDTrueTypeText*%
%TATrueTypeText,3:GND,12:Arial Narrow,203200,-13520420,6248400,20490,MIR_NONE,0*%
%TA.AperFunction,NonConductor*%
G36*
X-5353822Y+2455482D02*
X-5353822Y+2460531D01*
X-5338942Y+2460531D01*
X-5338942Y+2444721D01*
X-5342446Y+2441815D01*
X-5346050Y+2439739D01*
X-5349753Y+2438494D01*
X-5353556Y+2438078D01*
X-5356014Y+2438236D01*
X-5358339Y+2438709D01*
X-5360531Y+2439498D01*
X-5362590Y+2440603D01*
X-5364483Y+2442014D01*
X-5366177Y+2443725D01*
X-5368967Y+2448043D01*
X-5370014Y+2450625D01*
X-5370761Y+2453456D01*
X-5371359Y+2459867D01*
X-5370761Y+2466343D01*
X-5370014Y+2469258D01*
X-5368967Y+2471956D01*
X-5366227Y+2476457D01*
X-5364596Y+2478196D01*
X-5362790Y+2479596D01*
X-5360809Y+2480671D01*
X-5358654Y+2481439D01*
X-5353822Y+2482053D01*
X-5350218Y+2481705D01*
X-5347113Y+2480658D01*
X-5344505Y+2478965D01*
X-5342396Y+2476673D01*
X-5340769Y+2473567D01*
X-5339606Y+2469432D01*
X-5343725Y+2468104D01*
X-5344638Y+2471242D01*
X-5345784Y+2473484D01*
X-5347262Y+2475079D01*
X-5349172Y+2476274D01*
X-5351430Y+2477022D01*
X-5353955Y+2477271D01*
X-5357442Y+2476806D01*
X-5360465Y+2475411D01*
X-5362972Y+2473053D01*
X-5364915Y+2469698D01*
X-5366161Y+2465380D01*
X-5366576Y+2460132D01*
X-5366352Y+2456147D01*
X-5365679Y+2452692D01*
X-5364558Y+2449770D01*
X-5362989Y+2447378D01*
X-5361062Y+2445518D01*
X-5358870Y+2444190D01*
X-5356413Y+2443393D01*
X-5353689Y+2443127D01*
X-5350882Y+2443459D01*
X-5348043Y+2444455D01*
X-5345502Y+2445884D01*
X-5343592Y+2447511D01*
X-5343592Y+2455482D01*
X-5353822Y+2455482D01*
X-5353822Y+2455482D01*
G37*
%TD.AperFunction*%
%TA.AperFunction,NonConductor*%
G36*
X-5336418Y+2438743D02*
X-5336418Y+2481389D01*
X-5331635Y+2481389D01*
X-5313301Y+2447777D01*
X-5313301Y+2481389D01*
X-5308784Y+2481389D01*
X-5308784Y+2438743D01*
X-5313567Y+2438743D01*
X-5331901Y+2472222D01*
X-5331901Y+2438743D01*
X-5336418Y+2438743D01*
X-5336418Y+2438743D01*
G37*
%TD.AperFunction*%
%TA.AperFunction,NonConductor*%
G36*
X-5302274Y+2438743D02*
X-5302274Y+2481389D01*
X-5290317Y+2481389D01*
X-5286332Y+2481190D01*
X-5283409Y+2480592D01*
X-5280569Y+2479114D01*
X-5278161Y+2476806D01*
X-5276201Y+2473750D01*
X-5274707Y+2470030D01*
X-5273760Y+2465563D01*
X-5273445Y+2460265D01*
X-5273976Y+2453622D01*
X-5275570Y+2448043D01*
X-5277995Y+2443725D01*
X-5279431Y+2442114D01*
X-5281017Y+2440868D01*
X-5282803Y+2439938D01*
X-5284837Y+2439274D01*
X-5289653Y+2438743D01*
X-5302274Y+2438743D01*
X-5302274Y+2438743D01*
G37*
%LPC*%
G36*
X-5297757Y+2443791D02*
X-5290317Y+2443791D01*
X-5286348Y+2444157D01*
X-5283475Y+2445253D01*
X-5281399Y+2447146D01*
X-5279822Y+2449903D01*
X-5278626Y+2454719D01*
X-5278227Y+2460398D01*
X-5278659Y+2466111D01*
X-5279954Y+2470495D01*
X-5281947Y+2473617D01*
X-5284472Y+2475544D01*
X-5286896Y+2476141D01*
X-5290450Y+2476341D01*
X-5297757Y+2476341D01*
X-5297757Y+2443791D01*
X-5297757Y+2443791D01*
G37*
%LPD*%
%TD.AperFunction*%
%TDTrueTypeText*%
%TATrueTypeText,4:VBAT,12:Arial Narrow,177800,-14300200,9994900,20490,MIR_NONE,900*%
%TA.AperFunction,NonConductor*%
G36*
X-5613260Y+3935000D02*
X-5649224Y+3946247D01*
X-5649224Y+3950431D01*
X-5613260Y+3962594D01*
X-5613260Y+3958017D01*
X-5624114Y+3954616D01*
X-5624114Y+3942323D01*
X-5613260Y+3939054D01*
X-5613260Y+3935000D01*
X-5613260Y+3935000D01*
G37*
%LPC*%
G36*
X-5628038Y+3943500D02*
X-5628038Y+3953439D01*
X-5637977Y+3950431D01*
X-5645431Y+3948339D01*
X-5638631Y+3946639D01*
X-5628038Y+3943500D01*
X-5628038Y+3943500D01*
G37*
%LPD*%
%TD.AperFunction*%
%TA.AperFunction,NonConductor*%
G36*
X-5613260Y+3896420D02*
X-5649224Y+3885042D01*
X-5649224Y+3889227D01*
X-5623068Y+3896812D01*
X-5617183Y+3898381D01*
X-5623068Y+3899951D01*
X-5649224Y+3907928D01*
X-5649224Y+3911982D01*
X-5613260Y+3900343D01*
X-5613260Y+3896420D01*
X-5613260Y+3896420D01*
G37*
%TD.AperFunction*%
%TA.AperFunction,NonConductor*%
G36*
X-5613260Y+3970833D02*
X-5644908Y+3970833D01*
X-5644908Y+3961155D01*
X-5649224Y+3961155D01*
X-5649224Y+3984565D01*
X-5644908Y+3984565D01*
X-5644908Y+3974756D01*
X-5613260Y+3974756D01*
X-5613260Y+3970833D01*
X-5613260Y+3970833D01*
G37*
%TD.AperFunction*%
%TA.AperFunction,NonConductor*%
G36*
X-5613260Y+3912898D02*
X-5649224Y+3912898D01*
X-5649224Y+3924014D01*
X-5648178Y+3929376D01*
X-5644908Y+3932580D01*
X-5640069Y+3933822D01*
X-5635623Y+3932711D01*
X-5632354Y+3929638D01*
X-5631111Y+3931975D01*
X-5629215Y+3933757D01*
X-5626730Y+3934885D01*
X-5623722Y+3935261D01*
X-5620649Y+3934918D01*
X-5617968Y+3933888D01*
X-5615826Y+3932302D01*
X-5614371Y+3930291D01*
X-5613260Y+3924145D01*
X-5613260Y+3912898D01*
X-5613260Y+3912898D01*
G37*
%LPC*%
G36*
X-5617445Y+3916821D02*
X-5617445Y+3924145D01*
X-5617968Y+3927807D01*
X-5620060Y+3930291D01*
X-5623722Y+3931207D01*
X-5627122Y+3930357D01*
X-5629215Y+3928068D01*
X-5629869Y+3923622D01*
X-5629869Y+3916821D01*
X-5617445Y+3916821D01*
X-5617445Y+3916821D01*
G37*
G36*
X-5634054Y+3916821D02*
X-5634054Y+3923229D01*
X-5634446Y+3926760D01*
X-5636212Y+3929114D01*
X-5639416Y+3929899D01*
X-5642685Y+3929180D01*
X-5644451Y+3927218D01*
X-5644908Y+3922706D01*
X-5644908Y+3916821D01*
X-5634054Y+3916821D01*
X-5634054Y+3916821D01*
G37*
%LPD*%
%TD.AperFunction*%
%TDTrueTypeText*%
%TATrueTypeText,2:RX,12:Arial Narrow,203200,-11920519,7069739,20490,MIR_NONE,0*%
%TA.AperFunction,NonConductor*%
G36*
X-4723408Y+2762105D02*
X-4723408Y+2804751D01*
X-4707864Y+2804751D01*
X-4703696Y+2804452D01*
X-4700757Y+2803555D01*
X-4698648Y+2801961D01*
X-4696970Y+2799570D01*
X-4695874Y+2796547D01*
X-4695509Y+2793060D01*
X-4695663Y+2790781D01*
X-4696123Y+2788726D01*
X-4696891Y+2786895D01*
X-4697967Y+2785288D01*
X-4699341Y+2783930D01*
X-4701006Y+2782847D01*
X-4702961Y+2782037D01*
X-4705207Y+2781502D01*
X-4702284Y+2779110D01*
X-4700391Y+2776553D01*
X-4698697Y+2773663D01*
X-4692586Y+2762105D01*
X-4698432Y+2762105D01*
X-4703082Y+2771006D01*
X-4707134Y+2777981D01*
X-4708495Y+2779475D01*
X-4709791Y+2780372D01*
X-4711335Y+2780821D01*
X-4713444Y+2780970D01*
X-4718759Y+2780970D01*
X-4718759Y+2762105D01*
X-4723408Y+2762105D01*
X-4723408Y+2762105D01*
G37*
%LPC*%
G36*
X-4718759Y+2785886D02*
X-4708794Y+2785886D01*
X-4705971Y+2786085D01*
X-4703879Y+2786683D01*
X-4702334Y+2787696D01*
X-4701155Y+2789141D01*
X-4700408Y+2790951D01*
X-4700159Y+2793060D01*
X-4700640Y+2795916D01*
X-4702085Y+2798108D01*
X-4704460Y+2799503D01*
X-4707732Y+2799968D01*
X-4718759Y+2799968D01*
X-4718759Y+2785886D01*
X-4718759Y+2785886D01*
G37*
%LPD*%
%TD.AperFunction*%
%TA.AperFunction,NonConductor*%
G36*
X-4692852Y+2762105D02*
X-4679433Y+2784291D01*
X-4691258Y+2804751D01*
X-4685810Y+2804751D01*
X-4679433Y+2793857D01*
X-4676643Y+2788543D01*
X-4673854Y+2793458D01*
X-4666812Y+2804751D01*
X-4661764Y+2804751D01*
X-4674119Y+2784690D01*
X-4660834Y+2762105D01*
X-4666546Y+2762105D01*
X-4675315Y+2777250D01*
X-4676909Y+2780173D01*
X-4678503Y+2776984D01*
X-4687272Y+2762105D01*
X-4692852Y+2762105D01*
X-4692852Y+2762105D01*
G37*
%TD.AperFunction*%
%TDTrueTypeText*%
%TATrueTypeText,2:TX,12:Arial Narrow,203200,-11893199,7355199,20490,MIR_NONE,0*%
%TA.AperFunction,NonConductor*%
G36*
X-4682096Y+2874491D02*
X-4668677Y+2896677D01*
X-4680502Y+2917137D01*
X-4675054Y+2917137D01*
X-4668677Y+2906243D01*
X-4665887Y+2900929D01*
X-4663098Y+2905844D01*
X-4656056Y+2917137D01*
X-4651008Y+2917137D01*
X-4663363Y+2897076D01*
X-4650078Y+2874491D01*
X-4655790Y+2874491D01*
X-4664559Y+2889636D01*
X-4666153Y+2892559D01*
X-4667747Y+2889370D01*
X-4676516Y+2874491D01*
X-4682096Y+2874491D01*
X-4682096Y+2874491D01*
G37*
%TD.AperFunction*%
%TA.AperFunction,NonConductor*%
G36*
X-4703618Y+2874491D02*
X-4703618Y+2912089D01*
X-4715177Y+2912089D01*
X-4715177Y+2917137D01*
X-4687410Y+2917137D01*
X-4687410Y+2912089D01*
X-4698968Y+2912089D01*
X-4698968Y+2874491D01*
X-4703618Y+2874491D01*
X-4703618Y+2874491D01*
G37*
%TD.AperFunction*%
%TDTrueTypeText*%
%TATrueTypeText,4:VBUS,12:Arial Narrow,177800,-14135100,9766300,20490,MIR_NONE,0*%
%TA.AperFunction,NonConductor*%
G36*
X-5607764Y+3828260D02*
X-5619142Y+3864224D01*
X-5614957Y+3864224D01*
X-5607372Y+3838068D01*
X-5605803Y+3832183D01*
X-5604233Y+3838068D01*
X-5596256Y+3864224D01*
X-5592202Y+3864224D01*
X-5603841Y+3828260D01*
X-5607764Y+3828260D01*
X-5607764Y+3828260D01*
G37*
%TD.AperFunction*%
%TA.AperFunction,NonConductor*%
G36*
X-5591286Y+3828260D02*
X-5591286Y+3864224D01*
X-5580170Y+3864224D01*
X-5577129Y+3863962D01*
X-5574808Y+3863178D01*
X-5573026Y+3861837D01*
X-5571604Y+3859908D01*
X-5570672Y+3857587D01*
X-5570361Y+3855069D01*
X-5570639Y+3852715D01*
X-5571473Y+3850623D01*
X-5572797Y+3848825D01*
X-5574546Y+3847354D01*
X-5572209Y+3846111D01*
X-5570427Y+3844215D01*
X-5569299Y+3841730D01*
X-5568923Y+3838722D01*
X-5569266Y+3835649D01*
X-5570296Y+3832968D01*
X-5571882Y+3830826D01*
X-5573892Y+3829371D01*
X-5576541Y+3828538D01*
X-5580039Y+3828260D01*
X-5591286Y+3828260D01*
X-5591286Y+3828260D01*
G37*
%LPC*%
G36*
X-5587363Y+3832445D02*
X-5580039Y+3832445D01*
X-5577881Y+3832575D01*
X-5576377Y+3832968D01*
X-5574971Y+3833818D01*
X-5573892Y+3835060D01*
X-5573206Y+3836695D01*
X-5572977Y+3838722D01*
X-5573190Y+3840553D01*
X-5573827Y+3842122D01*
X-5574824Y+3843365D01*
X-5576116Y+3844215D01*
X-5577947Y+3844705D01*
X-5580562Y+3844869D01*
X-5587363Y+3844869D01*
X-5587363Y+3832445D01*
X-5587363Y+3832445D01*
G37*
G36*
X-5587363Y+3849054D02*
X-5580955Y+3849054D01*
X-5577424Y+3849446D01*
X-5576050Y+3850149D01*
X-5575069Y+3851212D01*
X-5574481Y+3852634D01*
X-5574285Y+3854416D01*
X-5574465Y+3856214D01*
X-5575004Y+3857685D01*
X-5575854Y+3858780D01*
X-5576966Y+3859451D01*
X-5578715Y+3859794D01*
X-5581478Y+3859908D01*
X-5587363Y+3859908D01*
X-5587363Y+3849054D01*
X-5587363Y+3849054D01*
G37*
%LPD*%
%TD.AperFunction*%
%TA.AperFunction,NonConductor*%
G36*
X-5546690Y+3864224D02*
X-5542767Y+3864224D01*
X-5542767Y+3843430D01*
X-5543029Y+3838673D01*
X-5543813Y+3834864D01*
X-5545268Y+3831873D01*
X-5547540Y+3829568D01*
X-5548975Y+3828709D01*
X-5550597Y+3828096D01*
X-5554406Y+3827606D01*
X-5557108Y+3827827D01*
X-5559458Y+3828489D01*
X-5561456Y+3829592D01*
X-5563103Y+3831137D01*
X-5564391Y+3833229D01*
X-5565310Y+3835976D01*
X-5565862Y+3839376D01*
X-5566046Y+3843430D01*
X-5566046Y+3864224D01*
X-5562122Y+3864224D01*
X-5562122Y+3843430D01*
X-5561926Y+3839262D01*
X-5561338Y+3836433D01*
X-5560324Y+3834521D01*
X-5558853Y+3833099D01*
X-5556957Y+3832216D01*
X-5554668Y+3831922D01*
X-5552719Y+3832069D01*
X-5551055Y+3832510D01*
X-5549678Y+3833246D01*
X-5548587Y+3834276D01*
X-5547757Y+3835731D01*
X-5547164Y+3837741D01*
X-5546809Y+3840308D01*
X-5546690Y+3843430D01*
X-5546690Y+3864224D01*
X-5546690Y+3864224D01*
G37*
%TD.AperFunction*%
%TA.AperFunction,NonConductor*%
G36*
X-5533874Y+3839899D02*
X-5530212Y+3840291D01*
X-5529656Y+3837627D01*
X-5528774Y+3835649D01*
X-5527515Y+3834161D01*
X-5525831Y+3832968D01*
X-5523788Y+3832183D01*
X-5521450Y+3831922D01*
X-5518409Y+3832347D01*
X-5516088Y+3833622D01*
X-5514617Y+3835583D01*
X-5514126Y+3838068D01*
X-5514306Y+3839539D01*
X-5514846Y+3840815D01*
X-5515728Y+3841893D01*
X-5516938Y+3842776D01*
X-5519145Y+3843692D01*
X-5523019Y+3844869D01*
X-5526599Y+3846160D01*
X-5528970Y+3847419D01*
X-5530539Y+3848825D01*
X-5531716Y+3850558D01*
X-5532452Y+3852601D01*
X-5532697Y+3854939D01*
X-5532521Y+3857003D01*
X-5531994Y+3858878D01*
X-5531115Y+3860566D01*
X-5529885Y+3862066D01*
X-5528353Y+3863296D01*
X-5526567Y+3864175D01*
X-5524527Y+3864702D01*
X-5522235Y+3864878D01*
X-5519178Y+3864551D01*
X-5516546Y+3863570D01*
X-5514388Y+3861984D01*
X-5512753Y+3859843D01*
X-5511691Y+3857211D01*
X-5511249Y+3854154D01*
X-5515042Y+3853762D01*
X-5515696Y+3856835D01*
X-5516317Y+3858028D01*
X-5517134Y+3858993D01*
X-5519292Y+3860268D01*
X-5522104Y+3860693D01*
X-5525079Y+3860317D01*
X-5527204Y+3859189D01*
X-5528479Y+3857473D01*
X-5528904Y+3855331D01*
X-5528610Y+3853369D01*
X-5527727Y+3851931D01*
X-5525635Y+3850721D01*
X-5521973Y+3849446D01*
X-5518213Y+3848334D01*
X-5515827Y+3847354D01*
X-5513423Y+3845817D01*
X-5511707Y+3843822D01*
X-5510677Y+3841370D01*
X-5510334Y+3838461D01*
X-5510693Y+3835485D01*
X-5511772Y+3832837D01*
X-5513473Y+3830630D01*
X-5515696Y+3828979D01*
X-5518442Y+3827949D01*
X-5521712Y+3827606D01*
X-5524319Y+3827814D01*
X-5526649Y+3828440D01*
X-5528700Y+3829482D01*
X-5530474Y+3830941D01*
X-5531912Y+3832751D01*
X-5532959Y+3834848D01*
X-5533612Y+3837230D01*
X-5533874Y+3839899D01*
X-5533874Y+3839899D01*
G37*
%TD.AperFunction*%
%TDTrueTypeText*%
%TATrueTypeText,3:OUT,12:Arial Narrow,203200,-15440660,7744460,20490,MIR_NONE,0*%
%TA.AperFunction,NonConductor*%
G36*
X-6127492Y+3048468D02*
X-6127193Y+3053600D01*
X-6126296Y+3058100D01*
X-6124801Y+3061969D01*
X-6122709Y+3065208D01*
X-6120168Y+3067765D01*
X-6117328Y+3069592D01*
X-6114189Y+3070688D01*
X-6110752Y+3071053D01*
X-6108535Y+3070892D01*
X-6106401Y+3070406D01*
X-6102382Y+3068463D01*
X-6100559Y+3067018D01*
X-6098944Y+3065274D01*
X-6097537Y+3063232D01*
X-6096337Y+3060890D01*
X-6095378Y+3058279D01*
X-6094693Y+3055426D01*
X-6094145Y+3049000D01*
X-6094411Y+3044499D01*
X-6095208Y+3040430D01*
X-6096536Y+3036793D01*
X-6098396Y+3033588D01*
X-6100970Y+3030740D01*
X-6103910Y+3028706D01*
X-6107215Y+3027485D01*
X-6110885Y+3027078D01*
X-6114547Y+3027494D01*
X-6117826Y+3028739D01*
X-6120724Y+3030815D01*
X-6123240Y+3033721D01*
X-6125100Y+3036935D01*
X-6126429Y+3040464D01*
X-6127226Y+3044308D01*
X-6127492Y+3048468D01*
X-6127492Y+3048468D01*
G37*
%LPC*%
G36*
X-6122842Y+3048468D02*
X-6122622Y+3044711D01*
X-6121962Y+3041410D01*
X-6120861Y+3038566D01*
X-6119321Y+3036179D01*
X-6117473Y+3034290D01*
X-6115452Y+3032941D01*
X-6113255Y+3032131D01*
X-6110885Y+3031861D01*
X-6108460Y+3032135D01*
X-6106235Y+3032957D01*
X-6104209Y+3034327D01*
X-6102382Y+3036245D01*
X-6100871Y+3038695D01*
X-6099791Y+3041659D01*
X-6099144Y+3045138D01*
X-6098928Y+3049132D01*
X-6099360Y+3054314D01*
X-6100655Y+3058964D01*
X-6102349Y+3061953D01*
X-6104773Y+3064278D01*
X-6107663Y+3065772D01*
X-6110752Y+3066271D01*
X-6113289Y+3065997D01*
X-6115584Y+3065175D01*
X-6117640Y+3063805D01*
X-6119454Y+3061886D01*
X-6120936Y+3059404D01*
X-6121995Y+3056340D01*
X-6122630Y+3052695D01*
X-6122842Y+3048468D01*
X-6122842Y+3048468D01*
G37*
%LPD*%
%TD.AperFunction*%
%TA.AperFunction,NonConductor*%
G36*
X-6069434Y+3070389D02*
X-6064784Y+3070389D01*
X-6064784Y+3045678D01*
X-6065083Y+3040098D01*
X-6065980Y+3035581D01*
X-6067674Y+3032027D01*
X-6070364Y+3029337D01*
X-6072066Y+3028349D01*
X-6073984Y+3027643D01*
X-6078468Y+3027078D01*
X-6081706Y+3027336D01*
X-6084513Y+3028108D01*
X-6086888Y+3029395D01*
X-6088831Y+3031197D01*
X-6090342Y+3033646D01*
X-6091421Y+3036876D01*
X-6092069Y+3040887D01*
X-6092285Y+3045678D01*
X-6092285Y+3070389D01*
X-6087635Y+3070389D01*
X-6087635Y+3045811D01*
X-6087403Y+3040779D01*
X-6086705Y+3037375D01*
X-6085509Y+3035100D01*
X-6083782Y+3033455D01*
X-6081524Y+3032459D01*
X-6078734Y+3032127D01*
X-6076446Y+3032301D01*
X-6074499Y+3032824D01*
X-6072892Y+3033696D01*
X-6071626Y+3034917D01*
X-6070667Y+3036644D01*
X-6069982Y+3039035D01*
X-6069434Y+3045811D01*
X-6069434Y+3070389D01*
X-6069434Y+3070389D01*
G37*
%TD.AperFunction*%
%TA.AperFunction,NonConductor*%
G36*
X-6049240Y+3027743D02*
X-6049240Y+3065341D01*
X-6060798Y+3065341D01*
X-6060798Y+3070389D01*
X-6033032Y+3070389D01*
X-6033032Y+3065341D01*
X-6044590Y+3065341D01*
X-6044590Y+3027743D01*
X-6049240Y+3027743D01*
X-6049240Y+3027743D01*
G37*
%TD.AperFunction*%
%TDTrueTypeText*%
D49*
X-6089548Y+3272881D02*
X-6096074Y+3261744D01*
X-6103891Y+3255935D01*
X-6112274Y+3253820D01*
X-6116523Y+3253924D01*
X-6121489Y+3255054D01*
X-6125894Y+3256670D01*
X-6134510Y+3262182D01*
X-6142491Y+3270202D01*
X-6149185Y+3280061D01*
X-6150573Y+3282180D01*
X-6154340Y+3287583D01*
X-6156962Y+3294665D01*
X-6157546Y+3302200D01*
X-6157653Y+3304001D01*
X-6158322Y+3316656D01*
X-6158073Y+3319452D01*
X-6154965Y+3330775D01*
X-6152615Y+3334646D01*
X-6153038Y+3333491D01*
X-6154724Y+3329166D01*
X-6155535Y+3326168D01*
X-6155992Y+3311257D01*
X-6155787Y+3310397D01*
X-6152135Y+3317049D01*
X-6146771Y+3322487D01*
X-6140989Y+3325884D01*
X-6134612Y+3327773D01*
X-6132909Y+3327842D01*
X-6129564Y+3326909D01*
X-6121820Y+3321733D01*
X-6114030Y+3311109D01*
X-6109500Y+3297564D01*
X-6109578Y+3287228D01*
X-6113195Y+3279119D01*
X-6115132Y+3277329D01*
X-6121969Y+3274180D01*
X-6129435Y+3272986D01*
X-6137443Y+3274015D01*
X-6135800Y+3271591D01*
X-6128339Y+3266308D01*
X-6121004Y+3263497D01*
X-6116148Y+3263106D01*
X-6112876Y+3263727D01*
X-6110873Y+3264578D01*
X-6108049Y+3266517D01*
X-6104639Y+3271357D01*
X-6103102Y+3276087D01*
X-6102269Y+3284157D01*
X-6103918Y+3296168D01*
X-6108306Y+3308304D01*
X-6110663Y+3312766D01*
X-6111472Y+3314522D01*
X-6110123Y+3316002D01*
X-6107647Y+3317794D01*
X-6107277Y+3318046D01*
X-6106817Y+3318331D01*
X-6106365Y+3318589D01*
X-6105746Y+3317637D01*
X-6104791Y+3316235D01*
X-6103500Y+3314275D01*
X-6102452Y+3312506D01*
X-6100319Y+3308331D01*
X-6100050Y+3307649D01*
X-6099745Y+3306883D01*
X-6099590Y+3306526D01*
X-6099519Y+3306296D01*
X-6099331Y+3305907D01*
X-6099201Y+3305657D01*
X-6099131Y+3305582D01*
X-6098985Y+3305574D01*
X-6098956Y+3305668D01*
X-6099039Y+3306193D01*
X-6099176Y+3306731D01*
X-6099233Y+3306906D01*
X-6099418Y+3307529D01*
X-6100015Y+3309370D01*
X-6101032Y+3312309D01*
X-6101639Y+3314356D01*
X-6101713Y+3315500D01*
X-6101627Y+3316445D01*
X-6101572Y+3317667D01*
X-6101536Y+3318585D01*
X-6101451Y+3318697D01*
X-6100044Y+3316956D01*
X-6099714Y+3316539D01*
X-6099586Y+3316978D01*
X-6101499Y+3321309D01*
X-6099052Y+3322556D01*
X-6095589Y+3323577D01*
X-6093850Y+3320262D01*
X-6087815Y+3301037D01*
X-6086812Y+3288729D01*
X-6088139Y+3277556D01*
X-6089548Y+3272881D01*
X-6089548Y+3272881D01*
X-6055578Y+3564697D02*
X-6056154Y+3565916D01*
X-6056876Y+3566302D01*
X-6057679Y+3566370D01*
X-6059082Y+3565069D01*
X-6062657Y+3553565D01*
X-6066070Y+3542406D01*
X-6068985Y+3543296D01*
X-6071900Y+3544188D01*
X-6067687Y+3557965D01*
X-6063312Y+3572077D01*
X-6058841Y+3574797D01*
X-6054307Y+3573544D01*
X-6050232Y+3572298D01*
X-6049840Y+3572043D01*
X-6048615Y+3570733D01*
X-6048380Y+3566483D01*
X-6048514Y+3565554D01*
X-6048271Y+3565630D01*
X-6026029Y+3576261D01*
X-6027401Y+3571590D01*
X-6028825Y+3566934D01*
X-6051414Y+3555956D01*
X-6054251Y+3546701D01*
X-6044751Y+3543797D01*
X-6046962Y+3536563D01*
X-6062507Y+3541316D01*
X-6059010Y+3552805D01*
X-6055578Y+3564697D01*
X-6055512Y+3564295D02*
X-6055512Y+3564295D01*
X-6069547Y+3460469D02*
X-6074961Y+3456213D01*
X-6076061Y+3455969D01*
X-6087985Y+3455163D01*
X-6099369Y+3454440D01*
X-6098160Y+3458443D01*
X-6096922Y+3462461D01*
X-6088087Y+3463026D01*
X-6078769Y+3463659D01*
X-6077909Y+3464339D01*
X-6080134Y+3466580D01*
X-6087417Y+3471333D01*
X-6093076Y+3475024D01*
X-6091706Y+3479502D01*
X-6090337Y+3483981D01*
X-6081673Y+3483651D01*
X-6072015Y+3483635D01*
X-6072278Y+3485422D01*
X-6079440Y+3490858D01*
X-6086522Y+3496218D01*
X-6085351Y+3500386D01*
X-6084014Y+3504422D01*
X-6074865Y+3497423D01*
X-6064574Y+3489422D01*
X-6062448Y+3484960D01*
X-6064216Y+3479067D01*
X-6066570Y+3476988D01*
X-6069764Y+3476174D01*
X-6076044Y+3476246D01*
X-6081848Y+3476278D01*
X-6077002Y+3472976D01*
X-6071711Y+3469314D01*
X-6069380Y+3466310D01*
X-6068894Y+3462820D01*
X-6069547Y+3460469D01*
X-6069547Y+3460469D01*
X-6097261Y+3372244D02*
X-6100550Y+3368417D01*
X-6103875Y+3367219D01*
X-6106026Y+3367122D01*
X-6111966Y+3368831D01*
X-6118589Y+3371191D01*
X-6121250Y+3374292D01*
X-6122343Y+3378006D01*
X-6119251Y+3389309D01*
X-6115968Y+3399660D01*
X-6111650Y+3403748D01*
X-6106722Y+3404323D01*
X-6101173Y+3402686D01*
X-6094779Y+3400435D01*
X-6093138Y+3398930D01*
X-6091108Y+3394504D01*
X-6091068Y+3392501D01*
X-6097261Y+3372244D01*
X-6097261Y+3372244D01*
X-6056299Y+3506229D02*
X-6059603Y+3502404D01*
X-6064749Y+3501117D01*
X-6065376Y+3501143D01*
X-6071017Y+3502867D01*
X-6076657Y+3504592D01*
X-6077093Y+3504857D01*
X-6080243Y+3508184D01*
X-6081391Y+3512600D01*
X-6081383Y+3513061D01*
X-6078339Y+3523076D01*
X-6075061Y+3533554D01*
X-6072304Y+3536816D01*
X-6069725Y+3538151D01*
X-6065553Y+3538292D01*
X-6054951Y+3535050D01*
X-6051325Y+3531754D01*
X-6050092Y+3526526D01*
X-6056299Y+3506229D01*
X-6057597Y+3525384D02*
X-6058517Y+3527923D01*
X-6062899Y+3529618D01*
X-6066558Y+3530581D01*
X-6070233Y+3527831D01*
X-6072230Y+3521447D01*
X-6074005Y+3515585D01*
X-6073980Y+3515165D01*
X-6072348Y+3511432D01*
X-6069480Y+3510406D01*
X-6064431Y+3509440D01*
X-6062458Y+3510393D01*
X-6059663Y+3518254D01*
X-6057597Y+3525384D01*
X-6056299Y+3506230D02*
X-6056299Y+3506230D01*
X-6057597Y+3525384D02*
X-6057597Y+3525384D01*
X-6024522Y+3632876D02*
X-6025730Y+3634391D01*
X-6026880Y+3634344D01*
X-6027827Y+3633562D01*
X-6028048Y+3633275D01*
X-6033864Y+3614454D01*
X-6034097Y+3614110D01*
X-6035689Y+3612580D01*
X-6037355Y+3611956D01*
X-6042491Y+3613167D01*
X-6046874Y+3614570D01*
X-6048565Y+3616439D01*
X-6049056Y+3618450D01*
X-6044991Y+3632154D01*
X-6040926Y+3645505D01*
X-6034988Y+3643690D01*
X-6041586Y+3622009D01*
X-6041514Y+3621709D01*
X-6040906Y+3620796D01*
X-6039611Y+3620403D01*
X-6038310Y+3621081D01*
X-6038070Y+3621347D01*
X-6035119Y+3630892D01*
X-6031962Y+3640786D01*
X-6030283Y+3642489D01*
X-6027312Y+3642817D01*
X-6018968Y+3640264D01*
X-6016831Y+3638379D01*
X-6016460Y+3636697D01*
X-6021113Y+3621165D01*
X-6025755Y+3605925D01*
X-6031963Y+3607823D01*
X-6028210Y+3620148D01*
X-6024522Y+3632876D01*
X-6024457Y+3632472D02*
X-6024457Y+3632472D01*
X-6108483Y+3408708D02*
X-6110657Y+3411076D01*
X-6111633Y+3414424D01*
X-6111401Y+3416793D01*
X-6109212Y+3420147D01*
X-6104622Y+3422216D01*
X-6096252Y+3424052D01*
X-6088742Y+3425648D01*
X-6093471Y+3430659D01*
X-6099117Y+3436630D01*
X-6101972Y+3440291D01*
X-6102536Y+3441469D01*
X-6102853Y+3444400D01*
X-6102046Y+3447061D01*
X-6099227Y+3449937D01*
X-6095349Y+3450888D01*
X-6094791Y+3450877D01*
X-6075053Y+3444874D01*
X-6077265Y+3437639D01*
X-6085048Y+3440018D01*
X-6093095Y+3442357D01*
X-6093846Y+3440874D01*
X-6087122Y+3433890D01*
X-6080495Y+3427087D01*
X-6082588Y+3420231D01*
X-6091743Y+3418220D01*
X-6101261Y+3416152D01*
X-6102266Y+3415527D01*
X-6102046Y+3414491D01*
X-6101824Y+3414278D01*
X-6085896Y+3409408D01*
X-6088076Y+3402280D01*
X-6098044Y+3405344D01*
X-6108483Y+3408708D01*
X-6060464Y+3581594D02*
X-6058302Y+3588666D01*
X-6033418Y+3581058D01*
X-6035580Y+3573987D01*
X-6060464Y+3581594D01*
X-6048022Y+3577791D02*
X-6048022Y+3577791D01*
X-6052931Y+3606221D02*
X-6051430Y+3610997D01*
X-6047533Y+3602074D01*
X-6043634Y+3593168D01*
X-6034919Y+3599017D01*
X-6026191Y+3604868D01*
X-6027748Y+3599619D01*
X-6029358Y+3594366D01*
X-6042697Y+3585552D01*
X-6048518Y+3587356D01*
X-6054393Y+3601430D01*
X-6052931Y+3606221D01*
%TATrueTypeText,15:SuperSense V5.3,12:Default Font,152400,-15334472,8783660,4106,MIR_NONE,730,1:B*%
%TA.AperFunction,NonConductor*%
G36*
X-6074710Y+3320853D02*
X-6073771Y+3325841D01*
X-6068994Y+3326227D01*
X-6066484Y+3329357D01*
X-6066598Y+3333201D01*
X-6069115Y+3335319D01*
X-6070908Y+3335398D01*
X-6072497Y+3334419D01*
X-6075378Y+3330552D01*
X-6078754Y+3326603D01*
X-6082353Y+3325183D01*
X-6086528Y+3325522D01*
X-6090489Y+3327905D01*
X-6092519Y+3331807D01*
X-6092062Y+3336943D01*
X-6087688Y+3342814D01*
X-6080272Y+3343302D01*
X-6081532Y+3338412D01*
X-6085282Y+3338034D01*
X-6087197Y+3335221D01*
X-6087257Y+3331957D01*
X-6085548Y+3330262D01*
X-6083216Y+3330604D01*
X-6080017Y+3334549D01*
X-6076144Y+3339168D01*
X-6072372Y+3340769D01*
X-6067608Y+3340250D01*
X-6061843Y+3335909D01*
X-6061478Y+3327709D01*
X-6066146Y+3321547D01*
X-6074710Y+3320853D01*
X-6074710Y+3320853D01*
G37*
%TD.AperFunction*%
%TA.AperFunction,NonConductor*%
G36*
X-6054869Y+3351242D02*
X-6058085Y+3352226D01*
X-6056122Y+3348871D01*
X-6056103Y+3345290D01*
X-6057965Y+3342460D01*
X-6061160Y+3341209D01*
X-6066234Y+3342057D01*
X-6079741Y+3346187D01*
X-6078332Y+3350797D01*
X-6068577Y+3347814D01*
X-6063098Y+3346373D01*
X-6061104Y+3346760D01*
X-6059974Y+3348349D01*
X-6060122Y+3350739D01*
X-6061820Y+3352664D01*
X-6067296Y+3354690D01*
X-6076300Y+3357443D01*
X-6074891Y+3362052D01*
X-6053558Y+3355530D01*
X-6054869Y+3351242D01*
X-6054869Y+3351242D01*
G37*
%TD.AperFunction*%
%TA.AperFunction,NonConductor*%
G36*
X-6073482Y+3366662D02*
X-6072138Y+3371057D01*
X-6069029Y+3370107D01*
X-6071005Y+3373231D01*
X-6071002Y+3376688D01*
X-6066551Y+3380895D01*
X-6057732Y+3380602D01*
X-6049989Y+3375831D01*
X-6048631Y+3369731D01*
X-6050114Y+3367371D01*
X-6053280Y+3365643D01*
X-6042560Y+3362366D01*
X-6044002Y+3357649D01*
X-6073482Y+3366662D01*
X-6073482Y+3366662D01*
G37*
%LPC*%
G36*
X-6061781Y+3368125D02*
X-6056061Y+3367666D01*
X-6053461Y+3370036D01*
X-6054266Y+3373154D01*
X-6059067Y+3375852D01*
X-6064450Y+3376267D01*
X-6066893Y+3374025D01*
X-6066208Y+3370709D01*
X-6061781Y+3368125D01*
X-6061781Y+3368125D01*
G37*
%LPD*%
%TD.AperFunction*%
%TA.AperFunction,NonConductor*%
G36*
X-6049464Y+3393078D02*
X-6047090Y+3397392D01*
X-6043188Y+3393093D01*
X-6043092Y+3387848D01*
X-6047607Y+3382664D01*
X-6056723Y+3382755D01*
X-6064512Y+3387949D01*
X-6065628Y+3394269D01*
X-6061038Y+3399312D01*
X-6050851Y+3398894D01*
X-6050207Y+3398697D01*
X-6053780Y+3387013D01*
X-6049560Y+3387012D01*
X-6047347Y+3389266D01*
X-6049464Y+3393078D01*
X-6049464Y+3393078D01*
G37*
%LPC*%
G36*
X-6055154Y+3395169D02*
X-6059234Y+3395244D01*
X-6061241Y+3393279D01*
X-6060602Y+3390388D01*
X-6057285Y+3388201D01*
X-6055154Y+3395169D01*
X-6055154Y+3395169D01*
G37*
%LPD*%
%TD.AperFunction*%
%TA.AperFunction,NonConductor*%
G36*
X-6045345Y+3416903D02*
X-6044406Y+3421891D01*
X-6039628Y+3422277D01*
X-6037118Y+3425407D01*
X-6037232Y+3429251D01*
X-6039750Y+3431369D01*
X-6041542Y+3431448D01*
X-6043131Y+3430468D01*
X-6046013Y+3426602D01*
X-6049389Y+3422653D01*
X-6052988Y+3421233D01*
X-6057163Y+3421571D01*
X-6061123Y+3423954D01*
X-6063154Y+3427857D01*
X-6062697Y+3432992D01*
X-6058323Y+3438864D01*
X-6050907Y+3439351D01*
X-6052167Y+3434462D01*
X-6055916Y+3434084D01*
X-6057832Y+3431270D01*
X-6057892Y+3428007D01*
X-6056183Y+3426312D01*
X-6053851Y+3426654D01*
X-6050652Y+3430599D01*
X-6046778Y+3435217D01*
X-6043007Y+3436819D01*
X-6038242Y+3436300D01*
X-6032478Y+3431959D01*
X-6032113Y+3423759D01*
X-6036781Y+3417596D01*
X-6045345Y+3416903D01*
X-6045345Y+3416903D01*
G37*
%TD.AperFunction*%
%TA.AperFunction,NonConductor*%
G36*
X-6038155Y+3405914D02*
X-6039564Y+3401304D01*
X-6060897Y+3407826D01*
X-6059586Y+3412114D01*
X-6056584Y+3411196D01*
X-6058818Y+3414048D01*
X-6058909Y+3416244D01*
X-6056887Y+3419025D01*
X-6052414Y+3416017D01*
X-6054034Y+3414168D01*
X-6053808Y+3412223D01*
X-6051510Y+3410348D01*
X-6044801Y+3407946D01*
X-6038155Y+3405914D01*
X-6038155Y+3405914D01*
G37*
%TD.AperFunction*%
%TA.AperFunction,NonConductor*%
G36*
X-6032684Y+3447963D02*
X-6030310Y+3452278D01*
X-6026408Y+3447979D01*
X-6026312Y+3442733D01*
X-6030827Y+3437549D01*
X-6039942Y+3437640D01*
X-6047732Y+3442835D01*
X-6048847Y+3449154D01*
X-6044258Y+3454198D01*
X-6034070Y+3453779D01*
X-6033427Y+3453583D01*
X-6037000Y+3441898D01*
X-6032780Y+3441897D01*
X-6030567Y+3444151D01*
X-6032684Y+3447963D01*
X-6032684Y+3447963D01*
G37*
%LPC*%
G36*
X-6038374Y+3450055D02*
X-6042454Y+3450130D01*
X-6044461Y+3448165D01*
X-6043821Y+3445273D01*
X-6040504Y+3443087D01*
X-6038374Y+3450055D01*
X-6038374Y+3450055D01*
G37*
%LPD*%
%TD.AperFunction*%
%TA.AperFunction,NonConductor*%
G36*
X-6017868Y+3472269D02*
X-6019277Y+3467660D01*
X-6030211Y+3471003D01*
X-6034635Y+3472062D01*
X-6036645Y+3471622D01*
X-6037742Y+3470140D01*
X-6037578Y+3467804D01*
X-6035881Y+3465879D01*
X-6030957Y+3463963D01*
X-6021309Y+3461014D01*
X-6022751Y+3456297D01*
X-6044084Y+3462819D01*
X-6042773Y+3467107D01*
X-6039664Y+3466156D01*
X-6041594Y+3469618D01*
X-6041539Y+3473059D01*
X-6039418Y+3476162D01*
X-6036095Y+3477256D01*
X-6031160Y+3476333D01*
X-6017868Y+3472269D01*
X-6017868Y+3472269D01*
G37*
%TD.AperFunction*%
%TA.AperFunction,NonConductor*%
G36*
X-6023028Y+3477246D02*
X-6022476Y+3482118D01*
X-6019534Y+3482537D01*
X-6017899Y+3484821D01*
X-6017788Y+3487483D01*
X-6019241Y+3488865D01*
X-6020444Y+3488764D01*
X-6021653Y+3487493D01*
X-6026743Y+3481195D01*
X-6032050Y+3480708D01*
X-6036193Y+3484026D01*
X-6036361Y+3489997D01*
X-6033415Y+3494840D01*
X-6028287Y+3496085D01*
X-6028665Y+3491395D01*
X-6032254Y+3488858D01*
X-6032509Y+3486299D01*
X-6031382Y+3485193D01*
X-6030006Y+3485475D01*
X-6027367Y+3489123D01*
X-6023082Y+3493556D01*
X-6018582Y+3493704D01*
X-6014076Y+3490041D01*
X-6013825Y+3483576D01*
X-6017244Y+3478526D01*
X-6023028Y+3477246D01*
X-6023028Y+3477246D01*
G37*
%TD.AperFunction*%
%TA.AperFunction,NonConductor*%
G36*
X-5999875Y+3531121D02*
X-6031976Y+3531558D01*
X-6030370Y+3536811D01*
X-6006634Y+3536235D01*
X-6026700Y+3548817D01*
X-6025094Y+3554070D01*
X-5998269Y+3536374D01*
X-5999875Y+3531121D01*
X-5999875Y+3531121D01*
G37*
%TD.AperFunction*%
%TA.AperFunction,NonConductor*%
G36*
X-6013806Y+3509710D02*
X-6011432Y+3514024D01*
X-6007530Y+3509725D01*
X-6007434Y+3504479D01*
X-6011949Y+3499296D01*
X-6021065Y+3499386D01*
X-6028854Y+3504581D01*
X-6029970Y+3510900D01*
X-6025380Y+3515944D01*
X-6015193Y+3515526D01*
X-6014549Y+3515329D01*
X-6018122Y+3503644D01*
X-6013902Y+3503644D01*
X-6011689Y+3505898D01*
X-6013806Y+3509710D01*
X-6013806Y+3509710D01*
G37*
%LPC*%
G36*
X-6019496Y+3511801D02*
X-6023576Y+3511876D01*
X-6025583Y+3509911D01*
X-6024944Y+3507019D01*
X-6021627Y+3504833D01*
X-6019496Y+3511801D01*
X-6019496Y+3511801D01*
G37*
%LPD*%
%TD.AperFunction*%
%TA.AperFunction,NonConductor*%
G36*
X-6003357Y+3546955D02*
X-6002483Y+3551729D01*
X-5999105Y+3552044D01*
X-5997361Y+3553914D01*
X-5998017Y+3556752D01*
X-6001994Y+3559081D01*
X-6006432Y+3559324D01*
X-6008542Y+3557215D01*
X-6007513Y+3552915D01*
X-6009303Y+3549359D01*
X-6023911Y+3556404D01*
X-6020142Y+3568732D01*
X-6014890Y+3567126D01*
X-6017577Y+3558336D01*
X-6012768Y+3556045D01*
X-6012750Y+3559556D01*
X-6009024Y+3563692D01*
X-6000626Y+3563938D01*
X-5994153Y+3559614D01*
X-5992751Y+3552504D01*
X-5996550Y+3547746D01*
X-6003357Y+3546955D01*
X-6003357Y+3546955D01*
G37*
%TD.AperFunction*%
%TA.AperFunction,NonConductor*%
G36*
X-5995246Y+3574249D02*
X-5994513Y+3578948D01*
X-5991023Y+3579053D01*
X-5989176Y+3581068D01*
X-5989742Y+3583819D01*
X-5993092Y+3585898D01*
X-5996747Y+3586019D01*
X-5998684Y+3584092D01*
X-5998911Y+3581817D01*
X-6003357Y+3583762D01*
X-6003469Y+3586844D01*
X-6005929Y+3588768D01*
X-6008570Y+3588755D01*
X-6010071Y+3587104D01*
X-6009675Y+3584756D01*
X-6007023Y+3582890D01*
X-6009191Y+3578864D01*
X-6014300Y+3583239D01*
X-6014615Y+3588728D01*
X-6010667Y+3593206D01*
X-6004808Y+3593583D01*
X-6001656Y+3591623D01*
X-5999779Y+3588177D01*
X-5996352Y+3590763D01*
X-5991295Y+3590624D01*
X-5985386Y+3586180D01*
X-5984460Y+3579625D01*
X-5988366Y+3574900D01*
X-5995246Y+3574249D01*
X-5995246Y+3574249D01*
G37*
%TD.AperFunction*%
%TA.AperFunction,NonConductor*%
G36*
X-5989158Y+3566175D02*
X-5994839Y+3567912D01*
X-5993430Y+3572522D01*
X-5987749Y+3570785D01*
X-5989158Y+3566175D01*
X-5989158Y+3566175D01*
G37*
%TD.AperFunction*%
%TDTrueTypeText*%
%TATrueTypeText,1:+,12:Default Font,304800,-14795500,9664700,4106,MIR_NONE,0,1:B*%
%TA.AperFunction,NonConductor*%
G36*
X-5828587Y+3781555D02*
X-5828587Y+3798338D01*
X-5842422Y+3798338D01*
X-5842422Y+3809868D01*
X-5828587Y+3809868D01*
X-5828587Y+3826650D01*
X-5819363Y+3826650D01*
X-5819363Y+3809868D01*
X-5805399Y+3809868D01*
X-5805399Y+3798338D01*
X-5819363Y+3798338D01*
X-5819363Y+3781555D01*
X-5828587Y+3781555D01*
X-5828587Y+3781555D01*
G37*
%TD.AperFunction*%
%TDTrueTypeText*%
%TATrueTypeText,1:-,12:Default Font,304800,-14782800,9271000,4106,MIR_NONE,0,1:B*%
%TA.AperFunction,NonConductor*%
G36*
X-5829992Y+3634370D02*
X-5829992Y+3646797D01*
X-5810007Y+3646797D01*
X-5810007Y+3634370D01*
X-5829992Y+3634370D01*
X-5829992Y+3634370D01*
G37*
%TD.AperFunction*%
%TDTrueTypeText*%
%TATrueTypeText,1:1,12:Default Font,228600,-13943799,6769900,4106,MIR_NONE,0,1:B*%
%TA.AperFunction,NonConductor*%
G36*
X-5484707Y+2639487D02*
X-5492375Y+2639487D01*
X-5492375Y+2675134D01*
X-5497049Y+2670931D01*
X-5502463Y+2668005D01*
X-5502463Y+2676479D01*
X-5499168Y+2678329D01*
X-5495738Y+2681187D01*
X-5492778Y+2684819D01*
X-5490895Y+2688989D01*
X-5484707Y+2688989D01*
X-5484707Y+2639487D01*
X-5484707Y+2639487D01*
G37*
%TD.AperFunction*%
%TDTrueTypeText*%
%TATrueTypeText,4:USBN,12:Arial Narrow,177800,-11684000,7600619,20490,MIR_NONE,0*%
%TA.AperFunction,NonConductor*%
G36*
X-4636095Y+3011594D02*
X-4632171Y+3011594D01*
X-4632171Y+2990800D01*
X-4632433Y+2986043D01*
X-4633217Y+2982234D01*
X-4634672Y+2979243D01*
X-4636945Y+2976938D01*
X-4638379Y+2976079D01*
X-4640002Y+2975466D01*
X-4643811Y+2974976D01*
X-4646512Y+2975197D01*
X-4648862Y+2975859D01*
X-4650860Y+2976962D01*
X-4652507Y+2978507D01*
X-4653795Y+2980599D01*
X-4654714Y+2983346D01*
X-4655266Y+2986746D01*
X-4655450Y+2990800D01*
X-4655450Y+3011594D01*
X-4651526Y+3011594D01*
X-4651526Y+2990800D01*
X-4651330Y+2986632D01*
X-4650742Y+2983803D01*
X-4649728Y+2981891D01*
X-4648257Y+2980469D01*
X-4646361Y+2979586D01*
X-4644072Y+2979292D01*
X-4642123Y+2979439D01*
X-4640459Y+2979880D01*
X-4639082Y+2980616D01*
X-4637991Y+2981646D01*
X-4637161Y+2983101D01*
X-4636569Y+2985111D01*
X-4636213Y+2987678D01*
X-4636095Y+2990800D01*
X-4636095Y+3011594D01*
X-4636095Y+3011594D01*
G37*
%TD.AperFunction*%
%TA.AperFunction,NonConductor*%
G36*
X-4623278Y+2987269D02*
X-4619616Y+2987661D01*
X-4619061Y+2984997D01*
X-4618178Y+2983019D01*
X-4616919Y+2981531D01*
X-4615235Y+2980338D01*
X-4613192Y+2979553D01*
X-4610854Y+2979292D01*
X-4607814Y+2979717D01*
X-4605492Y+2980992D01*
X-4604021Y+2982953D01*
X-4603531Y+2985438D01*
X-4603710Y+2986909D01*
X-4604250Y+2988185D01*
X-4605133Y+2989263D01*
X-4606342Y+2990146D01*
X-4608549Y+2991062D01*
X-4612424Y+2992239D01*
X-4616004Y+2993530D01*
X-4618374Y+2994789D01*
X-4619943Y+2996195D01*
X-4621120Y+2997928D01*
X-4621856Y+2999971D01*
X-4622101Y+3002309D01*
X-4621925Y+3004373D01*
X-4621398Y+3006248D01*
X-4620520Y+3007936D01*
X-4619289Y+3009436D01*
X-4617757Y+3010666D01*
X-4615971Y+3011545D01*
X-4613932Y+3012072D01*
X-4611639Y+3012248D01*
X-4608582Y+3011921D01*
X-4605950Y+3010940D01*
X-4603792Y+3009354D01*
X-4602157Y+3007213D01*
X-4601095Y+3004581D01*
X-4600653Y+3001524D01*
X-4604446Y+3001132D01*
X-4605100Y+3004205D01*
X-4605721Y+3005398D01*
X-4606538Y+3006363D01*
X-4608696Y+3007638D01*
X-4611508Y+3008063D01*
X-4614483Y+3007687D01*
X-4616608Y+3006559D01*
X-4617884Y+3004843D01*
X-4618309Y+3002701D01*
X-4618014Y+3000739D01*
X-4617132Y+2999301D01*
X-4615039Y+2998091D01*
X-4611377Y+2996816D01*
X-4607617Y+2995704D01*
X-4605231Y+2994724D01*
X-4602828Y+2993187D01*
X-4601111Y+2991192D01*
X-4600081Y+2988740D01*
X-4599738Y+2985831D01*
X-4600098Y+2982855D01*
X-4601177Y+2980207D01*
X-4602877Y+2978000D01*
X-4605100Y+2976349D01*
X-4607846Y+2975319D01*
X-4611116Y+2974976D01*
X-4613723Y+2975184D01*
X-4616053Y+2975810D01*
X-4618104Y+2976852D01*
X-4619878Y+2978311D01*
X-4621317Y+2980121D01*
X-4622363Y+2982218D01*
X-4623017Y+2984600D01*
X-4623278Y+2987269D01*
X-4623278Y+2987269D01*
G37*
%TD.AperFunction*%
%TA.AperFunction,NonConductor*%
G36*
X-4596992Y+2975630D02*
X-4596992Y+3011594D01*
X-4585875Y+3011594D01*
X-4582835Y+3011332D01*
X-4580513Y+3010548D01*
X-4578732Y+3009207D01*
X-4577309Y+3007278D01*
X-4576378Y+3004957D01*
X-4576067Y+3002439D01*
X-4576345Y+3000085D01*
X-4577179Y+2997993D01*
X-4578503Y+2996195D01*
X-4580252Y+2994724D01*
X-4577914Y+2993481D01*
X-4576132Y+2991585D01*
X-4575004Y+2989100D01*
X-4574628Y+2986092D01*
X-4574972Y+2983019D01*
X-4576002Y+2980338D01*
X-4577587Y+2978196D01*
X-4579598Y+2976741D01*
X-4582246Y+2975908D01*
X-4585745Y+2975630D01*
X-4596992Y+2975630D01*
X-4596992Y+2975630D01*
G37*
%LPC*%
G36*
X-4593068Y+2979815D02*
X-4585745Y+2979815D01*
X-4583587Y+2979945D01*
X-4582083Y+2980338D01*
X-4580677Y+2981188D01*
X-4579598Y+2982430D01*
X-4578911Y+2984065D01*
X-4578682Y+2986092D01*
X-4578895Y+2987923D01*
X-4579533Y+2989492D01*
X-4580530Y+2990735D01*
X-4581821Y+2991585D01*
X-4583652Y+2992075D01*
X-4586268Y+2992239D01*
X-4593068Y+2992239D01*
X-4593068Y+2979815D01*
X-4593068Y+2979815D01*
G37*
G36*
X-4593068Y+2996424D02*
X-4586660Y+2996424D01*
X-4583129Y+2996816D01*
X-4581756Y+2997519D01*
X-4580775Y+2998582D01*
X-4580186Y+3000004D01*
X-4579990Y+3001786D01*
X-4580170Y+3003584D01*
X-4580710Y+3005055D01*
X-4581560Y+3006150D01*
X-4582671Y+3006821D01*
X-4584420Y+3007164D01*
X-4587183Y+3007278D01*
X-4593068Y+3007278D01*
X-4593068Y+2996424D01*
X-4593068Y+2996424D01*
G37*
%LPD*%
%TD.AperFunction*%
%TA.AperFunction,NonConductor*%
G36*
X-4571882Y+2975630D02*
X-4571882Y+3011594D01*
X-4567828Y+3011594D01*
X-4552265Y+2983346D01*
X-4552265Y+3011594D01*
X-4548603Y+3011594D01*
X-4548603Y+2975630D01*
X-4552657Y+2975630D01*
X-4568089Y+3003878D01*
X-4568089Y+2975630D01*
X-4571882Y+2975630D01*
X-4571882Y+2975630D01*
G37*
%TD.AperFunction*%
%TDTrueTypeText*%
%TATrueTypeText,4:USBP,12:Arial Narrow,177800,-11686540,7850019,20490,MIR_NONE,0*%
%TA.AperFunction,NonConductor*%
G36*
X-4632910Y+3109783D02*
X-4628986Y+3109783D01*
X-4628986Y+3088989D01*
X-4629248Y+3084232D01*
X-4630032Y+3080423D01*
X-4631487Y+3077432D01*
X-4633760Y+3075127D01*
X-4635194Y+3074268D01*
X-4636817Y+3073655D01*
X-4640626Y+3073165D01*
X-4643327Y+3073386D01*
X-4645677Y+3074048D01*
X-4647675Y+3075151D01*
X-4649322Y+3076696D01*
X-4650610Y+3078788D01*
X-4651529Y+3081535D01*
X-4652081Y+3084935D01*
X-4652265Y+3088989D01*
X-4652265Y+3109783D01*
X-4648342Y+3109783D01*
X-4648342Y+3088989D01*
X-4648145Y+3084821D01*
X-4647557Y+3081992D01*
X-4646543Y+3080080D01*
X-4645072Y+3078658D01*
X-4643176Y+3077775D01*
X-4640887Y+3077481D01*
X-4638938Y+3077628D01*
X-4637274Y+3078069D01*
X-4635897Y+3078805D01*
X-4634806Y+3079835D01*
X-4633976Y+3081290D01*
X-4633384Y+3083300D01*
X-4633028Y+3085867D01*
X-4632910Y+3088989D01*
X-4632910Y+3109783D01*
X-4632910Y+3109783D01*
G37*
%TD.AperFunction*%
%TA.AperFunction,NonConductor*%
G36*
X-4620093Y+3085458D02*
X-4616431Y+3085850D01*
X-4615876Y+3083186D01*
X-4614993Y+3081208D01*
X-4613734Y+3079720D01*
X-4612050Y+3078527D01*
X-4610007Y+3077742D01*
X-4607669Y+3077481D01*
X-4604629Y+3077906D01*
X-4602307Y+3079181D01*
X-4600836Y+3081142D01*
X-4600346Y+3083627D01*
X-4600525Y+3085098D01*
X-4601065Y+3086374D01*
X-4601948Y+3087452D01*
X-4603157Y+3088335D01*
X-4605364Y+3089251D01*
X-4609239Y+3090428D01*
X-4612819Y+3091719D01*
X-4615189Y+3092978D01*
X-4616758Y+3094384D01*
X-4617935Y+3096117D01*
X-4618671Y+3098160D01*
X-4618916Y+3100498D01*
X-4618741Y+3102562D01*
X-4618213Y+3104437D01*
X-4617335Y+3106125D01*
X-4616104Y+3107625D01*
X-4614572Y+3108855D01*
X-4612786Y+3109734D01*
X-4610747Y+3110261D01*
X-4608454Y+3110437D01*
X-4605397Y+3110110D01*
X-4602765Y+3109129D01*
X-4600607Y+3107543D01*
X-4598972Y+3105402D01*
X-4597910Y+3102770D01*
X-4597468Y+3099713D01*
X-4601261Y+3099321D01*
X-4601915Y+3102394D01*
X-4602536Y+3103587D01*
X-4603354Y+3104552D01*
X-4605511Y+3105827D01*
X-4608323Y+3106252D01*
X-4611298Y+3105876D01*
X-4613424Y+3104748D01*
X-4614699Y+3103032D01*
X-4615124Y+3100890D01*
X-4614829Y+3098928D01*
X-4613947Y+3097490D01*
X-4611854Y+3096280D01*
X-4608192Y+3095005D01*
X-4604432Y+3093893D01*
X-4602046Y+3092913D01*
X-4599643Y+3091376D01*
X-4597926Y+3089381D01*
X-4596896Y+3086929D01*
X-4596553Y+3084020D01*
X-4596913Y+3081044D01*
X-4597992Y+3078396D01*
X-4599692Y+3076189D01*
X-4601915Y+3074538D01*
X-4604661Y+3073508D01*
X-4607931Y+3073165D01*
X-4610538Y+3073373D01*
X-4612868Y+3073999D01*
X-4614919Y+3075041D01*
X-4616693Y+3076500D01*
X-4618132Y+3078310D01*
X-4619178Y+3080407D01*
X-4619832Y+3082789D01*
X-4620093Y+3085458D01*
X-4620093Y+3085458D01*
G37*
%TD.AperFunction*%
%TA.AperFunction,NonConductor*%
G36*
X-4593807Y+3073819D02*
X-4593807Y+3109783D01*
X-4582690Y+3109783D01*
X-4579650Y+3109521D01*
X-4577328Y+3108737D01*
X-4575547Y+3107396D01*
X-4574124Y+3105467D01*
X-4573193Y+3103146D01*
X-4572882Y+3100628D01*
X-4573160Y+3098274D01*
X-4573994Y+3096182D01*
X-4575318Y+3094384D01*
X-4577067Y+3092913D01*
X-4574729Y+3091670D01*
X-4572947Y+3089774D01*
X-4571819Y+3087289D01*
X-4571443Y+3084281D01*
X-4571787Y+3081208D01*
X-4572817Y+3078527D01*
X-4574402Y+3076385D01*
X-4576413Y+3074930D01*
X-4579061Y+3074097D01*
X-4582560Y+3073819D01*
X-4593807Y+3073819D01*
X-4593807Y+3073819D01*
G37*
%LPC*%
G36*
X-4589883Y+3078004D02*
X-4582560Y+3078004D01*
X-4580402Y+3078134D01*
X-4578898Y+3078527D01*
X-4577492Y+3079377D01*
X-4576413Y+3080619D01*
X-4575726Y+3082254D01*
X-4575498Y+3084281D01*
X-4575710Y+3086112D01*
X-4576348Y+3087681D01*
X-4577345Y+3088924D01*
X-4578636Y+3089774D01*
X-4580467Y+3090264D01*
X-4583083Y+3090428D01*
X-4589883Y+3090428D01*
X-4589883Y+3078004D01*
X-4589883Y+3078004D01*
G37*
G36*
X-4589883Y+3094613D02*
X-4583475Y+3094613D01*
X-4579944Y+3095005D01*
X-4578571Y+3095708D01*
X-4577590Y+3096771D01*
X-4577002Y+3098193D01*
X-4576805Y+3099975D01*
X-4576985Y+3101773D01*
X-4577525Y+3103244D01*
X-4578375Y+3104339D01*
X-4579486Y+3105010D01*
X-4581235Y+3105353D01*
X-4583998Y+3105467D01*
X-4589883Y+3105467D01*
X-4589883Y+3094613D01*
X-4589883Y+3094613D01*
G37*
%LPD*%
%TD.AperFunction*%
%TA.AperFunction,NonConductor*%
G36*
X-4568566Y+3073819D02*
X-4568566Y+3109783D01*
X-4557450Y+3109783D01*
X-4554017Y+3109620D01*
X-4551565Y+3109129D01*
X-4549325Y+3107805D01*
X-4547576Y+3105663D01*
X-4546448Y+3102835D01*
X-4546072Y+3099451D01*
X-4546228Y+3097142D01*
X-4546693Y+3095054D01*
X-4547470Y+3093186D01*
X-4548557Y+3091539D01*
X-4550020Y+3090195D01*
X-4551925Y+3089234D01*
X-4554270Y+3088658D01*
X-4557058Y+3088466D01*
X-4564643Y+3088466D01*
X-4564643Y+3073819D01*
X-4568566Y+3073819D01*
X-4568566Y+3073819D01*
G37*
%LPC*%
G36*
X-4564643Y+3092651D02*
X-4556927Y+3092651D01*
X-4553854Y+3093060D01*
X-4552660Y+3093571D01*
X-4551696Y+3094286D01*
X-4550952Y+3095205D01*
X-4550421Y+3096329D01*
X-4549996Y+3099190D01*
X-4550208Y+3101233D01*
X-4550846Y+3102917D01*
X-4551777Y+3104176D01*
X-4552873Y+3104944D01*
X-4554507Y+3105337D01*
X-4557058Y+3105467D01*
X-4564643Y+3105467D01*
X-4564643Y+3092651D01*
X-4564643Y+3092651D01*
G37*
%LPD*%
%TD.AperFunction*%
%TDTrueTypeText*%
D46*
X-5422661Y+2617743D02*
X-5670829Y+2728234D01*
X-5565103Y+2413967D02*
X-5574317Y+2383593D01*
X-5743359Y+2458855D01*
X-5726952Y+2486026D01*
X-5499524Y+2445104D02*
X-5521943Y+2394751D01*
X-5770111Y+2505243D01*
X-5747693Y+2555595D01*
D45*
X-5443554Y+2454661D02*
X-5444552Y+2457260D01*
X-5447151Y+2456263D01*
X-5446154Y+2453663D01*
X-5443554Y+2454661D01*
%TATrueTypeText,3:SW1,12:Arial Narrow,203200,-14899937,6671045,20490,MIR_NONE,3360*%
%TA.AperFunction,NonConductor*%
G36*
X-5881195Y+2609840D02*
X-5872345Y+2652582D01*
X-5867976Y+2650637D01*
X-5874523Y+2622867D01*
X-5876700Y+2614383D01*
X-5872055Y+2620896D01*
X-5854261Y+2644531D01*
X-5849163Y+2642261D01*
X-5853481Y+2620479D01*
X-5857038Y+2605629D01*
X-5851678Y+2613423D01*
X-5835570Y+2636209D01*
X-5831322Y+2634318D01*
X-5857407Y+2599249D01*
X-5861412Y+2601032D01*
X-5855023Y+2633673D01*
X-5853941Y+2638717D01*
X-5856965Y+2634537D01*
X-5876947Y+2607949D01*
X-5881195Y+2609840D01*
X-5881195Y+2609840D01*
G37*
%TD.AperFunction*%
%TA.AperFunction,NonConductor*%
G36*
X-5913739Y+2639309D02*
X-5909639Y+2638065D01*
X-5910368Y+2634918D01*
X-5910365Y+2632353D01*
X-5909693Y+2630145D01*
X-5908418Y+2628069D01*
X-5906568Y+2626263D01*
X-5904171Y+2624869D01*
X-5900631Y+2623838D01*
X-5897535Y+2624096D01*
X-5895055Y+2625501D01*
X-5893364Y+2627911D01*
X-5892714Y+2631330D01*
X-5894041Y+2634393D01*
X-5899602Y+2639704D01*
X-5904846Y+2645239D01*
X-5905885Y+2647519D01*
X-5906306Y+2649961D01*
X-5906094Y+2652520D01*
X-5905230Y+2655154D01*
X-5902560Y+2659109D01*
X-5898765Y+2661510D01*
X-5894191Y+2662146D01*
X-5889188Y+2660809D01*
X-5886036Y+2658987D01*
X-5883619Y+2656657D01*
X-5882009Y+2653904D01*
X-5881276Y+2650814D01*
X-5881417Y+2647478D01*
X-5882427Y+2643983D01*
X-5886594Y+2645402D01*
X-5885894Y+2649017D01*
X-5886415Y+2652012D01*
X-5888143Y+2654417D01*
X-5891066Y+2656264D01*
X-5894443Y+2657295D01*
X-5897291Y+2657145D01*
X-5899512Y+2655952D01*
X-5901009Y+2653856D01*
X-5901604Y+2651539D01*
X-5901228Y+2649445D01*
X-5899567Y+2647215D01*
X-5896173Y+2644140D01*
X-5890646Y+2638916D01*
X-5888879Y+2635984D01*
X-5887999Y+2632939D01*
X-5888036Y+2629792D01*
X-5889021Y+2626559D01*
X-5890855Y+2623503D01*
X-5893328Y+2621132D01*
X-5896246Y+2619559D01*
X-5899413Y+2618897D01*
X-5902853Y+2619174D01*
X-5906589Y+2620419D01*
X-5911446Y+2623636D01*
X-5913149Y+2625712D01*
X-5914367Y+2628100D01*
X-5915060Y+2630708D01*
X-5915186Y+2633445D01*
X-5913739Y+2639309D01*
X-5913739Y+2639309D01*
G37*
%TD.AperFunction*%
%TA.AperFunction,NonConductor*%
G36*
X-5834953Y+2589252D02*
X-5838837Y+2590981D01*
X-5825274Y+2621445D01*
X-5830374Y+2619789D01*
X-5835757Y+2619132D01*
X-5833649Y+2623865D01*
X-5829664Y+2624527D01*
X-5825885Y+2625789D01*
X-5822601Y+2627490D01*
X-5820102Y+2629468D01*
X-5817553Y+2628333D01*
X-5834953Y+2589252D01*
X-5834953Y+2589252D01*
G37*
%TD.AperFunction*%
%TDTrueTypeText*%
X-5186614Y+3798031D02*
X-5184646Y+3800000D01*
X-5186614Y+3801969D01*
X-5188583Y+3800000D01*
X-5186614Y+3798031D01*
%TATrueTypeText,2:K1,12:Arial Narrow,203200,-13967680,9512119,20490,MIR_NONE,0*%
%TA.AperFunction,NonConductor*%
G36*
X-5525259Y+3723672D02*
X-5525259Y+3766318D01*
X-5520609Y+3766318D01*
X-5520609Y+3745194D01*
X-5503205Y+3766318D01*
X-5496961Y+3766318D01*
X-5511708Y+3749047D01*
X-5496297Y+3723672D01*
X-5502408Y+3723672D01*
X-5514896Y+3745194D01*
X-5520609Y+3738419D01*
X-5520609Y+3723672D01*
X-5525259Y+3723672D01*
X-5525259Y+3723672D01*
G37*
%TD.AperFunction*%
%TA.AperFunction,NonConductor*%
G36*
X-5476767Y+3723672D02*
X-5481018Y+3723672D01*
X-5481018Y+3757018D01*
X-5485004Y+3753431D01*
X-5489654Y+3750641D01*
X-5489654Y+3755823D01*
X-5486283Y+3758048D01*
X-5483343Y+3760738D01*
X-5481035Y+3763628D01*
X-5479557Y+3766451D01*
X-5476767Y+3766451D01*
X-5476767Y+3723672D01*
X-5476767Y+3723672D01*
G37*
%TD.AperFunction*%
%TDTrueTypeText*%
D47*
X-5385000Y+3646000D02*
X-5385000Y+3673000D01*
X-5337000Y+3646000D02*
X-5337000Y+3674000D01*
%TATrueTypeText,3:R11,12:Arial Narrow,203200,-13622020,9560560,20490,MIR_NONE,900*%
%TA.AperFunction,NonConductor*%
G36*
X-5341743Y+3773565D02*
X-5341743Y+3769314D01*
X-5375089Y+3769314D01*
X-5371502Y+3765328D01*
X-5368712Y+3760678D01*
X-5373894Y+3760678D01*
X-5376119Y+3764049D01*
X-5378809Y+3766989D01*
X-5381699Y+3769297D01*
X-5384522Y+3770775D01*
X-5384522Y+3773565D01*
X-5341743Y+3773565D01*
X-5341743Y+3773565D01*
G37*
%TD.AperFunction*%
%TA.AperFunction,NonConductor*%
G36*
X-5341743Y+3799073D02*
X-5341743Y+3794822D01*
X-5375089Y+3794822D01*
X-5371502Y+3790836D01*
X-5368712Y+3786186D01*
X-5373894Y+3786186D01*
X-5376119Y+3789557D01*
X-5378809Y+3792497D01*
X-5381699Y+3794805D01*
X-5384522Y+3796283D01*
X-5384522Y+3799073D01*
X-5341743Y+3799073D01*
X-5341743Y+3799073D01*
G37*
%TD.AperFunction*%
%TA.AperFunction,NonConductor*%
G36*
X-5341743Y+3725206D02*
X-5384389Y+3725206D01*
X-5384389Y+3740750D01*
X-5384090Y+3744918D01*
X-5383193Y+3747858D01*
X-5381599Y+3749967D01*
X-5379208Y+3751644D01*
X-5376185Y+3752740D01*
X-5372698Y+3753105D01*
X-5368364Y+3752491D01*
X-5364926Y+3750648D01*
X-5362485Y+3747609D01*
X-5361140Y+3743407D01*
X-5358748Y+3746330D01*
X-5353301Y+3749917D01*
X-5341743Y+3756028D01*
X-5341743Y+3750183D01*
X-5350644Y+3745533D01*
X-5357619Y+3741481D01*
X-5360010Y+3738823D01*
X-5360608Y+3735170D01*
X-5360608Y+3729856D01*
X-5341743Y+3729856D01*
X-5341743Y+3725206D01*
X-5341743Y+3725206D01*
G37*
%LPC*%
G36*
X-5365524Y+3729856D02*
X-5365524Y+3739820D01*
X-5366321Y+3744736D01*
X-5367334Y+3746280D01*
X-5368779Y+3747459D01*
X-5370589Y+3748206D01*
X-5372698Y+3748455D01*
X-5375554Y+3747974D01*
X-5377746Y+3746529D01*
X-5379141Y+3744154D01*
X-5379606Y+3740883D01*
X-5379606Y+3729856D01*
X-5365524Y+3729856D01*
X-5365524Y+3729856D01*
G37*
%LPD*%
%TD.AperFunction*%
%TDTrueTypeText*%
D46*
X-5780882Y+3376764D02*
X-5665921Y+3376764D01*
X-5665921Y+3406685D01*
X-5780882Y+3406685D01*
X-5780882Y+3376764D01*
X-5664346Y+3453929D02*
X-5664346Y+3420465D01*
%TATrueTypeText,2:Q2,12:Arial Narrow,127000,-14313938,8614978,20490,MIR_NONE,900*%
%TA.AperFunction,NonConductor*%
G36*
X-5627829Y+3392044D02*
X-5625480Y+3395460D01*
X-5623238Y+3394713D01*
X-5624466Y+3392524D01*
X-5626227Y+3390442D01*
X-5625106Y+3388094D01*
X-5624733Y+3385532D01*
X-5624973Y+3383403D01*
X-5625693Y+3381501D01*
X-5626895Y+3379827D01*
X-5628576Y+3378379D01*
X-5630444Y+3377304D01*
X-5632526Y+3376537D01*
X-5634821Y+3376077D01*
X-5637330Y+3375923D01*
X-5641093Y+3376257D01*
X-5644269Y+3377258D01*
X-5646792Y+3378792D01*
X-5648593Y+3380727D01*
X-5649674Y+3382996D01*
X-5650034Y+3385532D01*
X-5649661Y+3388080D01*
X-5648540Y+3390389D01*
X-5646712Y+3392351D01*
X-5644216Y+3393859D01*
X-5641107Y+3394819D01*
X-5637437Y+3395140D01*
X-5634501Y+3394940D01*
X-5631885Y+3394339D01*
X-5629644Y+3393365D01*
X-5627829Y+3392044D01*
X-5627829Y+3392044D01*
G37*
%LPC*%
G36*
X-5631885Y+3386172D02*
X-5630925Y+3388307D01*
X-5629537Y+3390015D01*
X-5631031Y+3391043D01*
X-5632846Y+3391777D01*
X-5634981Y+3392217D01*
X-5637437Y+3392364D01*
X-5640386Y+3392137D01*
X-5642828Y+3391457D01*
X-5644750Y+3390389D01*
X-5646138Y+3389001D01*
X-5646978Y+3387360D01*
X-5647259Y+3385532D01*
X-5647102Y+3384104D01*
X-5646631Y+3382809D01*
X-5645847Y+3381648D01*
X-5644750Y+3380621D01*
X-5643345Y+3379780D01*
X-5641641Y+3379179D01*
X-5639635Y+3378819D01*
X-5637330Y+3378699D01*
X-5635072Y+3378822D01*
X-5633100Y+3379193D01*
X-5631415Y+3379810D01*
X-5630017Y+3380674D01*
X-5628920Y+3381718D01*
X-5628136Y+3382876D01*
X-5627665Y+3384147D01*
X-5627508Y+3385532D01*
X-5627669Y+3386893D01*
X-5628149Y+3388200D01*
X-5628976Y+3386893D01*
X-5629537Y+3385532D01*
X-5631885Y+3386172D01*
X-5631885Y+3386172D01*
G37*
%LPD*%
%TD.AperFunction*%
%TA.AperFunction,NonConductor*%
G36*
X-5628042Y+3409232D02*
X-5625160Y+3409232D01*
X-5625160Y+3395994D01*
X-5626988Y+3396194D01*
X-5629056Y+3397008D01*
X-5631445Y+3398596D01*
X-5634234Y+3401118D01*
X-5637263Y+3403947D01*
X-5639519Y+3405602D01*
X-5641320Y+3406403D01*
X-5642988Y+3406670D01*
X-5644723Y+3406403D01*
X-5646084Y+3405602D01*
X-5646965Y+3404401D01*
X-5647259Y+3402933D01*
X-5646938Y+3401372D01*
X-5645978Y+3400104D01*
X-5644430Y+3399263D01*
X-5642348Y+3398983D01*
X-5642668Y+3396421D01*
X-5645751Y+3397088D01*
X-5646962Y+3397682D01*
X-5647953Y+3398449D01*
X-5648723Y+3399370D01*
X-5649274Y+3400424D01*
X-5649714Y+3402933D01*
X-5649584Y+3404388D01*
X-5649194Y+3405655D01*
X-5648543Y+3406736D01*
X-5647632Y+3407631D01*
X-5645430Y+3408832D01*
X-5642988Y+3409232D01*
X-5640693Y+3408925D01*
X-5638504Y+3408004D01*
X-5635996Y+3406203D01*
X-5632740Y+3403253D01*
X-5629697Y+3400478D01*
X-5628042Y+3399410D01*
X-5628042Y+3409232D01*
X-5628042Y+3409232D01*
G37*
%TD.AperFunction*%
%TDTrueTypeText*%
D47*
X-4589520Y+3369811D02*
X-4589520Y+3409181D01*
X-4510780Y+3369811D02*
X-4510780Y+3409181D01*
%TATrueTypeText,2:X1,12:Arial Narrow,127000,-11725960,8614590,20490,MIR_NONE,900*%
%TA.AperFunction,NonConductor*%
G36*
X-4606271Y+3374596D02*
X-4618975Y+3382389D01*
X-4630718Y+3375557D01*
X-4630718Y+3378653D01*
X-4624420Y+3382389D01*
X-4621430Y+3383991D01*
X-4624206Y+3385485D01*
X-4630718Y+3389542D01*
X-4630718Y+3392425D01*
X-4619188Y+3385379D01*
X-4606271Y+3392958D01*
X-4606271Y+3389756D01*
X-4615025Y+3384631D01*
X-4616626Y+3383777D01*
X-4614811Y+3382816D01*
X-4606271Y+3377799D01*
X-4606271Y+3374596D01*
X-4606271Y+3374596D01*
G37*
%TD.AperFunction*%
%TA.AperFunction,NonConductor*%
G36*
X-4606271Y+3405342D02*
X-4606271Y+3402887D01*
X-4625380Y+3402887D01*
X-4623352Y+3400592D01*
X-4621751Y+3397976D01*
X-4624740Y+3397976D01*
X-4625968Y+3399884D01*
X-4627516Y+3401552D01*
X-4629197Y+3402874D01*
X-4630825Y+3403741D01*
X-4630825Y+3405342D01*
X-4606271Y+3405342D01*
X-4606271Y+3405342D01*
G37*
%TD.AperFunction*%
%TDTrueTypeText*%
X-4613000Y+3504000D02*
X-4613000Y+3531000D01*
X-4565000Y+3504000D02*
X-4565000Y+3532000D01*
%TATrueTypeText,3:C25,12:Arial Narrow,127000,-11767820,8740140,20490,MIR_NONE,900*%
%TA.AperFunction,NonConductor*%
G36*
X-4631291Y+3433526D02*
X-4630544Y+3436195D01*
X-4626914Y+3434928D01*
X-4624352Y+3433046D01*
X-4622831Y+3430604D01*
X-4622324Y+3427655D01*
X-4622671Y+3425079D01*
X-4623712Y+3422904D01*
X-4625500Y+3421116D01*
X-4628089Y+3419701D01*
X-4631345Y+3418780D01*
X-4635135Y+3418473D01*
X-4638871Y+3418780D01*
X-4641967Y+3419701D01*
X-4644409Y+3421156D01*
X-4646184Y+3423064D01*
X-4647265Y+3425333D01*
X-4647625Y+3427868D01*
X-4647172Y+3430564D01*
X-4645811Y+3432886D01*
X-4643595Y+3434674D01*
X-4640579Y+3435768D01*
X-4639832Y+3433206D01*
X-4642027Y+3432352D01*
X-4643595Y+3431178D01*
X-4644536Y+3429683D01*
X-4644850Y+3427868D01*
X-4644596Y+3425987D01*
X-4643835Y+3424399D01*
X-4642528Y+3423091D01*
X-4640633Y+3422050D01*
X-4638164Y+3421369D01*
X-4635135Y+3421142D01*
X-4630744Y+3421583D01*
X-4627608Y+3422904D01*
X-4625727Y+3424972D01*
X-4625099Y+3427655D01*
X-4625486Y+3429656D01*
X-4626647Y+3431391D01*
X-4628582Y+3432726D01*
X-4631291Y+3433526D01*
X-4631291Y+3433526D01*
G37*
%TD.AperFunction*%
%TA.AperFunction,NonConductor*%
G36*
X-4629156Y+3452316D02*
X-4629476Y+3454985D01*
X-4627421Y+3455479D01*
X-4625953Y+3456319D01*
X-4625073Y+3457427D01*
X-4624779Y+3458721D01*
X-4625179Y+3460403D01*
X-4626380Y+3461817D01*
X-4628302Y+3462778D01*
X-4630864Y+3463099D01*
X-4633146Y+3462792D01*
X-4634868Y+3461871D01*
X-4635949Y+3460470D01*
X-4636309Y+3458721D01*
X-4635668Y+3456693D01*
X-4633960Y+3455092D01*
X-4634281Y+3452850D01*
X-4646878Y+3454771D01*
X-4646878Y+3464700D01*
X-4643996Y+3464700D01*
X-4643996Y+3456693D01*
X-4637483Y+3455625D01*
X-4638604Y+3457494D01*
X-4638978Y+3459469D01*
X-4638444Y+3461777D01*
X-4636843Y+3463792D01*
X-4634334Y+3465194D01*
X-4631078Y+3465661D01*
X-4627715Y+3465194D01*
X-4624886Y+3463792D01*
X-4622964Y+3461617D01*
X-4622324Y+3458828D01*
X-4622777Y+3456386D01*
X-4624139Y+3454398D01*
X-4626300Y+3452996D01*
X-4629156Y+3452316D01*
X-4629156Y+3452316D01*
G37*
%TD.AperFunction*%
%TA.AperFunction,NonConductor*%
G36*
X-4625633Y+3451675D02*
X-4622751Y+3451675D01*
X-4622751Y+3438437D01*
X-4624579Y+3438637D01*
X-4626647Y+3439452D01*
X-4629036Y+3441040D01*
X-4631825Y+3443562D01*
X-4634854Y+3446391D01*
X-4637110Y+3448046D01*
X-4638911Y+3448846D01*
X-4640579Y+3449113D01*
X-4642314Y+3448846D01*
X-4643675Y+3448046D01*
X-4644556Y+3446845D01*
X-4644850Y+3445377D01*
X-4644529Y+3443815D01*
X-4643569Y+3442547D01*
X-4642021Y+3441707D01*
X-4639939Y+3441427D01*
X-4640259Y+3438864D01*
X-4643342Y+3439532D01*
X-4645544Y+3440893D01*
X-4646865Y+3442868D01*
X-4647305Y+3445377D01*
X-4646785Y+3448099D01*
X-4645223Y+3450074D01*
X-4643021Y+3451275D01*
X-4640579Y+3451675D01*
X-4638284Y+3451368D01*
X-4636095Y+3450448D01*
X-4633587Y+3448646D01*
X-4630331Y+3445697D01*
X-4627288Y+3442921D01*
X-4625633Y+3441854D01*
X-4625633Y+3451675D01*
X-4625633Y+3451675D01*
G37*
%TD.AperFunction*%
%TDTrueTypeText*%
X-4554000Y+3272000D02*
X-4581000Y+3272000D01*
X-4554000Y+3320000D02*
X-4582000Y+3320000D01*
%TATrueTypeText,3:C26,12:Arial Narrow,127000,-11407140,8260080,20490,MIR_NONE,0*%
%TA.AperFunction,NonConductor*%
G36*
X-4498473Y+3250291D02*
X-4495804Y+3249544D01*
X-4496361Y+3247596D01*
X-4497071Y+3245914D01*
X-4497935Y+3244500D01*
X-4498953Y+3243352D01*
X-4500111Y+3242465D01*
X-4501395Y+3241831D01*
X-4502806Y+3241450D01*
X-4504344Y+3241324D01*
X-4506920Y+3241671D01*
X-4508058Y+3242104D01*
X-4509095Y+3242712D01*
X-4510036Y+3243506D01*
X-4510883Y+3244500D01*
X-4512298Y+3247089D01*
X-4513219Y+3250345D01*
X-4513526Y+3254135D01*
X-4513219Y+3257871D01*
X-4512835Y+3259499D01*
X-4512298Y+3260967D01*
X-4510843Y+3263409D01*
X-4509946Y+3264380D01*
X-4508935Y+3265184D01*
X-4507834Y+3265815D01*
X-4506666Y+3266265D01*
X-4504131Y+3266625D01*
X-4502736Y+3266512D01*
X-4501435Y+3266172D01*
X-4500227Y+3265605D01*
X-4499113Y+3264811D01*
X-4498132Y+3263803D01*
X-4497325Y+3262595D01*
X-4496691Y+3261187D01*
X-4496231Y+3259579D01*
X-4498793Y+3258832D01*
X-4499647Y+3261027D01*
X-4500821Y+3262595D01*
X-4502316Y+3263536D01*
X-4504131Y+3263850D01*
X-4506012Y+3263596D01*
X-4507600Y+3262835D01*
X-4508908Y+3261528D01*
X-4509949Y+3259633D01*
X-4510630Y+3257164D01*
X-4510857Y+3254135D01*
X-4510746Y+3251783D01*
X-4510416Y+3249744D01*
X-4509866Y+3248019D01*
X-4509095Y+3246608D01*
X-4508138Y+3245511D01*
X-4507027Y+3244727D01*
X-4505762Y+3244256D01*
X-4504344Y+3244099D01*
X-4503310Y+3244196D01*
X-4502343Y+3244486D01*
X-4501442Y+3244970D01*
X-4500608Y+3245647D01*
X-4499874Y+3246518D01*
X-4499273Y+3247582D01*
X-4498473Y+3250291D01*
X-4498473Y+3250291D01*
G37*
%TD.AperFunction*%
%TA.AperFunction,NonConductor*%
G36*
X-4480324Y+3244633D02*
X-4480324Y+3241751D01*
X-4493562Y+3241751D01*
X-4493362Y+3243579D01*
X-4492547Y+3245647D01*
X-4490959Y+3248036D01*
X-4488437Y+3250825D01*
X-4485608Y+3253854D01*
X-4483953Y+3256110D01*
X-4483153Y+3257911D01*
X-4482886Y+3259579D01*
X-4483153Y+3261314D01*
X-4483953Y+3262675D01*
X-4485154Y+3263556D01*
X-4486622Y+3263850D01*
X-4488184Y+3263529D01*
X-4489452Y+3262569D01*
X-4490292Y+3261021D01*
X-4490572Y+3258939D01*
X-4493135Y+3259259D01*
X-4492888Y+3260911D01*
X-4492467Y+3262342D01*
X-4491874Y+3263553D01*
X-4491106Y+3264544D01*
X-4490185Y+3265314D01*
X-4489131Y+3265865D01*
X-4487944Y+3266195D01*
X-4486622Y+3266305D01*
X-4485168Y+3266175D01*
X-4483900Y+3265785D01*
X-4482819Y+3265134D01*
X-4481925Y+3264223D01*
X-4481224Y+3263152D01*
X-4480724Y+3262021D01*
X-4480424Y+3260830D01*
X-4480324Y+3259579D01*
X-4480631Y+3257284D01*
X-4481551Y+3255095D01*
X-4483353Y+3252587D01*
X-4486302Y+3249331D01*
X-4489078Y+3246288D01*
X-4490145Y+3244633D01*
X-4480324Y+3244633D01*
X-4480324Y+3244633D01*
G37*
%TD.AperFunction*%
%TA.AperFunction,NonConductor*%
G36*
X-4466872Y+3260220D02*
X-4469328Y+3260006D01*
X-4469728Y+3261634D01*
X-4470288Y+3262675D01*
X-4471436Y+3263556D01*
X-4472744Y+3263850D01*
X-4473758Y+3263683D01*
X-4474665Y+3263182D01*
X-4475466Y+3262348D01*
X-4476160Y+3261181D01*
X-4476987Y+3258298D01*
X-4477334Y+3254348D01*
X-4476374Y+3255763D01*
X-4475199Y+3256804D01*
X-4473865Y+3257444D01*
X-4472424Y+3257658D01*
X-4471286Y+3257521D01*
X-4470222Y+3257111D01*
X-4469231Y+3256427D01*
X-4468313Y+3255469D01*
X-4467543Y+3254285D01*
X-4466992Y+3252920D01*
X-4466662Y+3251376D01*
X-4466552Y+3249651D01*
X-4466765Y+3247315D01*
X-4467406Y+3245220D01*
X-4468407Y+3243499D01*
X-4469701Y+3242284D01*
X-4471182Y+3241564D01*
X-4472744Y+3241324D01*
X-4474222Y+3241494D01*
X-4475560Y+3242004D01*
X-4476757Y+3242855D01*
X-4477815Y+3244046D01*
X-4478679Y+3245637D01*
X-4479296Y+3247689D01*
X-4479666Y+3250201D01*
X-4479790Y+3253174D01*
X-4479663Y+3256490D01*
X-4479283Y+3259286D01*
X-4478649Y+3261561D01*
X-4477761Y+3263316D01*
X-4476674Y+3264624D01*
X-4475439Y+3265558D01*
X-4474058Y+3266118D01*
X-4472530Y+3266305D01*
X-4471453Y+3266208D01*
X-4470462Y+3265918D01*
X-4469558Y+3265434D01*
X-4468740Y+3264757D01*
X-4468043Y+3263893D01*
X-4467499Y+3262849D01*
X-4467109Y+3261624D01*
X-4466872Y+3260220D01*
X-4466872Y+3260220D01*
G37*
%LPC*%
G36*
X-4476907Y+3249651D02*
X-4476600Y+3247249D01*
X-4476217Y+3246248D01*
X-4475680Y+3245380D01*
X-4474332Y+3244179D01*
X-4473568Y+3243879D01*
X-4472744Y+3243779D01*
X-4472063Y+3243876D01*
X-4471409Y+3244166D01*
X-4470182Y+3245327D01*
X-4469668Y+3246171D01*
X-4469301Y+3247155D01*
X-4469007Y+3249544D01*
X-4469287Y+3251826D01*
X-4470128Y+3253547D01*
X-4471396Y+3254628D01*
X-4472140Y+3254899D01*
X-4472957Y+3254989D01*
X-4474452Y+3254628D01*
X-4475733Y+3253547D01*
X-4476614Y+3251853D01*
X-4476907Y+3249651D01*
X-4476907Y+3249651D01*
G37*
%LPD*%
%TD.AperFunction*%
%TDTrueTypeText*%
%TATrueTypeText,3:IO4,12:Arial Narrow,203200,-12049998,6723499,20490,MIR_NONE,0*%
%TA.AperFunction,NonConductor*%
G36*
X-4777706Y+2625790D02*
X-4777706Y+2668436D01*
X-4773056Y+2668436D01*
X-4773056Y+2625790D01*
X-4777706Y+2625790D01*
X-4777706Y+2625790D01*
G37*
%TD.AperFunction*%
%TA.AperFunction,NonConductor*%
G36*
X-4762826Y+2646515D02*
X-4762527Y+2651647D01*
X-4761630Y+2656147D01*
X-4760136Y+2660016D01*
X-4758043Y+2663255D01*
X-4755502Y+2665812D01*
X-4752663Y+2667639D01*
X-4749524Y+2668735D01*
X-4746086Y+2669100D01*
X-4743869Y+2668939D01*
X-4741735Y+2668453D01*
X-4737716Y+2666510D01*
X-4735894Y+2665065D01*
X-4734279Y+2663321D01*
X-4732871Y+2661279D01*
X-4731672Y+2658937D01*
X-4730713Y+2656326D01*
X-4730027Y+2653473D01*
X-4729479Y+2647047D01*
X-4729745Y+2642546D01*
X-4730542Y+2638477D01*
X-4731871Y+2634840D01*
X-4733731Y+2631635D01*
X-4736305Y+2628787D01*
X-4739244Y+2626753D01*
X-4742549Y+2625532D01*
X-4746219Y+2625125D01*
X-4749881Y+2625541D01*
X-4753161Y+2626786D01*
X-4756059Y+2628862D01*
X-4758575Y+2631768D01*
X-4760435Y+2634982D01*
X-4761763Y+2638511D01*
X-4762560Y+2642355D01*
X-4762826Y+2646515D01*
X-4762826Y+2646515D01*
G37*
%LPC*%
G36*
X-4758176Y+2646515D02*
X-4757956Y+2642758D01*
X-4757296Y+2639457D01*
X-4756196Y+2636613D01*
X-4754655Y+2634226D01*
X-4752808Y+2632337D01*
X-4750786Y+2630988D01*
X-4748590Y+2630178D01*
X-4746219Y+2629908D01*
X-4743795Y+2630182D01*
X-4741569Y+2631004D01*
X-4739543Y+2632374D01*
X-4737716Y+2634292D01*
X-4736205Y+2636742D01*
X-4735126Y+2639706D01*
X-4734478Y+2643185D01*
X-4734262Y+2647179D01*
X-4734694Y+2652361D01*
X-4735989Y+2657011D01*
X-4737683Y+2660000D01*
X-4740108Y+2662325D01*
X-4742997Y+2663819D01*
X-4746086Y+2664318D01*
X-4748623Y+2664044D01*
X-4750919Y+2663222D01*
X-4752974Y+2661852D01*
X-4754788Y+2659933D01*
X-4756270Y+2657451D01*
X-4757329Y+2654387D01*
X-4757964Y+2650742D01*
X-4758176Y+2646515D01*
X-4758176Y+2646515D01*
G37*
%LPD*%
%TD.AperFunction*%
%TA.AperFunction,NonConductor*%
G36*
X-4715663Y+2625790D02*
X-4715663Y+2636020D01*
X-4730808Y+2636020D01*
X-4730808Y+2640802D01*
X-4714865Y+2668436D01*
X-4711278Y+2668436D01*
X-4711278Y+2640802D01*
X-4706628Y+2640802D01*
X-4706628Y+2636020D01*
X-4711278Y+2636020D01*
X-4711278Y+2625790D01*
X-4715663Y+2625790D01*
X-4715663Y+2625790D01*
G37*
%LPC*%
G36*
X-4715663Y+2640802D02*
X-4715663Y+2659933D01*
X-4726557Y+2640802D01*
X-4715663Y+2640802D01*
X-4715663Y+2640802D01*
G37*
%LPD*%
%TD.AperFunction*%
%TDTrueTypeText*%
%TATrueTypeText,3:IO5,12:Arial Narrow,203200,-11984499,6910379,20490,MIR_NONE,0*%
%TA.AperFunction,NonConductor*%
G36*
X-4751919Y+2699365D02*
X-4751919Y+2742011D01*
X-4747269Y+2742011D01*
X-4747269Y+2699365D01*
X-4751919Y+2699365D01*
X-4751919Y+2699365D01*
G37*
%TD.AperFunction*%
%TA.AperFunction,NonConductor*%
G36*
X-4737039Y+2720090D02*
X-4736740Y+2725222D01*
X-4735843Y+2729722D01*
X-4734349Y+2733591D01*
X-4732256Y+2736830D01*
X-4729715Y+2739387D01*
X-4726876Y+2741214D01*
X-4723737Y+2742310D01*
X-4720299Y+2742675D01*
X-4718082Y+2742514D01*
X-4715948Y+2742028D01*
X-4711929Y+2740085D01*
X-4710107Y+2738640D01*
X-4708492Y+2736896D01*
X-4707084Y+2734854D01*
X-4705885Y+2732512D01*
X-4704926Y+2729901D01*
X-4704240Y+2727048D01*
X-4703692Y+2720622D01*
X-4703958Y+2716121D01*
X-4704755Y+2712052D01*
X-4706084Y+2708415D01*
X-4707944Y+2705210D01*
X-4710518Y+2702362D01*
X-4713457Y+2700328D01*
X-4716762Y+2699107D01*
X-4720432Y+2698700D01*
X-4724094Y+2699116D01*
X-4727374Y+2700361D01*
X-4730272Y+2702437D01*
X-4732788Y+2705343D01*
X-4734648Y+2708557D01*
X-4735976Y+2712086D01*
X-4736773Y+2715930D01*
X-4737039Y+2720090D01*
X-4737039Y+2720090D01*
G37*
%LPC*%
G36*
X-4732389Y+2720090D02*
X-4732169Y+2716333D01*
X-4731509Y+2713032D01*
X-4730409Y+2710188D01*
X-4728868Y+2707801D01*
X-4727021Y+2705912D01*
X-4724999Y+2704563D01*
X-4722803Y+2703753D01*
X-4720432Y+2703483D01*
X-4718008Y+2703757D01*
X-4715782Y+2704579D01*
X-4713756Y+2705949D01*
X-4711929Y+2707867D01*
X-4710418Y+2710317D01*
X-4709339Y+2713281D01*
X-4708691Y+2716760D01*
X-4708475Y+2720754D01*
X-4708907Y+2725936D01*
X-4710202Y+2730586D01*
X-4711896Y+2733575D01*
X-4714321Y+2735900D01*
X-4717210Y+2737394D01*
X-4720299Y+2737893D01*
X-4722836Y+2737619D01*
X-4725132Y+2736797D01*
X-4727187Y+2735427D01*
X-4729001Y+2733508D01*
X-4730483Y+2731026D01*
X-4731542Y+2727962D01*
X-4732177Y+2724317D01*
X-4732389Y+2720090D01*
X-4732389Y+2720090D01*
G37*
%LPD*%
%TD.AperFunction*%
%TA.AperFunction,NonConductor*%
G36*
X-4703560Y+2710525D02*
X-4699043Y+2711056D01*
X-4698196Y+2707469D01*
X-4696718Y+2704945D01*
X-4694741Y+2703450D01*
X-4692400Y+2702952D01*
X-4690926Y+2703126D01*
X-4689560Y+2703649D01*
X-4688302Y+2704521D01*
X-4687152Y+2705742D01*
X-4686193Y+2707270D01*
X-4685508Y+2709063D01*
X-4684960Y+2713447D01*
X-4685491Y+2717466D01*
X-4686156Y+2719102D01*
X-4687086Y+2720489D01*
X-4688223Y+2721593D01*
X-4689510Y+2722382D01*
X-4690947Y+2722855D01*
X-4692533Y+2723013D01*
X-4694359Y+2722747D01*
X-4696120Y+2721950D01*
X-4697648Y+2720655D01*
X-4698777Y+2718894D01*
X-4702895Y+2719559D01*
X-4699441Y+2741480D01*
X-4682037Y+2741480D01*
X-4682037Y+2736431D01*
X-4695987Y+2736431D01*
X-4697847Y+2725006D01*
X-4694692Y+2726999D01*
X-4693039Y+2727497D01*
X-4691337Y+2727663D01*
X-4689215Y+2727430D01*
X-4687235Y+2726733D01*
X-4685396Y+2725570D01*
X-4683698Y+2723943D01*
X-4682274Y+2721917D01*
X-4681257Y+2719559D01*
X-4680646Y+2716868D01*
X-4680443Y+2713846D01*
X-4680646Y+2710836D01*
X-4681257Y+2708050D01*
X-4682274Y+2705488D01*
X-4683698Y+2703151D01*
X-4685462Y+2701204D01*
X-4687501Y+2699813D01*
X-4689813Y+2698979D01*
X-4692400Y+2698700D01*
X-4694571Y+2698896D01*
X-4696568Y+2699481D01*
X-4698391Y+2700457D01*
X-4700039Y+2701823D01*
X-4701430Y+2703537D01*
X-4702480Y+2705559D01*
X-4703190Y+2707888D01*
X-4703560Y+2710525D01*
X-4703560Y+2710525D01*
G37*
%TD.AperFunction*%
%TDTrueTypeText*%
D49*
X-6137443Y+3274016D02*
X-6138668Y+3274354D01*
X-6137443Y+3274016D01*
X-6106651Y+3341531D02*
X-6108596Y+3338348D01*
X-6110874Y+3336592D01*
X-6114243Y+3335683D01*
X-6121673Y+3337565D01*
X-6128119Y+3339648D01*
X-6130613Y+3342300D01*
X-6132049Y+3346906D01*
X-6132067Y+3347294D01*
X-6125404Y+3369191D01*
X-6119520Y+3367393D01*
X-6124764Y+3350138D01*
X-6124740Y+3349694D01*
X-6122863Y+3346042D01*
X-6119161Y+3344808D01*
X-6115785Y+3343793D01*
X-6115346Y+3343816D01*
X-6112371Y+3345464D01*
X-6112087Y+3345849D01*
X-6109361Y+3354710D01*
X-6106637Y+3363572D01*
X-6100431Y+3361675D01*
X-6103430Y+3351894D01*
X-6106651Y+3341531D01*
X-6106652Y+3341531D02*
X-6106652Y+3341531D01*
X-6098615Y+3391054D02*
X-6099009Y+3393300D01*
X-6100058Y+3394334D01*
X-6103318Y+3395478D01*
X-6107705Y+3396545D01*
X-6110955Y+3394374D01*
X-6113091Y+3387738D01*
X-6114981Y+3381558D01*
X-6114939Y+3381014D01*
X-6114269Y+3378676D01*
X-6113529Y+3377620D01*
X-6113160Y+3377283D01*
X-6110201Y+3376361D01*
X-6105808Y+3375363D01*
X-6104031Y+3375885D01*
X-6102894Y+3377095D01*
X-6098615Y+3391054D01*
X-6098615Y+3391054D01*
X-6108011Y+3408408D02*
X-6108011Y+3408408D01*
M02*
