G04 PROTEUS GERBER X2 FILE*
%TF.GenerationSoftware,Labcenter,Proteus,9.1-SP2-Build42460*%
%TF.CreationDate,2026-08-03T05:25:27+00:00*%
%TF.FileFunction,Paste,Top*%
%TF.FilePolarity,Positive*%
%TF.Part,Single*%
%TF.SameCoordinates,{e8ae4007-3e72-403a-9a00-08be4b74e47f}*%
%FSLAX26Y26*%
%MOIN*%
G01*
%TA.AperFunction,Material*%
%ADD82R,0.039370X0.110236*%
%TA.AperFunction,Material*%
%ADD83R,0.040000X0.050000*%
%ADD84R,0.050000X0.040000*%
%TA.AperFunction,Material*%
%ADD85R,0.059055X0.025591*%
%TA.AperFunction,Material*%
%ADD86R,0.025000X0.020000*%
%TA.AperFunction,Material*%
%ADD87R,0.016000X0.035000*%
%TA.AperFunction,Material*%
%ADD88R,0.035000X0.040000*%
%ADD89R,0.040000X0.035000*%
%TA.AperFunction,Material*%
%ADD90R,0.040000X0.100000*%
%TA.AperFunction,Material*%
%ADD91R,0.035000X0.026000*%
%TA.AperFunction,Material*%
%ADD92R,0.023622X0.061024*%
%ADD93R,0.011811X0.061024*%
%TA.AperFunction,Material*%
%ADD94R,0.023622X0.033465*%
%TA.AperFunction,Material*%
%ADD95R,0.055000X0.030000*%
%TA.AperFunction,Profile*%
%ADD44C,0.004000*%
%TD.AperFunction*%
D82*
X-5205000Y+2422772D03*
X-5205000Y+2596000D03*
X-5145945Y+2422772D03*
X-5145945Y+2596000D03*
X-5086890Y+2422772D03*
X-5086890Y+2596000D03*
D83*
X-5977000Y+3400000D03*
X-5893000Y+3400000D03*
D84*
X-4805000Y+2694000D03*
X-4805000Y+2610000D03*
X-4885000Y+2694000D03*
X-4885000Y+2610000D03*
X-4988000Y+2695000D03*
X-4988000Y+2611000D03*
D85*
X-5912598Y+3205000D03*
X-5912598Y+3155000D03*
X-5912598Y+3105000D03*
X-5912598Y+3055000D03*
X-5700000Y+3055000D03*
X-5700000Y+3105000D03*
X-5700000Y+3155000D03*
X-5700000Y+3205000D03*
D83*
X-5928000Y+3298000D03*
X-5844000Y+3298000D03*
X-6026500Y+2920000D03*
X-5942500Y+2920000D03*
X-5935000Y+2780000D03*
X-6019000Y+2780000D03*
X-5975000Y+3610000D03*
X-5891000Y+3610000D03*
X-5844000Y+2920000D03*
X-5760000Y+2920000D03*
D84*
X-5842520Y+2780850D03*
X-5842520Y+2696850D03*
X-5730000Y+3776000D03*
X-5730000Y+3860000D03*
X-5035433Y+3711276D03*
X-5035433Y+3795276D03*
D83*
X-5749000Y+3515000D03*
X-5665000Y+3515000D03*
D86*
X-5735000Y+3695000D03*
X-5735000Y+3658000D03*
X-5735000Y+3620000D03*
X-5641000Y+3620000D03*
X-5641000Y+3695000D03*
D87*
X-4893701Y+3562992D03*
X-4868110Y+3562992D03*
X-4842520Y+3562992D03*
X-4842520Y+3649606D03*
X-4868110Y+3649606D03*
X-4893701Y+3649606D03*
D88*
X-4940000Y+3930000D03*
X-4977000Y+3855000D03*
X-5014000Y+3930000D03*
D89*
X-5475000Y+3605000D03*
X-5400000Y+3568000D03*
X-5475000Y+3531000D03*
D90*
X-4928268Y+3759843D03*
X-4858268Y+3759843D03*
D91*
X-5146000Y+3587803D03*
X-5146000Y+3513000D03*
X-5055449Y+3550402D03*
D84*
X-4675000Y+3514000D03*
X-4675000Y+3430000D03*
X-5580000Y+3644000D03*
X-5580000Y+3560000D03*
X-5244094Y+3522299D03*
X-5244094Y+3606299D03*
X-4755906Y+3780850D03*
X-4755906Y+3696850D03*
X-5645000Y+3776000D03*
X-5645000Y+3860000D03*
X-5885000Y+3685000D03*
X-5885000Y+3769000D03*
X-4964567Y+3531496D03*
X-4964567Y+3615496D03*
X-4755906Y+3539370D03*
X-4755906Y+3623370D03*
X-4669291Y+3589228D03*
X-4669291Y+3673228D03*
D92*
X-5186614Y+3850000D03*
X-5218110Y+3850000D03*
D93*
X-5261811Y+3850000D03*
X-5301181Y+3850000D03*
X-5320866Y+3850000D03*
X-5360236Y+3850000D03*
D92*
X-5435433Y+3850000D03*
X-5403937Y+3850000D03*
D93*
X-5379921Y+3850000D03*
X-5340551Y+3850000D03*
X-5281496Y+3850000D03*
X-5242126Y+3850000D03*
D84*
X-5362000Y+3617000D03*
X-5362000Y+3701000D03*
D94*
X-5686000Y+3437000D03*
X-5760803Y+3437000D03*
X-5723402Y+3346449D03*
D95*
X-4550000Y+3425000D03*
X-4550425Y+3358142D03*
D84*
X-4590000Y+3475000D03*
X-4590000Y+3559000D03*
D83*
X-4525000Y+3295000D03*
X-4609000Y+3295000D03*
D44*
X-5093425Y+4084528D02*
X-5069449Y+4056969D01*
X-5068764Y+4019441D01*
X-5045638Y+4016441D01*
X-5044386Y+4016315D01*
X-5045071Y+4016252D01*
X-5044630Y+4016126D01*
X-5044252Y+4016063D01*
X-5027063Y+4012000D01*
X-4997063Y+3999000D01*
X-4963063Y+3985000D01*
X-4928063Y+3971000D01*
X-4895063Y+3952000D01*
X-4876063Y+3941000D01*
X-4854063Y+3929000D01*
X-4835063Y+3918000D01*
X-4821063Y+3909000D01*
X-4805063Y+3896000D01*
X-4788063Y+3884000D01*
X-4751063Y+3855000D01*
X-4731063Y+3839000D01*
X-4716063Y+3825000D01*
X-4698063Y+3808000D01*
X-4683063Y+3793000D01*
X-4667063Y+3775000D01*
X-4648063Y+3753000D01*
X-4635063Y+3736000D01*
X-4624063Y+3721000D01*
X-4608063Y+3700000D01*
X-4595063Y+3683000D01*
X-4575063Y+3653000D01*
X-4560063Y+3627000D01*
X-4534063Y+3582000D01*
X-4526063Y+3565000D01*
X-4487063Y+3471000D01*
X-4457063Y+3360000D01*
X-4442063Y+3249000D01*
X-4440063Y+3189000D01*
X-4442063Y+3138000D01*
X-4450063Y+3069000D01*
X-4458063Y+3015000D01*
X-4473063Y+2957000D01*
X-4489063Y+2904000D01*
X-4512063Y+2852000D01*
X-4533063Y+2798000D01*
X-4583063Y+2712000D01*
X-4640063Y+2637000D01*
X-4669063Y+2602000D01*
X-4743063Y+2530000D01*
X-4795063Y+2492000D01*
X-4841063Y+2458000D01*
X-4879063Y+2437000D01*
X-4933063Y+2406000D01*
X-4981063Y+2387000D01*
X-5037063Y+2364000D01*
X-5105063Y+2346000D01*
X-5161063Y+2333000D01*
X-5215063Y+2327000D01*
X-5281063Y+2318000D01*
X-5372063Y+2322000D01*
X-5440063Y+2331000D01*
X-5495063Y+2341000D01*
X-5574063Y+2362000D01*
X-5632063Y+2384000D01*
X-5676063Y+2402000D01*
X-5722063Y+2424000D01*
X-5768063Y+2452000D01*
X-5799063Y+2471000D01*
X-5833063Y+2497000D01*
X-5864063Y+2522000D01*
X-5895063Y+2546000D01*
X-5967063Y+2620000D01*
X-6008063Y+2673000D01*
X-6036063Y+2711000D01*
X-6047063Y+2730000D01*
X-6056063Y+2747000D01*
X-6069063Y+2769000D01*
X-6091063Y+2808000D01*
X-6109063Y+2850000D01*
X-6125063Y+2889000D01*
X-6137063Y+2923000D01*
X-6148063Y+2969000D01*
X-6158063Y+3003000D01*
X-6164063Y+3025000D01*
X-6172063Y+3087000D01*
X-6178063Y+3132000D01*
X-6180063Y+3196000D01*
X-6178063Y+3246000D01*
X-6165063Y+3345000D01*
X-6162063Y+3363000D01*
X-6140063Y+3444000D01*
X-6132063Y+3474000D01*
X-6117063Y+3509000D01*
X-6106063Y+3536000D01*
X-6090063Y+3575000D01*
X-6057063Y+3632000D01*
X-6034063Y+3671000D01*
X-5994063Y+3724000D01*
X-5959063Y+3768000D01*
X-5923063Y+3807000D01*
X-5890063Y+3837000D01*
X-5875063Y+3850000D01*
X-5796063Y+3911000D01*
X-5698063Y+3968000D01*
X-5621063Y+4001000D01*
X-5552063Y+4013000D01*
X-5552378Y+4059551D01*
X-5527504Y+4084307D01*
X-5360890Y+4084866D01*
X-5105276Y+4084866D01*
X-5093724Y+4085299D01*
X-5093425Y+4084528D01*
M02*
