G04 PROTEUS GERBER X2 FILE*
%TF.GenerationSoftware,Labcenter,Proteus,9.1-SP2-Build42460*%
%TF.CreationDate,2026-08-03T05:25:27+00:00*%
%TF.FileFunction,AssemblyDrawing,Top*%
%TF.FilePolarity,Positive*%
%TF.Part,Single*%
%TF.SameCoordinates,{e8ae4007-3e72-403a-9a00-08be4b74e47f}*%
%FSLAX26Y26*%
%MOIN*%
G01*
%TA.AperFunction,Profile*%
%ADD44C,0.004000*%
%TA.AperFunction,Material*%
%ADD47C,0.004000*%
%ADD96C,0.047559*%
%TA.AperFunction,Material*%
%ADD97C,0.019330*%
%ADD45C,0.003937*%
%ADD98C,0.035433*%
%TA.AperFunction,Material*%
%ADD99C,0.007211*%
%ADD100C,0.020000*%
%TA.AperFunction,Material*%
%ADD101C,0.003000*%
%TA.AperFunction,Material*%
%ADD102C,0.001969*%
%ADD103C,0.023031*%
%TA.AperFunction,Material*%
%ADD104C,0.006440*%
%TA.AperFunction,Material*%
%ADD105C,0.010000*%
%TA.AperFunction,Material*%
%ADD106C,0.003667*%
%ADD107C,0.014000*%
%TA.AperFunction,Material*%
%ADD108C,0.003607*%
%TA.AperFunction,Material*%
%ADD109C,0.036000*%
%TA.AperFunction,Material*%
%ADD110C,0.003481*%
%TA.AperFunction,Material*%
%ADD111C,0.004548*%
%TA.AperFunction,Material*%
%ADD112C,0.016850*%
%TA.AperFunction,Material*%
%ADD113C,0.001867*%
%TA.AperFunction,Material*%
%ADD114C,0.001400*%
%TA.AperFunction,Material*%
%ADD115C,0.031187*%
%TA.AperFunction,Material*%
%ADD116C,0.014389*%
%ADD117C,0.021260*%
%TA.AperFunction,Material*%
%ADD118C,0.015353*%
%TA.AperFunction,Material*%
%ADD119C,0.013386*%
%TA.AperFunction,Material*%
%ADD120C,0.022000*%
%TA.AperFunction,Material*%
%ADD121C,0.002624*%
%TD.AperFunction*%
D44*
X-5093425Y+4084528D02*
X-5069449Y+4056969D01*
X-5068764Y+4019441D01*
X-5045638Y+4016441D01*
X-5044386Y+4016315D01*
X-5045071Y+4016252D01*
X-5044630Y+4016126D01*
X-5044252Y+4016063D01*
X-5027063Y+4012000D01*
X-4997063Y+3999000D01*
X-4963063Y+3985000D01*
X-4928063Y+3971000D01*
X-4895063Y+3952000D01*
X-4876063Y+3941000D01*
X-4854063Y+3929000D01*
X-4835063Y+3918000D01*
X-4821063Y+3909000D01*
X-4805063Y+3896000D01*
X-4788063Y+3884000D01*
X-4751063Y+3855000D01*
X-4731063Y+3839000D01*
X-4716063Y+3825000D01*
X-4698063Y+3808000D01*
X-4683063Y+3793000D01*
X-4667063Y+3775000D01*
X-4648063Y+3753000D01*
X-4635063Y+3736000D01*
X-4624063Y+3721000D01*
X-4608063Y+3700000D01*
X-4595063Y+3683000D01*
X-4575063Y+3653000D01*
X-4560063Y+3627000D01*
X-4534063Y+3582000D01*
X-4526063Y+3565000D01*
X-4487063Y+3471000D01*
X-4457063Y+3360000D01*
X-4442063Y+3249000D01*
X-4440063Y+3189000D01*
X-4442063Y+3138000D01*
X-4450063Y+3069000D01*
X-4458063Y+3015000D01*
X-4473063Y+2957000D01*
X-4489063Y+2904000D01*
X-4512063Y+2852000D01*
X-4533063Y+2798000D01*
X-4583063Y+2712000D01*
X-4640063Y+2637000D01*
X-4669063Y+2602000D01*
X-4743063Y+2530000D01*
X-4795063Y+2492000D01*
X-4841063Y+2458000D01*
X-4879063Y+2437000D01*
X-4933063Y+2406000D01*
X-4981063Y+2387000D01*
X-5037063Y+2364000D01*
X-5105063Y+2346000D01*
X-5161063Y+2333000D01*
X-5215063Y+2327000D01*
X-5281063Y+2318000D01*
X-5372063Y+2322000D01*
X-5440063Y+2331000D01*
X-5495063Y+2341000D01*
X-5574063Y+2362000D01*
X-5632063Y+2384000D01*
X-5676063Y+2402000D01*
X-5722063Y+2424000D01*
X-5768063Y+2452000D01*
X-5799063Y+2471000D01*
X-5833063Y+2497000D01*
X-5864063Y+2522000D01*
X-5895063Y+2546000D01*
X-5967063Y+2620000D01*
X-6008063Y+2673000D01*
X-6036063Y+2711000D01*
X-6047063Y+2730000D01*
X-6056063Y+2747000D01*
X-6069063Y+2769000D01*
X-6091063Y+2808000D01*
X-6109063Y+2850000D01*
X-6125063Y+2889000D01*
X-6137063Y+2923000D01*
X-6148063Y+2969000D01*
X-6158063Y+3003000D01*
X-6164063Y+3025000D01*
X-6172063Y+3087000D01*
X-6178063Y+3132000D01*
X-6180063Y+3196000D01*
X-6178063Y+3246000D01*
X-6165063Y+3345000D01*
X-6162063Y+3363000D01*
X-6140063Y+3444000D01*
X-6132063Y+3474000D01*
X-6117063Y+3509000D01*
X-6106063Y+3536000D01*
X-6090063Y+3575000D01*
X-6057063Y+3632000D01*
X-6034063Y+3671000D01*
X-5994063Y+3724000D01*
X-5959063Y+3768000D01*
X-5923063Y+3807000D01*
X-5890063Y+3837000D01*
X-5875063Y+3850000D01*
X-5796063Y+3911000D01*
X-5698063Y+3968000D01*
X-5621063Y+4001000D01*
X-5552063Y+4013000D01*
X-5552378Y+4059551D01*
X-5527504Y+4084307D01*
X-5360890Y+4084866D01*
X-5105276Y+4084866D01*
X-5093724Y+4085299D01*
X-5093425Y+4084528D01*
D47*
X-5580000Y+2795000D02*
X-4720000Y+2795000D01*
X-4720000Y+3454780D01*
X-5580000Y+3454780D01*
X-5580000Y+2795000D01*
D96*
X-4750000Y+3424780D02*
X-4750000Y+3424780D01*
D97*
X-5350862Y+3182881D02*
X-5350862Y+3086230D01*
X-5329116Y+3066899D01*
X-5242129Y+3066899D01*
X-5220383Y+3086230D01*
X-5220383Y+3182881D01*
X-5133397Y+3144220D02*
X-5089904Y+3182881D01*
X-5089904Y+3066899D01*
D45*
X-5283740Y+2328283D02*
X-5008150Y+2328283D01*
X-5008150Y+2690488D01*
X-5283740Y+2690488D01*
X-5283740Y+2328283D01*
D98*
X-5205000Y+2422772D02*
X-5205000Y+2422772D01*
D99*
X-5210847Y+2544838D02*
X-5210847Y+2588107D01*
X-5178396Y+2588107D01*
X-5162171Y+2573684D01*
X-5162171Y+2559261D01*
X-5178396Y+2544838D01*
X-5210847Y+2544838D01*
X-5137832Y+2580895D02*
X-5129720Y+2588107D01*
X-5105382Y+2588107D01*
X-5097269Y+2580895D01*
X-5097269Y+2573684D01*
X-5105382Y+2566473D01*
X-5097269Y+2559261D01*
X-5097269Y+2552050D01*
X-5105382Y+2544838D01*
X-5129720Y+2544838D01*
X-5137832Y+2552050D01*
X-5121607Y+2566473D02*
X-5105382Y+2566473D01*
D47*
X-5997000Y+3373000D02*
X-5873000Y+3373000D01*
X-5873000Y+3425000D01*
X-5997000Y+3425000D01*
X-5997000Y+3373000D01*
D100*
X-5977000Y+3400000D02*
X-5977000Y+3400000D01*
D101*
X-5947000Y+3390000D02*
X-5947000Y+3408000D01*
X-5930125Y+3408000D01*
X-5926750Y+3405000D01*
X-5926750Y+3402000D01*
X-5930125Y+3399000D01*
X-5947000Y+3399000D01*
X-5930125Y+3399000D02*
X-5926750Y+3396000D01*
X-5926750Y+3390000D01*
X-5916625Y+3405000D02*
X-5913250Y+3408000D01*
X-5903125Y+3408000D01*
X-5899750Y+3405000D01*
X-5899750Y+3402000D01*
X-5903125Y+3399000D01*
X-5899750Y+3396000D01*
X-5899750Y+3393000D01*
X-5903125Y+3390000D01*
X-5913250Y+3390000D01*
X-5916625Y+3393000D01*
X-5909875Y+3399000D02*
X-5903125Y+3399000D01*
D47*
X-4832000Y+2590000D02*
X-4780000Y+2590000D01*
X-4780000Y+2714000D01*
X-4832000Y+2714000D01*
X-4832000Y+2590000D01*
D100*
X-4805000Y+2694000D02*
X-4805000Y+2694000D01*
D101*
X-4797000Y+2610000D02*
X-4815000Y+2610000D01*
X-4815000Y+2626875D01*
X-4812000Y+2630250D01*
X-4809000Y+2630250D01*
X-4806000Y+2626875D01*
X-4806000Y+2610000D01*
X-4806000Y+2626875D02*
X-4803000Y+2630250D01*
X-4797000Y+2630250D01*
X-4803000Y+2657250D02*
X-4803000Y+2637000D01*
X-4815000Y+2650500D01*
X-4797000Y+2650500D01*
D47*
X-4912000Y+2590000D02*
X-4860000Y+2590000D01*
X-4860000Y+2714000D01*
X-4912000Y+2714000D01*
X-4912000Y+2590000D01*
D100*
X-4885000Y+2694000D02*
X-4885000Y+2694000D01*
D101*
X-4877000Y+2610000D02*
X-4895000Y+2610000D01*
X-4895000Y+2626875D01*
X-4892000Y+2630250D01*
X-4889000Y+2630250D01*
X-4886000Y+2626875D01*
X-4886000Y+2610000D01*
X-4886000Y+2626875D02*
X-4883000Y+2630250D01*
X-4877000Y+2630250D01*
X-4895000Y+2657250D02*
X-4895000Y+2640375D01*
X-4889000Y+2640375D01*
X-4889000Y+2653875D01*
X-4886000Y+2657250D01*
X-4880000Y+2657250D01*
X-4877000Y+2653875D01*
X-4877000Y+2643750D01*
X-4880000Y+2640375D01*
D47*
X-5015000Y+2591000D02*
X-4963000Y+2591000D01*
X-4963000Y+2715000D01*
X-5015000Y+2715000D01*
X-5015000Y+2591000D01*
D100*
X-4988000Y+2695000D02*
X-4988000Y+2695000D01*
D101*
X-4980000Y+2611000D02*
X-4998000Y+2611000D01*
X-4998000Y+2627875D01*
X-4995000Y+2631250D01*
X-4992000Y+2631250D01*
X-4989000Y+2627875D01*
X-4989000Y+2611000D01*
X-4989000Y+2627875D02*
X-4986000Y+2631250D01*
X-4980000Y+2631250D01*
X-4995000Y+2658250D02*
X-4998000Y+2654875D01*
X-4998000Y+2644750D01*
X-4995000Y+2641375D01*
X-4983000Y+2641375D01*
X-4980000Y+2644750D01*
X-4980000Y+2654875D01*
X-4983000Y+2658250D01*
X-4986000Y+2658250D01*
X-4989000Y+2654875D01*
X-4989000Y+2641375D01*
D102*
X-5951969Y+3023701D02*
X-5660630Y+3023701D01*
X-5660630Y+3236299D01*
X-5951969Y+3236299D01*
X-5951969Y+3023701D01*
D103*
X-5912598Y+3205000D02*
X-5912598Y+3205000D01*
D104*
X-5838327Y+3149320D02*
X-5838327Y+3117119D01*
X-5831082Y+3110678D01*
X-5802101Y+3110678D01*
X-5794855Y+3117119D01*
X-5794855Y+3149320D01*
X-5773119Y+3142880D02*
X-5765873Y+3149320D01*
X-5744138Y+3149320D01*
X-5736892Y+3142880D01*
X-5736892Y+3136440D01*
X-5744138Y+3130000D01*
X-5736892Y+3123559D01*
X-5736892Y+3117119D01*
X-5744138Y+3110678D01*
X-5765873Y+3110678D01*
X-5773119Y+3117119D01*
X-5758628Y+3130000D02*
X-5744138Y+3130000D01*
D47*
X-5948000Y+3271000D02*
X-5824000Y+3271000D01*
X-5824000Y+3323000D01*
X-5948000Y+3323000D01*
X-5948000Y+3271000D01*
D100*
X-5928000Y+3298000D02*
X-5928000Y+3298000D01*
D101*
X-5877750Y+3291000D02*
X-5881125Y+3288000D01*
X-5891250Y+3288000D01*
X-5898000Y+3294000D01*
X-5898000Y+3300000D01*
X-5891250Y+3306000D01*
X-5881125Y+3306000D01*
X-5877750Y+3303000D01*
X-5850750Y+3306000D02*
X-5867625Y+3306000D01*
X-5867625Y+3300000D01*
X-5854125Y+3300000D01*
X-5850750Y+3297000D01*
X-5850750Y+3291000D01*
X-5854125Y+3288000D01*
X-5864250Y+3288000D01*
X-5867625Y+3291000D01*
D47*
X-6046500Y+2893000D02*
X-5922500Y+2893000D01*
X-5922500Y+2945000D01*
X-6046500Y+2945000D01*
X-6046500Y+2893000D01*
D100*
X-6026500Y+2920000D02*
X-6026500Y+2920000D01*
D101*
X-5996500Y+2910000D02*
X-5996500Y+2928000D01*
X-5979625Y+2928000D01*
X-5976250Y+2925000D01*
X-5976250Y+2922000D01*
X-5979625Y+2919000D01*
X-5996500Y+2919000D01*
X-5979625Y+2919000D02*
X-5976250Y+2916000D01*
X-5976250Y+2910000D01*
X-5962750Y+2922000D02*
X-5956000Y+2928000D01*
X-5956000Y+2910000D01*
D47*
X-6039000Y+2755000D02*
X-5915000Y+2755000D01*
X-5915000Y+2807000D01*
X-6039000Y+2807000D01*
X-6039000Y+2755000D01*
D100*
X-5935000Y+2780000D02*
X-5935000Y+2780000D01*
D101*
X-6019000Y+2772000D02*
X-6019000Y+2790000D01*
X-6002125Y+2790000D01*
X-5998750Y+2787000D01*
X-5998750Y+2784000D01*
X-6002125Y+2781000D01*
X-6019000Y+2781000D01*
X-6002125Y+2781000D02*
X-5998750Y+2778000D01*
X-5998750Y+2772000D01*
X-5988625Y+2787000D02*
X-5985250Y+2790000D01*
X-5975125Y+2790000D01*
X-5971750Y+2787000D01*
X-5971750Y+2784000D01*
X-5975125Y+2781000D01*
X-5985250Y+2781000D01*
X-5988625Y+2778000D01*
X-5988625Y+2772000D01*
X-5971750Y+2772000D01*
D47*
X-5995000Y+3583000D02*
X-5871000Y+3583000D01*
X-5871000Y+3635000D01*
X-5995000Y+3635000D01*
X-5995000Y+3583000D01*
D100*
X-5975000Y+3610000D02*
X-5975000Y+3610000D01*
D101*
X-5945000Y+3600000D02*
X-5945000Y+3618000D01*
X-5928125Y+3618000D01*
X-5924750Y+3615000D01*
X-5924750Y+3612000D01*
X-5928125Y+3609000D01*
X-5945000Y+3609000D01*
X-5928125Y+3609000D02*
X-5924750Y+3606000D01*
X-5924750Y+3600000D01*
X-5914625Y+3618000D02*
X-5897750Y+3618000D01*
X-5897750Y+3615000D01*
X-5914625Y+3600000D01*
D47*
X-5864000Y+2893000D02*
X-5740000Y+2893000D01*
X-5740000Y+2945000D01*
X-5864000Y+2945000D01*
X-5864000Y+2893000D01*
D100*
X-5844000Y+2920000D02*
X-5844000Y+2920000D01*
D101*
X-5793750Y+2913000D02*
X-5797125Y+2910000D01*
X-5807250Y+2910000D01*
X-5814000Y+2916000D01*
X-5814000Y+2922000D01*
X-5807250Y+2928000D01*
X-5797125Y+2928000D01*
X-5793750Y+2925000D01*
X-5783625Y+2925000D02*
X-5780250Y+2928000D01*
X-5770125Y+2928000D01*
X-5766750Y+2925000D01*
X-5766750Y+2922000D01*
X-5770125Y+2919000D01*
X-5766750Y+2916000D01*
X-5766750Y+2913000D01*
X-5770125Y+2910000D01*
X-5780250Y+2910000D01*
X-5783625Y+2913000D01*
X-5776875Y+2919000D02*
X-5770125Y+2919000D01*
D47*
X-5869520Y+2676850D02*
X-5817520Y+2676850D01*
X-5817520Y+2800850D01*
X-5869520Y+2800850D01*
X-5869520Y+2676850D01*
D100*
X-5842520Y+2780850D02*
X-5842520Y+2780850D01*
D101*
X-5837520Y+2717100D02*
X-5834520Y+2713725D01*
X-5834520Y+2703600D01*
X-5840520Y+2696850D01*
X-5846520Y+2696850D01*
X-5852520Y+2703600D01*
X-5852520Y+2713725D01*
X-5849520Y+2717100D01*
X-5840520Y+2744100D02*
X-5840520Y+2723850D01*
X-5852520Y+2737350D01*
X-5834520Y+2737350D01*
D47*
X-5755000Y+3756000D02*
X-5703000Y+3756000D01*
X-5703000Y+3880000D01*
X-5755000Y+3880000D01*
X-5755000Y+3756000D01*
D100*
X-5730000Y+3776000D02*
X-5730000Y+3776000D01*
D101*
X-5723000Y+3826250D02*
X-5720000Y+3822875D01*
X-5720000Y+3812750D01*
X-5726000Y+3806000D01*
X-5732000Y+3806000D01*
X-5738000Y+3812750D01*
X-5738000Y+3822875D01*
X-5735000Y+3826250D01*
X-5735000Y+3836375D02*
X-5738000Y+3839750D01*
X-5738000Y+3849875D01*
X-5735000Y+3853250D01*
X-5732000Y+3853250D01*
X-5729000Y+3849875D01*
X-5729000Y+3839750D01*
X-5726000Y+3836375D01*
X-5720000Y+3836375D01*
X-5720000Y+3853250D01*
D47*
X-5060433Y+3691276D02*
X-5008433Y+3691276D01*
X-5008433Y+3815276D01*
X-5060433Y+3815276D01*
X-5060433Y+3691276D01*
D100*
X-5035433Y+3711276D02*
X-5035433Y+3711276D01*
D101*
X-5028433Y+3761526D02*
X-5025433Y+3758151D01*
X-5025433Y+3748026D01*
X-5031433Y+3741276D01*
X-5037433Y+3741276D01*
X-5043433Y+3748026D01*
X-5043433Y+3758151D01*
X-5040433Y+3761526D01*
X-5037433Y+3775026D02*
X-5043433Y+3781776D01*
X-5025433Y+3781776D01*
D47*
X-5769000Y+3488000D02*
X-5645000Y+3488000D01*
X-5645000Y+3540000D01*
X-5769000Y+3540000D01*
X-5769000Y+3488000D01*
D100*
X-5749000Y+3515000D02*
X-5749000Y+3515000D01*
D101*
X-5712250Y+3508000D02*
X-5715625Y+3505000D01*
X-5725750Y+3505000D01*
X-5732500Y+3511000D01*
X-5732500Y+3517000D01*
X-5725750Y+3523000D01*
X-5715625Y+3523000D01*
X-5712250Y+3520000D01*
X-5698750Y+3517000D02*
X-5692000Y+3523000D01*
X-5692000Y+3505000D01*
X-5658250Y+3523000D02*
X-5675125Y+3523000D01*
X-5675125Y+3517000D01*
X-5661625Y+3517000D01*
X-5658250Y+3514000D01*
X-5658250Y+3508000D01*
X-5661625Y+3505000D01*
X-5671750Y+3505000D01*
X-5675125Y+3508000D01*
D47*
X-5747500Y+3599500D02*
X-5628500Y+3599500D01*
X-5628500Y+3713500D01*
X-5747500Y+3713500D01*
X-5747500Y+3599500D01*
D105*
X-5735000Y+3695000D02*
X-5735000Y+3695000D01*
D106*
X-5690250Y+3623500D02*
X-5671917Y+3623500D01*
X-5668250Y+3627625D01*
X-5668250Y+3644124D01*
X-5671917Y+3648250D01*
X-5690250Y+3648250D01*
X-5690250Y+3681250D02*
X-5690250Y+3660625D01*
X-5682917Y+3660625D01*
X-5682917Y+3677124D01*
X-5679250Y+3681250D01*
X-5671917Y+3681250D01*
X-5668250Y+3677124D01*
X-5668250Y+3664750D01*
X-5671917Y+3660625D01*
D47*
X-4933071Y+3545276D02*
X-4820866Y+3545276D01*
X-4820866Y+3667106D01*
X-4933071Y+3667106D01*
X-4933071Y+3545276D01*
D107*
X-4893701Y+3562992D02*
X-4893701Y+3562992D01*
D108*
X-4909430Y+3629369D02*
X-4909430Y+3611335D01*
X-4905373Y+3607728D01*
X-4889142Y+3607728D01*
X-4885084Y+3611335D01*
X-4885084Y+3629369D01*
X-4872912Y+3629369D02*
X-4852623Y+3629369D01*
X-4852623Y+3625763D01*
X-4872912Y+3607728D01*
D47*
X-5036000Y+3835000D02*
X-4918000Y+3835000D01*
X-4918000Y+3950000D01*
X-5036000Y+3950000D01*
X-5036000Y+3835000D01*
D106*
X-5009880Y+3881539D02*
X-5009880Y+3903459D01*
X-4993440Y+3903459D01*
X-4985221Y+3896153D01*
X-4985221Y+3888846D01*
X-4993440Y+3881539D01*
X-5009880Y+3881539D01*
X-4968780Y+3896153D02*
X-4960560Y+3903459D01*
X-4960560Y+3881539D01*
D47*
X-5495000Y+3509000D02*
X-5380000Y+3509000D01*
X-5380000Y+3627000D01*
X-5495000Y+3627000D01*
X-5495000Y+3509000D01*
D106*
X-5426539Y+3535120D02*
X-5448459Y+3535120D01*
X-5448459Y+3551560D01*
X-5441153Y+3559779D01*
X-5433846Y+3559779D01*
X-5426539Y+3551560D01*
X-5426539Y+3535120D01*
X-5444806Y+3572110D02*
X-5448459Y+3576220D01*
X-5448459Y+3588550D01*
X-5444806Y+3592659D01*
X-5441153Y+3592659D01*
X-5437500Y+3588550D01*
X-5437500Y+3576220D01*
X-5433846Y+3572110D01*
X-5426539Y+3572110D01*
X-5426539Y+3592659D01*
D47*
X-4948268Y+3705630D02*
X-4838268Y+3705630D01*
X-4838268Y+3814055D01*
X-4948268Y+3814055D01*
X-4948268Y+3705630D01*
D109*
X-4928268Y+3759843D02*
X-4928268Y+3759843D01*
D110*
X-4884710Y+3728515D02*
X-4863825Y+3728515D01*
X-4863825Y+3752010D01*
X-4877749Y+3767673D02*
X-4884710Y+3775505D01*
X-4863825Y+3775505D01*
D102*
X-5173559Y+3479535D02*
X-5027890Y+3479535D01*
X-5027890Y+3621268D01*
X-5173559Y+3621268D01*
X-5173559Y+3479535D01*
X-5100724Y+3570087D02*
X-5100724Y+3530717D01*
X-5081039Y+3550402D02*
X-5120409Y+3550402D01*
D107*
X-5146000Y+3587803D02*
X-5146000Y+3587803D01*
D111*
X-5087501Y+3509463D02*
X-5096599Y+3519698D01*
X-5096599Y+3529932D01*
X-5087501Y+3540167D01*
X-5078404Y+3540167D01*
X-5069306Y+3529932D01*
X-5069306Y+3519698D01*
X-5078404Y+3509463D01*
X-5087501Y+3509463D01*
X-5078404Y+3529932D02*
X-5069306Y+3540167D01*
X-5087501Y+3560637D02*
X-5096599Y+3570871D01*
X-5069306Y+3570871D01*
D47*
X-4702000Y+3410000D02*
X-4650000Y+3410000D01*
X-4650000Y+3534000D01*
X-4702000Y+3534000D01*
X-4702000Y+3410000D01*
D100*
X-4675000Y+3514000D02*
X-4675000Y+3514000D01*
D101*
X-4667000Y+3416500D02*
X-4685000Y+3416500D01*
X-4685000Y+3433375D01*
X-4682000Y+3436750D01*
X-4679000Y+3436750D01*
X-4676000Y+3433375D01*
X-4676000Y+3416500D01*
X-4676000Y+3433375D02*
X-4673000Y+3436750D01*
X-4667000Y+3436750D01*
X-4682000Y+3446875D02*
X-4685000Y+3450250D01*
X-4685000Y+3460375D01*
X-4682000Y+3463750D01*
X-4679000Y+3463750D01*
X-4676000Y+3460375D01*
X-4676000Y+3450250D01*
X-4673000Y+3446875D01*
X-4667000Y+3446875D01*
X-4667000Y+3463750D01*
X-4670000Y+3470500D02*
X-4682000Y+3470500D01*
X-4685000Y+3473875D01*
X-4685000Y+3487375D01*
X-4682000Y+3490750D01*
X-4670000Y+3490750D01*
X-4667000Y+3487375D01*
X-4667000Y+3473875D01*
X-4670000Y+3470500D01*
X-4667000Y+3470500D02*
X-4685000Y+3490750D01*
D47*
X-5607000Y+3540000D02*
X-5555000Y+3540000D01*
X-5555000Y+3664000D01*
X-5607000Y+3664000D01*
X-5607000Y+3540000D01*
D100*
X-5580000Y+3644000D02*
X-5580000Y+3644000D01*
D101*
X-5572000Y+3546500D02*
X-5590000Y+3546500D01*
X-5590000Y+3563375D01*
X-5587000Y+3566750D01*
X-5584000Y+3566750D01*
X-5581000Y+3563375D01*
X-5581000Y+3546500D01*
X-5581000Y+3563375D02*
X-5578000Y+3566750D01*
X-5572000Y+3566750D01*
X-5584000Y+3580250D02*
X-5590000Y+3587000D01*
X-5572000Y+3587000D01*
X-5584000Y+3620750D02*
X-5581000Y+3617375D01*
X-5581000Y+3607250D01*
X-5584000Y+3603875D01*
X-5587000Y+3603875D01*
X-5590000Y+3607250D01*
X-5590000Y+3617375D01*
X-5587000Y+3620750D01*
X-5575000Y+3620750D01*
X-5572000Y+3617375D01*
X-5572000Y+3607250D01*
D47*
X-5269094Y+3502299D02*
X-5217094Y+3502299D01*
X-5217094Y+3626299D01*
X-5269094Y+3626299D01*
X-5269094Y+3502299D01*
D100*
X-5244094Y+3522299D02*
X-5244094Y+3522299D01*
D101*
X-5234094Y+3538799D02*
X-5252094Y+3538799D01*
X-5252094Y+3555674D01*
X-5249094Y+3559049D01*
X-5246094Y+3559049D01*
X-5243094Y+3555674D01*
X-5243094Y+3538799D01*
X-5243094Y+3555674D02*
X-5240094Y+3559049D01*
X-5234094Y+3559049D01*
X-5246094Y+3572549D02*
X-5252094Y+3579299D01*
X-5234094Y+3579299D01*
X-5237094Y+3592799D02*
X-5249094Y+3592799D01*
X-5252094Y+3596174D01*
X-5252094Y+3609674D01*
X-5249094Y+3613049D01*
X-5237094Y+3613049D01*
X-5234094Y+3609674D01*
X-5234094Y+3596174D01*
X-5237094Y+3592799D01*
X-5234094Y+3592799D02*
X-5252094Y+3613049D01*
D47*
X-4782906Y+3676850D02*
X-4730906Y+3676850D01*
X-4730906Y+3800850D01*
X-4782906Y+3800850D01*
X-4782906Y+3676850D01*
D100*
X-4755906Y+3780850D02*
X-4755906Y+3780850D01*
D101*
X-4747906Y+3696850D02*
X-4765906Y+3696850D01*
X-4765906Y+3713725D01*
X-4762906Y+3717100D01*
X-4759906Y+3717100D01*
X-4756906Y+3713725D01*
X-4756906Y+3696850D01*
X-4756906Y+3713725D02*
X-4753906Y+3717100D01*
X-4747906Y+3717100D01*
X-4756906Y+3730600D02*
X-4759906Y+3727225D01*
X-4762906Y+3727225D01*
X-4765906Y+3730600D01*
X-4765906Y+3740725D01*
X-4762906Y+3744100D01*
X-4759906Y+3744100D01*
X-4756906Y+3740725D01*
X-4756906Y+3730600D01*
X-4753906Y+3727225D01*
X-4750906Y+3727225D01*
X-4747906Y+3730600D01*
X-4747906Y+3740725D01*
X-4750906Y+3744100D01*
X-4753906Y+3744100D01*
X-4756906Y+3740725D01*
D47*
X-5670000Y+3756000D02*
X-5618000Y+3756000D01*
X-5618000Y+3880000D01*
X-5670000Y+3880000D01*
X-5670000Y+3756000D01*
D100*
X-5645000Y+3776000D02*
X-5645000Y+3776000D01*
D101*
X-5635000Y+3806000D02*
X-5653000Y+3806000D01*
X-5653000Y+3822875D01*
X-5650000Y+3826250D01*
X-5647000Y+3826250D01*
X-5644000Y+3822875D01*
X-5644000Y+3806000D01*
X-5644000Y+3822875D02*
X-5641000Y+3826250D01*
X-5635000Y+3826250D01*
X-5647000Y+3853250D02*
X-5644000Y+3849875D01*
X-5644000Y+3839750D01*
X-5647000Y+3836375D01*
X-5650000Y+3836375D01*
X-5653000Y+3839750D01*
X-5653000Y+3849875D01*
X-5650000Y+3853250D01*
X-5638000Y+3853250D01*
X-5635000Y+3849875D01*
X-5635000Y+3839750D01*
D47*
X-5910000Y+3665000D02*
X-5858000Y+3665000D01*
X-5858000Y+3789000D01*
X-5910000Y+3789000D01*
X-5910000Y+3665000D01*
D100*
X-5885000Y+3685000D02*
X-5885000Y+3685000D01*
D101*
X-5878000Y+3721750D02*
X-5875000Y+3718375D01*
X-5875000Y+3708250D01*
X-5881000Y+3701500D01*
X-5887000Y+3701500D01*
X-5893000Y+3708250D01*
X-5893000Y+3718375D01*
X-5890000Y+3721750D01*
X-5887000Y+3735250D02*
X-5893000Y+3742000D01*
X-5875000Y+3742000D01*
X-5890000Y+3775750D02*
X-5893000Y+3772375D01*
X-5893000Y+3762250D01*
X-5890000Y+3758875D01*
X-5878000Y+3758875D01*
X-5875000Y+3762250D01*
X-5875000Y+3772375D01*
X-5878000Y+3775750D01*
X-5881000Y+3775750D01*
X-5884000Y+3772375D01*
X-5884000Y+3758875D01*
D47*
X-4989567Y+3511496D02*
X-4937567Y+3511496D01*
X-4937567Y+3635496D01*
X-4989567Y+3635496D01*
X-4989567Y+3511496D01*
D100*
X-4964567Y+3531496D02*
X-4964567Y+3531496D01*
D101*
X-4957567Y+3568246D02*
X-4954567Y+3564871D01*
X-4954567Y+3554746D01*
X-4960567Y+3547996D01*
X-4966567Y+3547996D01*
X-4972567Y+3554746D01*
X-4972567Y+3564871D01*
X-4969567Y+3568246D01*
X-4966567Y+3581746D02*
X-4972567Y+3588496D01*
X-4954567Y+3588496D01*
X-4963567Y+3608746D02*
X-4966567Y+3605371D01*
X-4969567Y+3605371D01*
X-4972567Y+3608746D01*
X-4972567Y+3618871D01*
X-4969567Y+3622246D01*
X-4966567Y+3622246D01*
X-4963567Y+3618871D01*
X-4963567Y+3608746D01*
X-4960567Y+3605371D01*
X-4957567Y+3605371D01*
X-4954567Y+3608746D01*
X-4954567Y+3618871D01*
X-4957567Y+3622246D01*
X-4960567Y+3622246D01*
X-4963567Y+3618871D01*
D47*
X-4780906Y+3519370D02*
X-4728906Y+3519370D01*
X-4728906Y+3643370D01*
X-4780906Y+3643370D01*
X-4780906Y+3519370D01*
D100*
X-4755906Y+3539370D02*
X-4755906Y+3539370D01*
D101*
X-4748906Y+3576120D02*
X-4745906Y+3572745D01*
X-4745906Y+3562620D01*
X-4751906Y+3555870D01*
X-4757906Y+3555870D01*
X-4763906Y+3562620D01*
X-4763906Y+3572745D01*
X-4760906Y+3576120D01*
X-4757906Y+3589620D02*
X-4763906Y+3596370D01*
X-4745906Y+3596370D01*
X-4757906Y+3630120D02*
X-4754906Y+3626745D01*
X-4754906Y+3616620D01*
X-4757906Y+3613245D01*
X-4760906Y+3613245D01*
X-4763906Y+3616620D01*
X-4763906Y+3626745D01*
X-4760906Y+3630120D01*
X-4748906Y+3630120D01*
X-4745906Y+3626745D01*
X-4745906Y+3616620D01*
D47*
X-4694291Y+3569228D02*
X-4642291Y+3569228D01*
X-4642291Y+3693228D01*
X-4694291Y+3693228D01*
X-4694291Y+3569228D01*
D100*
X-4669291Y+3589228D02*
X-4669291Y+3589228D01*
D101*
X-4662291Y+3625978D02*
X-4659291Y+3622603D01*
X-4659291Y+3612478D01*
X-4665291Y+3605728D01*
X-4671291Y+3605728D01*
X-4677291Y+3612478D01*
X-4677291Y+3622603D01*
X-4674291Y+3625978D01*
X-4674291Y+3636103D02*
X-4677291Y+3639478D01*
X-4677291Y+3649603D01*
X-4674291Y+3652978D01*
X-4671291Y+3652978D01*
X-4668291Y+3649603D01*
X-4668291Y+3639478D01*
X-4665291Y+3636103D01*
X-4659291Y+3636103D01*
X-4659291Y+3652978D01*
X-4662291Y+3659728D02*
X-4674291Y+3659728D01*
X-4677291Y+3663103D01*
X-4677291Y+3676603D01*
X-4674291Y+3679978D01*
X-4662291Y+3679978D01*
X-4659291Y+3676603D01*
X-4659291Y+3663103D01*
X-4662291Y+3659728D01*
X-4659291Y+3659728D02*
X-4677291Y+3679978D01*
D47*
X-5477756Y+2636417D02*
X-5235630Y+2636417D01*
X-5235630Y+2728543D01*
X-5477756Y+2728543D01*
X-5477756Y+2636417D01*
D112*
X-5456693Y+2657480D02*
X-5456693Y+2657480D01*
D101*
X-5435834Y+2691422D02*
X-5415716Y+2691422D01*
X-5425775Y+2691422D02*
X-5425775Y+2673539D01*
X-5409010Y+2673539D02*
X-5409010Y+2691422D01*
X-5392245Y+2691422D01*
X-5388892Y+2688441D01*
X-5388892Y+2685461D01*
X-5392245Y+2682480D01*
X-5409010Y+2682480D01*
X-5382185Y+2685461D02*
X-5375479Y+2691422D01*
X-5368773Y+2691422D01*
X-5362067Y+2685461D01*
X-5362067Y+2679500D01*
X-5368773Y+2673539D01*
X-5375479Y+2673539D01*
X-5382185Y+2679500D01*
X-5382185Y+2685461D01*
X-5352008Y+2691422D02*
X-5338596Y+2691422D01*
X-5345302Y+2691422D02*
X-5345302Y+2673539D01*
X-5352008Y+2673539D02*
X-5338596Y+2673539D01*
X-5328536Y+2673539D02*
X-5328536Y+2691422D01*
X-5308418Y+2673539D01*
X-5308418Y+2691422D01*
X-5301712Y+2691422D02*
X-5281594Y+2691422D01*
X-5291653Y+2691422D02*
X-5291653Y+2673539D01*
X-5274888Y+2676519D02*
X-5271535Y+2673539D01*
X-5258123Y+2673539D01*
X-5254770Y+2676519D01*
X-5254770Y+2679500D01*
X-5258123Y+2682480D01*
X-5271535Y+2682480D01*
X-5274888Y+2685461D01*
X-5274888Y+2688441D01*
X-5271535Y+2691422D01*
X-5258123Y+2691422D01*
X-5254770Y+2688441D01*
D47*
X-5474000Y+2357000D02*
X-5414000Y+2357000D01*
X-5414000Y+2417000D01*
X-5474000Y+2417000D01*
X-5474000Y+2357000D01*
D113*
X-5469199Y+2387000D02*
X-5456599Y+2387000D01*
X-5462899Y+2390734D02*
X-5462899Y+2383267D01*
X-5439799Y+2392600D02*
X-5450299Y+2392600D01*
X-5450299Y+2388867D01*
X-5441899Y+2388867D01*
X-5439799Y+2387000D01*
X-5439799Y+2383267D01*
X-5441899Y+2381400D01*
X-5448199Y+2381400D01*
X-5450299Y+2383267D01*
X-5435600Y+2392600D02*
X-5435600Y+2387000D01*
X-5429300Y+2381400D01*
X-5423000Y+2387000D01*
X-5423000Y+2392600D01*
D47*
X-5356000Y+2357000D02*
X-5296000Y+2357000D01*
X-5296000Y+2417000D01*
X-5356000Y+2417000D01*
X-5356000Y+2357000D01*
D113*
X-5342799Y+2385134D02*
X-5338599Y+2385134D01*
X-5338599Y+2381400D01*
X-5346999Y+2381400D01*
X-5351199Y+2385134D01*
X-5351199Y+2388867D01*
X-5346999Y+2392600D01*
X-5340699Y+2392600D01*
X-5338599Y+2390734D01*
X-5334399Y+2381400D02*
X-5334399Y+2392600D01*
X-5321799Y+2381400D01*
X-5321799Y+2392600D01*
X-5317600Y+2381400D02*
X-5317600Y+2392600D01*
X-5309200Y+2392600D01*
X-5305000Y+2388867D01*
X-5305000Y+2385134D01*
X-5309200Y+2381400D01*
X-5317600Y+2381400D01*
D47*
X-5715000Y+3895000D02*
X-5655000Y+3895000D01*
X-5655000Y+3955000D01*
X-5715000Y+3955000D01*
X-5715000Y+3895000D01*
D114*
X-5710200Y+3929200D02*
X-5710200Y+3925000D01*
X-5705475Y+3920800D01*
X-5700750Y+3925000D01*
X-5700750Y+3929200D01*
X-5697600Y+3920800D02*
X-5697600Y+3929200D01*
X-5689725Y+3929200D01*
X-5688150Y+3927800D01*
X-5688150Y+3926400D01*
X-5689725Y+3925000D01*
X-5688150Y+3923600D01*
X-5688150Y+3922200D01*
X-5689725Y+3920800D01*
X-5697600Y+3920800D01*
X-5697600Y+3925000D02*
X-5689725Y+3925000D01*
X-5685000Y+3920800D02*
X-5685000Y+3926400D01*
X-5681850Y+3929200D01*
X-5678700Y+3929200D01*
X-5675550Y+3926400D01*
X-5675550Y+3920800D01*
X-5685000Y+3923600D02*
X-5675550Y+3923600D01*
X-5672400Y+3929200D02*
X-5662950Y+3929200D01*
X-5667675Y+3929200D02*
X-5667675Y+3920800D01*
D47*
X-4663000Y+2711000D02*
X-4603000Y+2711000D01*
X-4603000Y+2771000D01*
X-4663000Y+2771000D01*
X-4663000Y+2711000D01*
D113*
X-4649800Y+2735400D02*
X-4649800Y+2746600D01*
X-4639300Y+2746600D01*
X-4637200Y+2744734D01*
X-4637200Y+2742867D01*
X-4639300Y+2741000D01*
X-4649800Y+2741000D01*
X-4639300Y+2741000D02*
X-4637200Y+2739134D01*
X-4637200Y+2735400D01*
X-4633000Y+2746600D02*
X-4620400Y+2735400D01*
X-4633000Y+2735400D02*
X-4620400Y+2746600D01*
D47*
X-4665433Y+2810748D02*
X-4605433Y+2810748D01*
X-4605433Y+2870748D01*
X-4665433Y+2870748D01*
X-4665433Y+2810748D01*
D113*
X-4652233Y+2846348D02*
X-4639633Y+2846348D01*
X-4645933Y+2846348D02*
X-4645933Y+2835148D01*
X-4635433Y+2846348D02*
X-4622833Y+2835148D01*
X-4635433Y+2835148D02*
X-4622833Y+2846348D01*
D47*
X-5605000Y+3770000D02*
X-5545000Y+3770000D01*
X-5545000Y+3830000D01*
X-5605000Y+3830000D01*
X-5605000Y+3770000D01*
D114*
X-5600200Y+3804200D02*
X-5600200Y+3800000D01*
X-5595475Y+3795800D01*
X-5590750Y+3800000D01*
X-5590750Y+3804200D01*
X-5587600Y+3795800D02*
X-5587600Y+3804200D01*
X-5579725Y+3804200D01*
X-5578150Y+3802800D01*
X-5578150Y+3801400D01*
X-5579725Y+3800000D01*
X-5578150Y+3798600D01*
X-5578150Y+3797200D01*
X-5579725Y+3795800D01*
X-5587600Y+3795800D01*
X-5587600Y+3800000D02*
X-5579725Y+3800000D01*
X-5575000Y+3804200D02*
X-5575000Y+3797200D01*
X-5573425Y+3795800D01*
X-5567125Y+3795800D01*
X-5565550Y+3797200D01*
X-5565550Y+3804200D01*
X-5562400Y+3797200D02*
X-5560825Y+3795800D01*
X-5554525Y+3795800D01*
X-5552950Y+3797200D01*
X-5552950Y+3798600D01*
X-5554525Y+3800000D01*
X-5560825Y+3800000D01*
X-5562400Y+3801400D01*
X-5562400Y+3802800D01*
X-5560825Y+3804200D01*
X-5554525Y+3804200D01*
X-5552950Y+3802800D01*
D47*
X-6108000Y+2966000D02*
X-6048000Y+2966000D01*
X-6048000Y+3026000D01*
X-6108000Y+3026000D01*
X-6108000Y+2966000D01*
D113*
X-6103199Y+2997867D02*
X-6098999Y+3001600D01*
X-6094799Y+3001600D01*
X-6090599Y+2997867D01*
X-6090599Y+2994134D01*
X-6094799Y+2990400D01*
X-6098999Y+2990400D01*
X-6103199Y+2994134D01*
X-6103199Y+2997867D01*
X-6086399Y+3001600D02*
X-6086399Y+2992267D01*
X-6084299Y+2990400D01*
X-6075899Y+2990400D01*
X-6073799Y+2992267D01*
X-6073799Y+3001600D01*
X-6069600Y+3001600D02*
X-6057000Y+3001600D01*
X-6063300Y+3001600D02*
X-6063300Y+2990400D01*
D47*
X-4630000Y+2898000D02*
X-4570000Y+2898000D01*
X-4570000Y+2958000D01*
X-4630000Y+2958000D01*
X-4630000Y+2898000D01*
D114*
X-4625200Y+2932200D02*
X-4625200Y+2925200D01*
X-4623625Y+2923800D01*
X-4617325Y+2923800D01*
X-4615750Y+2925200D01*
X-4615750Y+2932200D01*
X-4612600Y+2925200D02*
X-4611025Y+2923800D01*
X-4604725Y+2923800D01*
X-4603150Y+2925200D01*
X-4603150Y+2926600D01*
X-4604725Y+2928000D01*
X-4611025Y+2928000D01*
X-4612600Y+2929400D01*
X-4612600Y+2930800D01*
X-4611025Y+2932200D01*
X-4604725Y+2932200D01*
X-4603150Y+2930800D01*
X-4600000Y+2923800D02*
X-4600000Y+2932200D01*
X-4592125Y+2932200D01*
X-4590550Y+2930800D01*
X-4590550Y+2929400D01*
X-4592125Y+2928000D01*
X-4590550Y+2926600D01*
X-4590550Y+2925200D01*
X-4592125Y+2923800D01*
X-4600000Y+2923800D01*
X-4600000Y+2928000D02*
X-4592125Y+2928000D01*
X-4587400Y+2923800D02*
X-4587400Y+2932200D01*
X-4577950Y+2923800D01*
X-4577950Y+2932200D01*
D47*
X-4631000Y+3008000D02*
X-4571000Y+3008000D01*
X-4571000Y+3068000D01*
X-4631000Y+3068000D01*
X-4631000Y+3008000D01*
D114*
X-4626200Y+3042200D02*
X-4626200Y+3035200D01*
X-4624625Y+3033800D01*
X-4618325Y+3033800D01*
X-4616750Y+3035200D01*
X-4616750Y+3042200D01*
X-4613600Y+3035200D02*
X-4612025Y+3033800D01*
X-4605725Y+3033800D01*
X-4604150Y+3035200D01*
X-4604150Y+3036600D01*
X-4605725Y+3038000D01*
X-4612025Y+3038000D01*
X-4613600Y+3039400D01*
X-4613600Y+3040800D01*
X-4612025Y+3042200D01*
X-4605725Y+3042200D01*
X-4604150Y+3040800D01*
X-4601000Y+3033800D02*
X-4601000Y+3042200D01*
X-4593125Y+3042200D01*
X-4591550Y+3040800D01*
X-4591550Y+3039400D01*
X-4593125Y+3038000D01*
X-4591550Y+3036600D01*
X-4591550Y+3035200D01*
X-4593125Y+3033800D01*
X-4601000Y+3033800D01*
X-4601000Y+3038000D02*
X-4593125Y+3038000D01*
X-4588400Y+3033800D02*
X-4588400Y+3042200D01*
X-4580525Y+3042200D01*
X-4578950Y+3040800D01*
X-4578950Y+3039400D01*
X-4580525Y+3038000D01*
X-4588400Y+3038000D01*
D45*
X-5333636Y+2621202D02*
X-5727827Y+2796707D01*
X-5933597Y+2334539D01*
X-5539406Y+2159034D01*
X-5333636Y+2621202D01*
D115*
X-5529874Y+2493093D02*
X-5529874Y+2493093D01*
D116*
X-5753028Y+2318400D02*
X-5733299Y+2327336D01*
X-5706962Y+2386489D01*
X-5713523Y+2407129D01*
X-5726669Y+2412982D01*
X-5746398Y+2404047D01*
X-5772734Y+2344894D01*
X-5792463Y+2335958D01*
X-5805608Y+2341811D01*
X-5812169Y+2362451D01*
X-5785833Y+2421604D01*
X-5766104Y+2430539D01*
X-5766080Y+2465968D02*
X-5687210Y+2430853D01*
X-5706893Y+2492775D01*
X-5647705Y+2519582D01*
X-5726576Y+2554697D01*
X-5673949Y+2602144D02*
X-5687071Y+2643426D01*
X-5608201Y+2608310D01*
D45*
X-5588189Y+3779921D02*
X-5033858Y+3779921D01*
X-5033858Y+4196850D01*
X-5588189Y+4196850D01*
X-5588189Y+3779921D01*
D117*
X-5186614Y+3850000D02*
X-5186614Y+3850000D01*
D118*
X-5449201Y+4075783D02*
X-5449201Y+3983665D01*
X-5345568Y+4075783D02*
X-5397384Y+4029724D01*
X-5345568Y+3983665D01*
X-5449201Y+4029724D02*
X-5397384Y+4029724D01*
X-5276479Y+4045077D02*
X-5241934Y+4075783D01*
X-5241934Y+3983665D01*
D47*
X-5387000Y+3597000D02*
X-5335000Y+3597000D01*
X-5335000Y+3721000D01*
X-5387000Y+3721000D01*
X-5387000Y+3597000D01*
D100*
X-5362000Y+3617000D02*
X-5362000Y+3617000D01*
D101*
X-5352000Y+3633500D02*
X-5370000Y+3633500D01*
X-5370000Y+3650375D01*
X-5367000Y+3653750D01*
X-5364000Y+3653750D01*
X-5361000Y+3650375D01*
X-5361000Y+3633500D01*
X-5361000Y+3650375D02*
X-5358000Y+3653750D01*
X-5352000Y+3653750D01*
X-5364000Y+3667250D02*
X-5370000Y+3674000D01*
X-5352000Y+3674000D01*
X-5364000Y+3694250D02*
X-5370000Y+3701000D01*
X-5352000Y+3701000D01*
D102*
X-5793480Y+3319677D02*
X-5653323Y+3319677D01*
X-5653323Y+3463772D01*
X-5793480Y+3463772D01*
X-5793480Y+3319677D01*
D119*
X-5686000Y+3437000D02*
X-5686000Y+3437000D01*
D111*
X-5763926Y+3379003D02*
X-5753795Y+3388008D01*
X-5743664Y+3388008D01*
X-5733533Y+3379003D01*
X-5733533Y+3369998D01*
X-5743664Y+3360992D01*
X-5753795Y+3360992D01*
X-5763926Y+3369998D01*
X-5763926Y+3379003D01*
X-5743664Y+3369998D02*
X-5733533Y+3360992D01*
X-5718337Y+3383506D02*
X-5713271Y+3388008D01*
X-5698075Y+3388008D01*
X-5693009Y+3383506D01*
X-5693009Y+3379003D01*
X-5698075Y+3374500D01*
X-5713271Y+3374500D01*
X-5718337Y+3369998D01*
X-5718337Y+3360992D01*
X-5693009Y+3360992D01*
D47*
X-4591520Y+3343142D02*
X-4508780Y+3343142D01*
X-4508780Y+3440000D01*
X-4591520Y+3440000D01*
X-4591520Y+3343142D01*
D120*
X-4550000Y+3425000D02*
X-4550000Y+3425000D01*
D121*
X-4573771Y+3386445D02*
X-4556055Y+3370697D01*
X-4573771Y+3370697D02*
X-4556055Y+3386445D01*
X-4544244Y+3381196D02*
X-4538338Y+3386445D01*
X-4538338Y+3370697D01*
D47*
X-4615000Y+3455000D02*
X-4563000Y+3455000D01*
X-4563000Y+3579000D01*
X-4615000Y+3579000D01*
X-4615000Y+3455000D01*
D100*
X-4590000Y+3475000D02*
X-4590000Y+3475000D01*
D101*
X-4583000Y+3511750D02*
X-4580000Y+3508375D01*
X-4580000Y+3498250D01*
X-4586000Y+3491500D01*
X-4592000Y+3491500D01*
X-4598000Y+3498250D01*
X-4598000Y+3508375D01*
X-4595000Y+3511750D01*
X-4595000Y+3521875D02*
X-4598000Y+3525250D01*
X-4598000Y+3535375D01*
X-4595000Y+3538750D01*
X-4592000Y+3538750D01*
X-4589000Y+3535375D01*
X-4589000Y+3525250D01*
X-4586000Y+3521875D01*
X-4580000Y+3521875D01*
X-4580000Y+3538750D01*
X-4598000Y+3565750D02*
X-4598000Y+3548875D01*
X-4592000Y+3548875D01*
X-4592000Y+3562375D01*
X-4589000Y+3565750D01*
X-4583000Y+3565750D01*
X-4580000Y+3562375D01*
X-4580000Y+3552250D01*
X-4583000Y+3548875D01*
D47*
X-4629000Y+3270000D02*
X-4505000Y+3270000D01*
X-4505000Y+3322000D01*
X-4629000Y+3322000D01*
X-4629000Y+3270000D01*
D100*
X-4525000Y+3295000D02*
X-4525000Y+3295000D01*
D101*
X-4602250Y+3290000D02*
X-4605625Y+3287000D01*
X-4615750Y+3287000D01*
X-4622500Y+3293000D01*
X-4622500Y+3299000D01*
X-4615750Y+3305000D01*
X-4605625Y+3305000D01*
X-4602250Y+3302000D01*
X-4592125Y+3302000D02*
X-4588750Y+3305000D01*
X-4578625Y+3305000D01*
X-4575250Y+3302000D01*
X-4575250Y+3299000D01*
X-4578625Y+3296000D01*
X-4588750Y+3296000D01*
X-4592125Y+3293000D01*
X-4592125Y+3287000D01*
X-4575250Y+3287000D01*
X-4548250Y+3302000D02*
X-4551625Y+3305000D01*
X-4561750Y+3305000D01*
X-4565125Y+3302000D01*
X-4565125Y+3290000D01*
X-4561750Y+3287000D01*
X-4551625Y+3287000D01*
X-4548250Y+3290000D01*
X-4548250Y+3293000D01*
X-4551625Y+3296000D01*
X-4565125Y+3296000D01*
D47*
X-4770157Y+2560551D02*
X-4710157Y+2560551D01*
X-4710157Y+2620551D01*
X-4770157Y+2620551D01*
X-4770157Y+2560551D01*
D113*
X-4763257Y+2596151D02*
X-4754857Y+2596151D01*
X-4759057Y+2596151D02*
X-4759057Y+2584951D01*
X-4763257Y+2584951D02*
X-4754857Y+2584951D01*
X-4748557Y+2592418D02*
X-4744357Y+2596151D01*
X-4740157Y+2596151D01*
X-4735957Y+2592418D01*
X-4735957Y+2588685D01*
X-4740157Y+2584951D01*
X-4744357Y+2584951D01*
X-4748557Y+2588685D01*
X-4748557Y+2592418D01*
X-4719158Y+2588685D02*
X-4731758Y+2588685D01*
X-4723358Y+2596151D01*
X-4723358Y+2584951D01*
D47*
X-4705000Y+2642000D02*
X-4645000Y+2642000D01*
X-4645000Y+2702000D01*
X-4705000Y+2702000D01*
X-4705000Y+2642000D01*
D113*
X-4698099Y+2677600D02*
X-4689699Y+2677600D01*
X-4693899Y+2677600D02*
X-4693899Y+2666400D01*
X-4698099Y+2666400D02*
X-4689699Y+2666400D01*
X-4683399Y+2673867D02*
X-4679199Y+2677600D01*
X-4674999Y+2677600D01*
X-4670799Y+2673867D01*
X-4670799Y+2670134D01*
X-4674999Y+2666400D01*
X-4679199Y+2666400D01*
X-4683399Y+2670134D01*
X-4683399Y+2673867D01*
X-4654000Y+2677600D02*
X-4664500Y+2677600D01*
X-4664500Y+2673867D01*
X-4656100Y+2673867D01*
X-4654000Y+2672000D01*
X-4654000Y+2668267D01*
X-4656100Y+2666400D01*
X-4662400Y+2666400D01*
X-4664500Y+2668267D01*
M02*
