G04 PROTEUS GERBER X2 FILE*
%TF.GenerationSoftware,Labcenter,Proteus,9.1-SP2-Build42460*%
%TF.CreationDate,2026-08-03T05:25:27+00:00*%
%TF.FileFunction,Copper,L1,Top*%
%TF.FilePolarity,Positive*%
%TF.Part,Single*%
%TF.SameCoordinates,{e8ae4007-3e72-403a-9a00-08be4b74e47f}*%
%FSLAX26Y26*%
%MOIN*%
G01*
%TA.AperFunction,Conductor*%
%ADD10C,0.010000*%
%ADD11C,0.012000*%
%ADD12C,0.014000*%
%ADD13C,0.025000*%
%ADD14C,0.020000*%
%ADD15C,0.028000*%
%ADD16C,0.015000*%
%ADD17C,0.018000*%
%ADD18C,0.040000*%
%ADD19C,0.030000*%
%TA.AperFunction,ViaPad*%
%ADD70C,0.035000*%
%AMPPAD011*
4,1,34,
0.000000,0.059449,
0.005990,0.058845,
0.011569,0.057113,
0.016618,0.054372,
0.021017,0.050742,
0.024647,0.046343,
0.027388,0.041294,
0.029120,0.035715,
0.029724,0.029725,
0.029724,-0.029725,
0.029120,-0.035715,
0.027388,-0.041294,
0.024647,-0.046343,
0.021017,-0.050742,
0.016618,-0.054372,
0.011569,-0.057113,
0.005990,-0.058845,
0.000000,-0.059449,
-0.005990,-0.058845,
-0.011569,-0.057113,
-0.016618,-0.054372,
-0.021017,-0.050742,
-0.024647,-0.046343,
-0.027388,-0.041294,
-0.029120,-0.035715,
-0.029724,-0.029725,
-0.029724,0.029725,
-0.029120,0.035715,
-0.027388,0.041294,
-0.024647,0.046343,
-0.021017,0.050742,
-0.016618,0.054372,
-0.011569,0.057113,
-0.005990,0.058845,
0.000000,0.059449,
0*%
%TA.AperFunction,ComponentPad*%
%ADD71PPAD011*%
%ADD20C,0.040000*%
%TA.AperFunction,SMDPad,CuDef*%
%ADD21R,0.039370X0.110236*%
%TA.AperFunction,SMDPad,CuDef*%
%ADD22R,0.040000X0.050000*%
%ADD23R,0.050000X0.040000*%
%TA.AperFunction,SMDPad,CuDef*%
%ADD24R,0.059055X0.025591*%
%TA.AperFunction,SMDPad,CuDef*%
%ADD25R,0.025000X0.020000*%
%TA.AperFunction,SMDPad,CuDef*%
%ADD26R,0.016000X0.035000*%
%TA.AperFunction,SMDPad,CuDef*%
%ADD27R,0.035000X0.040000*%
%ADD28R,0.040000X0.035000*%
%TA.AperFunction,SMDPad,CuDef*%
%ADD29R,0.040000X0.100000*%
%TA.AperFunction,SMDPad,CuDef*%
%ADD72R,0.035000X0.026000*%
%TA.AperFunction,OtherPad,Unknown*%
%ADD73C,0.137795*%
%TA.AperFunction,ComponentPad*%
%ADD30C,0.042126*%
%TA.AperFunction,ComponentPad*%
%ADD31C,0.060000*%
%AMPPAD026*
4,1,4,
0.014965,-0.038985,
-0.038985,-0.014965,
-0.014965,0.038985,
0.038985,0.014965,
0.014965,-0.038985,
0*%
%TA.AperFunction,WasherPad*%
%ADD32PPAD026*%
%TA.AperFunction,ComponentPad*%
%ADD33C,0.059055*%
%ADD34C,0.116142*%
%TA.AperFunction,ComponentPad*%
%ADD35C,0.039370*%
%TA.AperFunction,SMDPad,CuDef*%
%ADD36R,0.023622X0.061024*%
%ADD37R,0.011811X0.061024*%
%TA.AperFunction,ComponentPad*%
%ADD38C,0.078740*%
%ADD39C,0.081890*%
%TA.AperFunction,SMDPad,CuDef*%
%ADD40R,0.023622X0.033465*%
%TA.AperFunction,SMDPad,CuDef*%
%ADD41R,0.055000X0.030000*%
%TA.AperFunction,ComponentPad*%
%ADD42R,0.053150X0.053150*%
%ADD43C,0.049213*%
%TA.AperFunction,Profile*%
%ADD44C,0.004000*%
%TD.AperFunction*%
D10*
X-5145945Y+2596000D02*
X-5145945Y+2596000D01*
X-5735000Y+3658000D02*
X-5735000Y+3658000D01*
D11*
X-5735000Y+3695000D02*
X-5735000Y+3695000D01*
D12*
X-5406693Y+2657480D02*
X-5356693Y+2657480D01*
X-5306693Y+2657480D01*
X-5256693Y+2657480D01*
D13*
X-5145945Y+2422772D02*
X-5138432Y+2422772D01*
X-5133333Y+2427870D01*
X-5091989Y+2427870D01*
X-5086890Y+2422772D01*
X-5205000Y+2422772D02*
X-5145945Y+2422772D01*
D14*
X-5749000Y+3515000D02*
X-5749000Y+3549460D01*
X-5735000Y+3563460D01*
X-5735000Y+3620000D01*
X-6026500Y+2920000D02*
X-6026500Y+2849000D01*
X-6026500Y+2780000D01*
X-6019000Y+2780000D01*
X-5912598Y+3205000D02*
X-5912257Y+3205000D01*
X-5912257Y+3155000D01*
X-5912598Y+3155000D01*
X-5150000Y+2825000D02*
X-5150000Y+2753000D01*
X-5129000Y+2732000D01*
X-5034333Y+2732000D01*
X-4997333Y+2695000D01*
X-4988000Y+2695000D01*
D13*
X-5722322Y+2925000D02*
X-5760000Y+2925000D01*
X-5760000Y+2920000D01*
X-5730000Y+3860000D02*
X-5730000Y+3855000D01*
X-5700000Y+3855000D01*
X-5695000Y+3860000D01*
X-5645000Y+3860000D01*
D14*
X-5145945Y+2596000D02*
X-5145945Y+2514294D01*
X-5135357Y+2503706D01*
X-4938294Y+2503706D01*
X-4885000Y+2557000D01*
X-4885000Y+2610000D01*
X-5912598Y+3105000D02*
X-5855000Y+3105000D01*
X-5850000Y+3100000D01*
X-5905500Y+2919500D02*
X-5905000Y+2920000D01*
X-5942500Y+2920000D01*
D10*
X-5361226Y+3553346D02*
X-5361000Y+3553572D01*
X-5885000Y+3769000D02*
X-5862624Y+3791376D01*
D15*
X-5796095Y+3857905D01*
X-5732095Y+3857905D01*
X-5730000Y+3860000D01*
D13*
X-5844000Y+3298000D02*
X-5844000Y+3324404D01*
X-5847772Y+3328176D01*
D14*
X-5700000Y+3205000D02*
X-5832320Y+3205000D01*
X-5874683Y+3247364D01*
X-5908781Y+3247364D01*
X-5926660Y+3265243D01*
X-5926660Y+3298000D01*
X-5928000Y+3298000D01*
X-5893000Y+3400000D02*
X-5854924Y+3400000D01*
X-5741324Y+3286401D01*
X-5741324Y+3286324D01*
X-6078000Y+2996000D02*
X-6018663Y+2996000D01*
X-5989081Y+2966418D01*
X-5649996Y+2966418D01*
X-5644774Y+2961196D01*
X-5842520Y+2780850D02*
X-5934150Y+2780850D01*
X-5935000Y+2780000D01*
D16*
X-4850000Y+3424780D02*
X-4850000Y+3502668D01*
X-4842562Y+3510106D01*
X-4842562Y+3562950D01*
X-4842520Y+3562992D01*
X-4893701Y+3562992D02*
X-4893701Y+3649606D01*
X-4868110Y+3649606D02*
X-4868110Y+3694434D01*
X-4856451Y+3706093D01*
X-4856451Y+3758026D01*
X-4858268Y+3759843D01*
D10*
X-4842520Y+3627820D02*
X-4842520Y+3649606D01*
D14*
X-4755906Y+3696850D02*
X-4698865Y+3696850D01*
X-4675243Y+3673228D01*
X-4669291Y+3673228D01*
X-4755906Y+3780850D02*
X-4905055Y+3930000D01*
X-4940000Y+3930000D01*
D10*
X-4964567Y+3527559D02*
X-4968504Y+3527559D01*
X-4964567Y+3531496D01*
D14*
X-5912598Y+3055000D02*
X-5805977Y+3055000D01*
X-5804071Y+3053094D01*
D17*
X-5891000Y+3610000D02*
X-5891000Y+3679000D01*
X-5886826Y+3683174D01*
D11*
X-5885000Y+3685000D01*
D16*
X-4755906Y+3539370D02*
X-4805444Y+3539370D01*
X-4805726Y+3539652D01*
X-4836091Y+3539652D01*
X-4842520Y+3546081D01*
X-4842520Y+3562992D01*
X-4893701Y+3649606D02*
X-4893701Y+3664176D01*
X-4928268Y+3698743D01*
X-4928268Y+3759843D01*
D14*
X-6026500Y+2849000D02*
X-5874439Y+2849000D01*
X-5844000Y+2879439D01*
X-5844000Y+2920000D01*
D17*
X-4968504Y+3527559D02*
X-4977291Y+3527559D01*
X-4977291Y+3537949D01*
X-5027287Y+3587946D01*
X-5079763Y+3587946D01*
X-5105100Y+3562609D01*
X-5105100Y+3553900D01*
X-5146000Y+3513000D01*
D16*
X-4964567Y+3527559D02*
X-4964567Y+3531496D01*
X-4964567Y+3535433D01*
X-4893701Y+3562992D02*
X-4893701Y+3544943D01*
X-4895890Y+3544943D01*
X-4909337Y+3531496D01*
X-4956083Y+3531496D01*
X-4964567Y+3523012D01*
X-4964567Y+3527559D01*
D13*
X-5205000Y+2425308D02*
X-5205000Y+2422772D01*
X-5842520Y+2696850D02*
X-5842520Y+2609008D01*
X-5726605Y+2493093D01*
X-5529874Y+2493093D01*
D11*
X-5361000Y+3553572D02*
X-5360000Y+3554572D01*
D14*
X-5035433Y+3795276D02*
X-5035433Y+3879876D01*
X-5029071Y+3879876D01*
X-5015246Y+3893701D01*
X-4984859Y+3893701D01*
X-4948560Y+3930000D01*
X-4940000Y+3930000D01*
D10*
X-5038409Y+3708300D02*
X-5036149Y+3708300D01*
X-5035433Y+3707583D01*
X-5035433Y+3711276D01*
X-5038409Y+3708300D02*
X-5035433Y+3711276D01*
D13*
X-5120079Y+3858913D02*
X-5118110Y+3860882D01*
X-5118110Y+3916929D01*
D14*
X-5039361Y+3639000D02*
X-5015857Y+3615496D01*
X-4964567Y+3615496D01*
D15*
X-5039361Y+3635999D02*
X-5039361Y+3639000D01*
D14*
X-5039361Y+3707348D01*
X-5038409Y+3708300D01*
D10*
X-4669291Y+3673228D02*
X-4669291Y+3696531D01*
X-4676385Y+3703625D01*
X-4676385Y+3703282D01*
D15*
X-5123000Y+3708300D02*
X-5038409Y+3708300D01*
D13*
X-5186614Y+3850000D02*
X-5128992Y+3850000D01*
X-5123000Y+3855992D01*
D10*
X-5120079Y+3858913D01*
X-5123000Y+3861835D01*
D14*
X-5735000Y+3695000D02*
X-5735000Y+3705380D01*
X-5730000Y+3710380D01*
X-5730000Y+3776000D01*
D10*
X-5360000Y+3554572D02*
X-5359550Y+3555022D01*
X-5361000Y+3553572D01*
X-5361226Y+3553346D01*
X-5688000Y+3252000D02*
X-5686000Y+3252000D01*
X-5685522Y+3252000D01*
D12*
X-5685522Y+3249761D01*
D16*
X-5688000Y+3252000D02*
X-5707000Y+3252000D01*
X-5741324Y+3286324D01*
D10*
X-5361000Y+3553572D02*
X-5361000Y+3551181D01*
D16*
X-5652407Y+3252000D02*
X-5685522Y+3252000D01*
D10*
X-5652407Y+3252000D02*
X-5573707Y+3173301D01*
D14*
X-5050000Y+2825000D02*
X-5050000Y+2811187D01*
X-4978813Y+2740000D01*
X-4917302Y+2740000D01*
X-4885000Y+2707698D01*
X-4885000Y+2694000D01*
X-5086890Y+2596000D02*
X-5086890Y+2558000D01*
X-5061000Y+2558000D01*
X-4932746Y+2558000D01*
X-4932746Y+2650000D01*
X-4845000Y+2650000D01*
X-4805000Y+2610000D01*
D17*
X-5641000Y+3620000D02*
X-5641000Y+3634180D01*
X-5701820Y+3695000D01*
X-5735000Y+3695000D01*
D14*
X-5912598Y+3205000D02*
X-5922969Y+3205000D01*
X-5974307Y+3256339D01*
X-5974307Y+3400000D01*
X-5977000Y+3400000D01*
D15*
X-5123000Y+3829362D02*
X-5123000Y+3855992D01*
D10*
X-5123000Y+3798843D02*
X-5126575Y+3802417D01*
X-5126575Y+3845472D01*
X-5123000Y+3849047D01*
X-5118110Y+3853937D01*
D15*
X-5123000Y+3708300D02*
X-5123000Y+3798843D01*
X-5123000Y+3849047D01*
D17*
X-5403937Y+3631000D02*
X-5493409Y+3720472D01*
D14*
X-5495472Y+3720472D01*
X-5575000Y+3800000D01*
D17*
X-5403937Y+3631000D02*
X-5403937Y+3571937D01*
X-5400000Y+3568000D01*
D10*
X-5359846Y+3597549D02*
X-5359846Y+3614846D01*
X-5362000Y+3617000D01*
D13*
X-5627000Y+3519000D02*
X-5661000Y+3519000D01*
X-5661205Y+3518795D01*
D10*
X-5665000Y+3515000D01*
D14*
X-5665000Y+3518795D01*
X-5661205Y+3518795D01*
D11*
X-5730000Y+3776000D02*
X-5730000Y+3792000D01*
X-5702723Y+3819277D01*
X-5594277Y+3819277D01*
X-5575000Y+3800000D01*
D14*
X-5478000Y+3605000D02*
X-5478000Y+3589509D01*
X-5633987Y+3433522D01*
X-5682522Y+3433522D01*
X-5686000Y+3437000D01*
D10*
X-5475000Y+3605000D02*
X-5478000Y+3605000D01*
D14*
X-5665000Y+3515000D02*
X-5743000Y+3437000D01*
X-5760803Y+3437000D01*
X-5723402Y+3346449D02*
X-5739108Y+3346449D01*
X-5891000Y+3498341D01*
X-5891000Y+3610000D01*
D13*
X-5529874Y+2493093D02*
X-5529874Y+2491085D01*
X-5483990Y+2445201D01*
X-5283499Y+2445201D01*
X-5276693Y+2425308D02*
X-5283499Y+2432114D01*
X-5283499Y+2445201D01*
D10*
X-5224000Y+2425308D02*
X-5223504Y+2425308D01*
D13*
X-5276693Y+2425308D02*
X-5224000Y+2425308D01*
X-5223504Y+2425308D02*
X-5205000Y+2425308D01*
D14*
X-5403937Y+3850000D02*
X-5403937Y+3829657D01*
X-5186614Y+3850000D02*
X-5186614Y+3750205D01*
X-5144709Y+3708300D01*
X-5123000Y+3708300D01*
D11*
X-5379921Y+3850000D02*
X-5379921Y+3718921D01*
X-5362000Y+3701000D01*
X-5244094Y+3606299D02*
X-5229000Y+3621394D01*
X-5229000Y+3784842D01*
X-5261811Y+3817653D01*
X-5261811Y+3850000D01*
D17*
X-5354002Y+3171500D02*
X-5359000Y+3171500D01*
D13*
X-5456693Y+2657480D02*
X-5511141Y+2657480D01*
X-5548707Y+2695046D01*
X-5591124Y+2695046D01*
X-5710597Y+2814519D01*
D11*
X-5586503Y+3090686D02*
X-5584339Y+3090686D01*
X-5582239Y+3088586D01*
D14*
X-5582239Y+3119802D01*
X-5647430Y+3184993D01*
X-5647430Y+3185537D01*
X-5666542Y+3204649D01*
X-5680649Y+3204649D01*
X-5681000Y+3205000D01*
X-5700000Y+3205000D01*
D18*
X-5582239Y+3088586D02*
X-5558239Y+3088586D01*
X-5555019Y+3085366D01*
X-5344857Y+3085366D01*
X-5128123Y+3078537D02*
X-4975473Y+3078537D01*
X-4926560Y+3127450D01*
D14*
X-5461282Y+3144582D02*
X-5451000Y+3154864D01*
X-5451000Y+3413934D01*
X-5445077Y+3419857D01*
X-5450000Y+3424780D01*
D19*
X-4750000Y+3424780D02*
X-4750000Y+3423780D01*
X-4743780Y+3430000D01*
X-4675000Y+3430000D01*
D14*
X-4675000Y+3514000D02*
X-4675000Y+3579937D01*
X-4684291Y+3589228D01*
X-4669291Y+3589228D01*
X-4755906Y+3623370D02*
X-4721795Y+3623370D01*
X-4687654Y+3589228D01*
X-4684291Y+3589228D01*
D10*
X-4550000Y+3425000D02*
X-4555000Y+3425000D01*
D13*
X-4593490Y+3594558D02*
X-4593490Y+3623048D01*
X-4643670Y+3673228D01*
X-4669291Y+3673228D01*
X-4590000Y+3559000D02*
X-4593490Y+3562490D01*
X-4593490Y+3594558D01*
D14*
X-4950000Y+2825000D02*
X-4950000Y+2908888D01*
X-4923869Y+2935019D01*
X-4834265Y+2935019D01*
X-4802222Y+2902976D01*
X-4802222Y+2696778D01*
X-4805000Y+2694000D01*
X-4525000Y+3295000D02*
X-4525000Y+3348717D01*
X-4534425Y+3358142D01*
X-4550425Y+3358142D01*
D13*
X-4609000Y+3295000D02*
X-4610667Y+3295000D01*
X-4647291Y+3258376D01*
X-4647291Y+3257664D01*
X-4648003Y+3256952D01*
X-4664003Y+3256952D01*
D14*
X-4555000Y+3425000D02*
X-4606305Y+3425000D01*
X-4699708Y+3331597D01*
X-4947076Y+3331597D01*
X-4947076Y+3334674D01*
X-4555000Y+3425000D02*
X-4590000Y+3460000D01*
X-4590000Y+3472763D01*
X-4587763Y+3472763D01*
X-4590000Y+3475000D01*
D11*
X-5361000Y+3551181D02*
X-5321208Y+3590973D01*
X-5321208Y+3734814D01*
X-5340719Y+3754325D01*
X-5341363Y+3754325D01*
X-5360000Y+3772962D01*
X-5360000Y+3849764D01*
X-5360236Y+3850000D01*
D14*
X-5218110Y+3939006D02*
X-5218110Y+3850000D01*
X-5403937Y+3850000D02*
X-5403937Y+3892031D01*
X-5341730Y+3954238D01*
X-5233342Y+3954238D01*
X-5218110Y+3939006D01*
D11*
X-5360236Y+3850000D02*
X-5360236Y+3888713D01*
X-5327249Y+3921700D01*
X-5273709Y+3921700D01*
X-5242000Y+3889992D01*
X-5242000Y+3850126D01*
X-5242126Y+3850000D01*
X-5070780Y+3974220D02*
X-4984220Y+3974220D01*
X-4940000Y+3930000D01*
D14*
X-5218110Y+3939006D02*
X-5218110Y+3960214D01*
X-5201883Y+3976441D01*
X-5073000Y+3976441D01*
X-5070780Y+3974220D01*
X-5058741Y+3962182D01*
X-5058741Y+3919898D01*
X-5058741Y+3903184D01*
X-5035433Y+3879876D01*
X-5150000Y+3424780D02*
X-5150000Y+3283551D01*
X-5063000Y+3196551D01*
X-5063000Y+3192000D01*
X-4808536Y+3260879D02*
X-4808536Y+3265879D01*
X-4713724Y+3265879D01*
X-4621461Y+3358142D01*
X-4550425Y+3358142D01*
X-5842520Y+2780850D02*
X-5753291Y+2870079D01*
X-5702511Y+2870079D01*
X-5578679Y+2746247D01*
X-5428753Y+2746247D01*
X-5350000Y+2825000D01*
D11*
X-5340551Y+3850000D02*
X-5340551Y+3800551D01*
X-5330000Y+3790000D01*
X-5329050Y+3789050D01*
X-5300133Y+3789050D01*
D14*
X-5735000Y+3620000D02*
X-5692238Y+3620000D01*
X-5692238Y+3619171D01*
X-5691608Y+3618541D01*
X-5478000Y+3605000D02*
X-5478000Y+3625000D01*
X-5577630Y+3724630D01*
X-5599730Y+3724630D01*
X-5645000Y+3769901D01*
X-5645000Y+3776000D01*
X-5800000Y+3675000D02*
X-5782419Y+3657419D01*
X-5735581Y+3657419D01*
X-5735000Y+3658000D01*
X-5661205Y+3518795D02*
X-5661205Y+3525000D01*
X-5603000Y+3525000D01*
X-5580000Y+3548000D01*
X-5580000Y+3560000D01*
D16*
X-5641000Y+3695000D02*
X-5641000Y+3695002D01*
X-5613480Y+3695002D01*
X-5580000Y+3661522D01*
X-5580000Y+3644000D01*
D14*
X-5846402Y+3522598D02*
X-5800000Y+3569000D01*
X-5800000Y+3675000D01*
D15*
X-5760803Y+3437000D02*
X-5846402Y+3522598D01*
D14*
X-5055449Y+3550402D02*
X-5099620Y+3506230D01*
X-5099620Y+3313501D01*
X-5101322Y+3311798D01*
X-5842520Y+2696850D02*
X-5833010Y+2706360D01*
X-5822000Y+2706360D01*
X-5822000Y+2706824D01*
X-5775544Y+2753280D01*
X-4740157Y+2590551D02*
X-4740157Y+2690524D01*
X-4695750Y+2734931D01*
X-4695750Y+2895750D01*
X-4784252Y+2984252D01*
X-5500000Y+2984252D01*
D11*
X-5300133Y+3789050D02*
X-5301281Y+3790199D01*
X-5301281Y+3849900D01*
X-5301181Y+3850000D01*
D19*
X-5645000Y+3860000D02*
X-5645000Y+3864557D01*
X-5581935Y+3927622D01*
X-5514630Y+3927622D01*
X-5503937Y+3916929D01*
X-5503937Y+4035433D01*
D12*
X-4977000Y+3855000D02*
X-4977000Y+3707643D01*
X-4919383Y+3650026D01*
X-4901557Y+3650026D01*
X-4901137Y+3649606D01*
X-4893701Y+3649606D01*
D16*
X-4868110Y+3562992D02*
X-4868110Y+3592890D01*
X-4842520Y+3618480D01*
X-4842520Y+3624663D01*
X-4840941Y+3626242D01*
X-4839611Y+3627572D01*
D17*
X-4755906Y+3623370D02*
X-4838069Y+3623370D01*
X-4840941Y+3626242D01*
X-4842520Y+3627820D01*
D12*
X-5361000Y+3551181D02*
X-5361000Y+3550572D01*
X-5378852Y+3532720D01*
X-5378852Y+3532506D01*
X-5390925Y+3520433D01*
D16*
X-5394562Y+3516796D01*
X-5394776Y+3516796D01*
X-5413113Y+3498459D01*
X-5475093Y+3498459D01*
X-5500000Y+3473552D01*
X-5500000Y+3185798D01*
X-5517798Y+3168000D01*
X-5568406Y+3168000D01*
X-5652406Y+3252000D01*
X-5652407Y+3252000D01*
D14*
X-5146000Y+3587803D02*
X-5146000Y+3573778D01*
X-5200165Y+3519612D01*
X-5200165Y+3055315D01*
X-5224035Y+3031445D01*
X-5561864Y+3031445D01*
X-5584309Y+3009000D01*
X-5951529Y+3009000D01*
X-5984252Y+3041723D01*
X-5984252Y+3207763D01*
X-6027559Y+3251070D01*
X-6027559Y+3557441D01*
X-5975000Y+3610000D01*
X-5294446Y+3518296D02*
X-5301401Y+3511341D01*
X-5301401Y+3257046D01*
X-5303761Y+3254685D01*
X-5244094Y+3522299D02*
X-5296453Y+3522299D01*
X-5294446Y+3520292D01*
X-5294446Y+3518296D01*
X-5300133Y+3789050D02*
X-5297512Y+3786430D01*
X-5297512Y+3575512D01*
X-5399465Y+3473559D01*
X-5399465Y+3216963D01*
X-5354002Y+3171500D01*
X-5205000Y+2596000D02*
X-5201520Y+2599480D01*
X-5201520Y+2654480D01*
X-5167024Y+2688976D01*
X-5070480Y+2688976D01*
X-4992114Y+2610611D01*
X-4988865Y+2610611D01*
X-4988476Y+2611000D01*
X-4988000Y+2611000D01*
D17*
X-5545810Y+3208461D02*
X-5550000Y+3212650D01*
X-5550000Y+3424780D01*
D14*
X-4600000Y+2928000D02*
X-4997638Y+3325638D01*
X-4997638Y+3488189D01*
X-5015570Y+3506121D01*
X-5024455Y+3506121D01*
D11*
X-5262643Y+3711503D02*
X-5262643Y+3791572D01*
X-5281644Y+3810573D01*
X-5281644Y+3849543D01*
X-5281496Y+3849691D01*
X-5281496Y+3850000D01*
X-5281276Y+3850220D02*
X-5281496Y+3850000D01*
D17*
X-5885000Y+3685000D02*
X-5852978Y+3685000D01*
X-5824591Y+3713387D01*
X-5756922Y+3713387D01*
X-5738535Y+3695000D01*
X-5735000Y+3695000D01*
D11*
X-5281276Y+3850220D02*
X-5281276Y+3897280D01*
X-5312149Y+3897280D01*
X-5320866Y+3888563D01*
X-5320866Y+3850000D01*
D14*
X-5493409Y+3720472D02*
X-5480346Y+3720472D01*
X-5403958Y+3796860D01*
X-5403958Y+3829636D01*
D11*
X-5403958Y+3849979D01*
D14*
X-5403937Y+3850000D01*
X-5503937Y+3916929D02*
X-5472424Y+3885416D01*
X-5443952Y+3885416D01*
X-5435433Y+3876897D01*
X-5435433Y+3850000D01*
D70*
X-5850000Y+3100000D03*
X-5905500Y+2919500D03*
X-5847772Y+3328176D03*
X-5644774Y+2961196D03*
X-5686000Y+3252000D03*
X-5804071Y+3053094D03*
X-5039361Y+3635999D03*
X-4676385Y+3703282D03*
X-5359846Y+3597549D03*
X-5627000Y+3519000D03*
X-5223504Y+2425308D03*
X-5710597Y+2814519D03*
X-5582239Y+3088586D03*
X-5344857Y+3085366D03*
X-5128123Y+3078537D03*
X-4926560Y+3127450D03*
X-5461282Y+3144582D03*
X-4664003Y+3256952D03*
X-4593490Y+3594558D03*
X-4947076Y+3334674D03*
X-5063000Y+3192000D03*
X-4808536Y+3260879D03*
X-5862624Y+3791376D03*
X-5691608Y+3618541D03*
X-5101322Y+3311798D03*
X-5775544Y+2753280D03*
X-5722322Y+2925000D03*
X-5500000Y+2984252D03*
X-5303761Y+3254685D03*
X-5294446Y+3518296D03*
X-5354002Y+3171500D03*
X-5545810Y+3208461D03*
X-5846402Y+3522598D03*
X-5024455Y+3506121D03*
X-5262643Y+3711503D03*
D71*
X-4750000Y+3424780D03*
X-4850000Y+3424780D03*
X-4950000Y+3424780D03*
X-5050000Y+3424780D03*
X-5150000Y+3424780D03*
X-5350000Y+3424780D03*
X-5250000Y+3424780D03*
X-5450000Y+3424780D03*
X-5550000Y+3424780D03*
X-5550000Y+2825000D03*
X-5450000Y+2825000D03*
X-5350000Y+2825000D03*
X-5250000Y+2825000D03*
X-5150000Y+2825000D03*
X-5050000Y+2825000D03*
X-4950000Y+2825000D03*
X-4850000Y+2825000D03*
X-4750000Y+2825000D03*
D20*
X-5410252Y+2912906D03*
X-5347142Y+2912717D03*
X-5284142Y+2912717D03*
X-5223213Y+2912906D03*
X-5161142Y+2912717D03*
X-5099142Y+2912717D03*
X-5037173Y+2912906D03*
D21*
X-5205000Y+2422772D03*
X-5205000Y+2596000D03*
X-5145945Y+2422772D03*
X-5145945Y+2596000D03*
X-5086890Y+2422772D03*
X-5086890Y+2596000D03*
D22*
X-5977000Y+3400000D03*
X-5893000Y+3400000D03*
D23*
X-4805000Y+2694000D03*
X-4805000Y+2610000D03*
X-4885000Y+2694000D03*
X-4885000Y+2610000D03*
X-4988000Y+2695000D03*
X-4988000Y+2611000D03*
D24*
X-5912598Y+3205000D03*
X-5912598Y+3155000D03*
X-5912598Y+3105000D03*
X-5912598Y+3055000D03*
X-5700000Y+3055000D03*
X-5700000Y+3105000D03*
X-5700000Y+3155000D03*
X-5700000Y+3205000D03*
D22*
X-5928000Y+3298000D03*
X-5844000Y+3298000D03*
X-6026500Y+2920000D03*
X-5942500Y+2920000D03*
X-5935000Y+2780000D03*
X-6019000Y+2780000D03*
X-5975000Y+3610000D03*
X-5891000Y+3610000D03*
X-5844000Y+2920000D03*
X-5760000Y+2920000D03*
D23*
X-5842520Y+2780850D03*
X-5842520Y+2696850D03*
X-5730000Y+3776000D03*
X-5730000Y+3860000D03*
X-5035433Y+3711276D03*
X-5035433Y+3795276D03*
D22*
X-5749000Y+3515000D03*
X-5665000Y+3515000D03*
D25*
X-5735000Y+3695000D03*
X-5735000Y+3658000D03*
X-5735000Y+3620000D03*
X-5641000Y+3620000D03*
X-5641000Y+3695000D03*
D26*
X-4893701Y+3562992D03*
X-4868110Y+3562992D03*
X-4842520Y+3562992D03*
X-4842520Y+3649606D03*
X-4868110Y+3649606D03*
X-4893701Y+3649606D03*
D27*
X-4940000Y+3930000D03*
X-4977000Y+3855000D03*
X-5014000Y+3930000D03*
D28*
X-5475000Y+3605000D03*
X-5400000Y+3568000D03*
X-5475000Y+3531000D03*
D29*
X-4928268Y+3759843D03*
X-4858268Y+3759843D03*
D72*
X-5146000Y+3587803D03*
X-5146000Y+3513000D03*
X-5055449Y+3550402D03*
D23*
X-4675000Y+3514000D03*
X-4675000Y+3430000D03*
X-5580000Y+3644000D03*
X-5580000Y+3560000D03*
X-5244094Y+3522299D03*
X-5244094Y+3606299D03*
X-4755906Y+3780850D03*
X-4755906Y+3696850D03*
X-5645000Y+3776000D03*
X-5645000Y+3860000D03*
X-5885000Y+3685000D03*
X-5885000Y+3769000D03*
X-4964567Y+3531496D03*
X-4964567Y+3615496D03*
X-4755906Y+3539370D03*
X-4755906Y+3623370D03*
X-4669291Y+3589228D03*
X-4669291Y+3673228D03*
D73*
X-4547244Y+3169291D03*
X-6082677Y+3169291D03*
D30*
X-5456693Y+2657480D03*
X-5456693Y+2707480D03*
X-5406693Y+2657480D03*
X-5406693Y+2707480D03*
X-5356693Y+2657480D03*
X-5356693Y+2707480D03*
X-5306693Y+2657480D03*
X-5306693Y+2707480D03*
X-5256693Y+2657480D03*
X-5256693Y+2707480D03*
D31*
X-5444000Y+2387000D03*
X-5326000Y+2387000D03*
X-5685000Y+3925000D03*
X-4633000Y+2741000D03*
X-4635433Y+2840748D03*
X-5575000Y+3800000D03*
X-6078000Y+2996000D03*
X-4600000Y+2928000D03*
X-4601000Y+3038000D03*
D32*
X-5529874Y+2493093D03*
D33*
X-5691722Y+2565152D03*
D34*
X-5444883Y+2562992D03*
X-5696647Y+2675085D03*
D35*
X-5182677Y+3920866D03*
X-5438583Y+3920866D03*
D36*
X-5186614Y+3850000D03*
X-5218110Y+3850000D03*
D37*
X-5261811Y+3850000D03*
X-5301181Y+3850000D03*
X-5320866Y+3850000D03*
X-5360236Y+3850000D03*
D36*
X-5435433Y+3850000D03*
X-5403937Y+3850000D03*
D37*
X-5379921Y+3850000D03*
X-5340551Y+3850000D03*
X-5281496Y+3850000D03*
X-5242126Y+3850000D03*
D38*
X-5118110Y+3916929D03*
X-5503937Y+3916929D03*
D39*
X-5118110Y+4035433D03*
X-5503937Y+4035433D03*
D23*
X-5362000Y+3617000D03*
X-5362000Y+3701000D03*
D40*
X-5686000Y+3437000D03*
X-5760803Y+3437000D03*
X-5723402Y+3346449D03*
D41*
X-4550000Y+3425000D03*
X-4550425Y+3358142D03*
D23*
X-4590000Y+3475000D03*
X-4590000Y+3559000D03*
D22*
X-4525000Y+3295000D03*
X-4609000Y+3295000D03*
D31*
X-4740157Y+2590551D03*
X-4675000Y+2672000D03*
D42*
X-5800000Y+3753740D03*
D43*
X-5800000Y+3675000D03*
D44*
X-5093425Y+4084528D02*
X-5069449Y+4056969D01*
X-5068764Y+4019441D01*
X-5045638Y+4016441D01*
X-5044386Y+4016315D01*
X-5045071Y+4016252D01*
X-5044630Y+4016126D01*
X-5044252Y+4016063D01*
X-5027063Y+4012000D01*
X-4997063Y+3999000D01*
X-4963063Y+3985000D01*
X-4928063Y+3971000D01*
X-4895063Y+3952000D01*
X-4876063Y+3941000D01*
X-4854063Y+3929000D01*
X-4835063Y+3918000D01*
X-4821063Y+3909000D01*
X-4805063Y+3896000D01*
X-4788063Y+3884000D01*
X-4751063Y+3855000D01*
X-4731063Y+3839000D01*
X-4716063Y+3825000D01*
X-4698063Y+3808000D01*
X-4683063Y+3793000D01*
X-4667063Y+3775000D01*
X-4648063Y+3753000D01*
X-4635063Y+3736000D01*
X-4624063Y+3721000D01*
X-4608063Y+3700000D01*
X-4595063Y+3683000D01*
X-4575063Y+3653000D01*
X-4560063Y+3627000D01*
X-4534063Y+3582000D01*
X-4526063Y+3565000D01*
X-4487063Y+3471000D01*
X-4457063Y+3360000D01*
X-4442063Y+3249000D01*
X-4440063Y+3189000D01*
X-4442063Y+3138000D01*
X-4450063Y+3069000D01*
X-4458063Y+3015000D01*
X-4473063Y+2957000D01*
X-4489063Y+2904000D01*
X-4512063Y+2852000D01*
X-4533063Y+2798000D01*
X-4583063Y+2712000D01*
X-4640063Y+2637000D01*
X-4669063Y+2602000D01*
X-4743063Y+2530000D01*
X-4795063Y+2492000D01*
X-4841063Y+2458000D01*
X-4879063Y+2437000D01*
X-4933063Y+2406000D01*
X-4981063Y+2387000D01*
X-5037063Y+2364000D01*
X-5105063Y+2346000D01*
X-5161063Y+2333000D01*
X-5215063Y+2327000D01*
X-5281063Y+2318000D01*
X-5372063Y+2322000D01*
X-5440063Y+2331000D01*
X-5495063Y+2341000D01*
X-5574063Y+2362000D01*
X-5632063Y+2384000D01*
X-5676063Y+2402000D01*
X-5722063Y+2424000D01*
X-5768063Y+2452000D01*
X-5799063Y+2471000D01*
X-5833063Y+2497000D01*
X-5864063Y+2522000D01*
X-5895063Y+2546000D01*
X-5967063Y+2620000D01*
X-6008063Y+2673000D01*
X-6036063Y+2711000D01*
X-6047063Y+2730000D01*
X-6056063Y+2747000D01*
X-6069063Y+2769000D01*
X-6091063Y+2808000D01*
X-6109063Y+2850000D01*
X-6125063Y+2889000D01*
X-6137063Y+2923000D01*
X-6148063Y+2969000D01*
X-6158063Y+3003000D01*
X-6164063Y+3025000D01*
X-6172063Y+3087000D01*
X-6178063Y+3132000D01*
X-6180063Y+3196000D01*
X-6178063Y+3246000D01*
X-6165063Y+3345000D01*
X-6162063Y+3363000D01*
X-6140063Y+3444000D01*
X-6132063Y+3474000D01*
X-6117063Y+3509000D01*
X-6106063Y+3536000D01*
X-6090063Y+3575000D01*
X-6057063Y+3632000D01*
X-6034063Y+3671000D01*
X-5994063Y+3724000D01*
X-5959063Y+3768000D01*
X-5923063Y+3807000D01*
X-5890063Y+3837000D01*
X-5875063Y+3850000D01*
X-5796063Y+3911000D01*
X-5698063Y+3968000D01*
X-5621063Y+4001000D01*
X-5552063Y+4013000D01*
X-5552378Y+4059551D01*
X-5527504Y+4084307D01*
X-5360890Y+4084866D01*
X-5105276Y+4084866D01*
X-5093724Y+4085299D01*
X-5093425Y+4084528D01*
M02*
